<?xml version="1.0" encoding="UTF-8"?>
<svg id="Layer_2" data-name="Layer 2" xmlns="http://www.w3.org/2000/svg" viewBox="0 0 414.22 655.44">
  <defs>
    <style>
      .cls-1 {
        fill: none;
        stroke: #000;
        stroke-miterlimit: 10;
        stroke-width: 3px;
      }

      .cls-2, .cls-3 {
        stroke-width: 0px;
      }

      .cls-3 {
        fill: #fff;
      }
    </style>
  </defs>
  <g id="Layer_2-2" data-name="Layer 2">
    <g>
      <g>
        <g>
          <path class="cls-3" d="m360.05,583.84c13.59,8.75-17.99,41.74-33.35,34.55-9.6-4.5-6.55-11.65-2.91-16.38,2.55-3.32,2.67-7.92.48-11.52l-40.56-66.42c-2.17-3.54-6.3-5.49-10.39-4.72-.14.03-.26.05-.38.07-9.28,1.68-15.54-9.24-9.55-16.51,8.95-10.88,21.05-14.32,29.06-15.37,5.24-.68,10.11,2.74,11.3,7.89,1.22,5.32.27,8.21-1.42,9.75-3.58,3.22-4,8.71-1.52,12.84l35.03,58.34c2.43,4.02,7.26,5.8,11.76,4.47,2.89-.86,6.97-.53,12.46,3.01Z"/>
          <path class="cls-3" d="m308.4,284.92c20.72,85.21-28.68,114.7-82.42,113.67,0,0-5.61,45.73-25.21,41.6-19.6-4.14-20.07-13.59-20.07-13.59,0,0-10.59,19.53-18.41,16.45-7.8-3.08-15.71-19.37-15.71-19.37,0,0-18.89,24.25-25.17,11.35-6.28-12.92-3.59-43.57-3.59-43.57,0,0-82.25-31.56-30.12-127.1,52.15-95.53,199.99-64.64,220.72,20.57Zm-53.6,39.05c3.56-22.4-5.66-42.48-20.61-44.86-14.92-2.36-29.92,13.88-33.47,36.28-3.56,22.4,5.66,42.48,20.61,44.86,14.94,2.36,29.93-13.88,33.47-36.28Zm-60.74,50.62c2.74-3.63-11.12-26.75-14.26-27.37,0,0-20.09,16.67-18.89,25.14,1.2,8.47,30.53,5.66,33.15,2.22Zm-50.33-13.61c14.97-2.12,24.54-22.06,21.36-44.51-3.18-22.47-17.92-38.95-32.88-36.83-14.97,2.12-24.54,22.06-21.36,44.51,3.18,22.45,17.92,38.95,32.88,36.83Z"/>
          <path class="cls-3" d="m102.08,596.92c-7.89,6.11-3.1,17.59-3.1,17.59,9.4,21.31,38.99,9.21,44.7,8.32,5.72-.91,3.59-22.61,3.59-22.61,0,0-25.79,1.11-45.2-3.3Zm124.4-70.48c-14.65,5.75-33.87,7.26-44.27,7.07,0,0-6.13,21.72,12.92,20.33,18.98-1.39,34.62-6.54,31.35-27.4Zm-115.6-1.01c-2.6,20.83,11.76,26,29.11,27.4,17.39,1.4,11.4-20.3,11.4-20.3-9.48.17-27.02-1.35-40.51-7.1Zm123.48,32.65c-14.58,7.05-34.98,12.92-52.09,9.86,0,0-3.7,16.81,1.9,17.42,3.94.43,21.7,1.49,35.63-1.64,9.98-2.24,16.93-10.68,15.61-20.04-.21-1.45-.41-4.5-1.04-5.6Zm3.23,39.91c-21.17,4.43-49.48,3.29-49.48,3.29,0,0-1.88,21.72,4.4,22.62,6.28.91,38.99,13.04,48.84-8.27,0,0,5.03-11.5-3.77-17.63v-.02Zm-133.3-40.97c-.56,1.11-.68,4.16-.84,5.6-1.03,9.36,5.48,17.78,14.6,20.04,12.77,3.15,28.96,2.09,32.53,1.68,5.1-.6,1.4-17.4,1.4-17.4-15.54,3.05-34.26-2.84-47.7-9.91Zm56.82,84.82l-.03.14s-49.37,9.26-68.88,2.64c-14.62-4.96-21.94-15.42-20.61-28.6,1.1-10.76,14.2-25.79,14.2-25.79-15.2-12,5.41-42,5.41-42-11.26-8.9,3.77-34.3,4.11-34.86v-.02c-2.05-3.35-3.06-7.27-2.7-11.81,2.11-26.1,75.1-20.9,75.1-20.9v.12c11.38-.46,75.73-2.05,78.33,21.77.5,4.55-.55,8.47-2.72,11.83,0,0,17.52,25.93,5.22,34.93,0,0,23.21,30.03,6.79,42.03-1.76,1.28-3.92,2.41-6.38,3.41l.07.17c7.96-3.54,9.34,16.46,7.86,28.63-1.63,13.23-9.98,23.94-25.91,28.91-20.23,6.28-65.49-9.09-69.84-10.59Zm16.96-122.55c27.84,4.74,55.47-6.06,49.08-17.06-4.93-8.56-31.25-9.05-42.78-8.83-3.9.07-7.38,2.22-8.83,5.51-4.77,10.71,2.53,20.38,2.53,20.38Zm-23.17-.94s6.49-9.65,1.93-20.37c-1.4-3.27-4.6-5.44-8.18-5.51-10.51-.22-34.5.24-38.85,8.76-5.6,11,19.8,21.8,45.1,17.11Z"/>
          <path class="cls-2" d="m234.2,279.11c14.94,2.38,24.16,22.45,20.61,44.86-3.54,22.4-18.53,38.64-33.47,36.28-14.94-2.38-24.16-22.45-20.61-44.86,3.56-22.4,18.55-38.64,33.47-36.28Z"/>
          <path class="cls-2" d="m179.81,347.23c3.13.62,16.99,23.74,14.26,27.37-2.62,3.44-31.95,6.25-33.15-2.22-1.2-8.47,18.89-25.14,18.89-25.14Z"/>
          <path class="cls-3" d="m165.31,450.39c12.29,0,22.25,4.62,22.25,10.29s-9.96,10.25-22.25,10.25-22.25-4.62-22.25-10.29,9.96-10.25,22.25-10.25Z"/>
          <path class="cls-2" d="m165.09,316.47c3.18,22.45-6.38,42.39-21.36,44.51-14.96,2.12-29.69-14.38-32.88-36.83-3.18-22.45,6.38-42.39,21.36-44.51,14.96-2.12,29.69,14.36,32.88,36.83Z"/>
          <path class="cls-3" d="m78.79,497.03c7.51,5.7,3.95,17.76-5.46,18.29-.14.02-.26.02-.38.02-4.16.21-7.74,3.05-9.02,7l-24.06,74.02c-1.3,3.99-.12,8.44,3.13,11.09,4.64,3.75,9.28,9.99.98,16.6-13.28,10.56-51.65-14.22-40.46-25.88,4.52-4.72,8.4-5.99,11.43-5.82,4.67.26,8.97-2.58,10.39-7.07l20.55-64.88c1.45-4.59-.22-9.82-4.45-12.13-2.02-1.1-3.59-3.7-3.65-9.14-.05-5.31,3.9-9.75,9.16-10.32,8.03-.84,20.61-.27,31.83,8.21Z"/>
        </g>
        <g>
          <path class="cls-1" d="m117.81,391.45s-82.25-31.56-30.12-127.1c52.15-95.53,199.99-64.64,220.72,20.57s-28.68,114.7-82.42,113.67c0,0-5.61,45.73-25.21,41.6-19.6-4.14-20.07-13.59-20.07-13.59,0,0-10.59,19.53-18.41,16.45-7.8-3.08-15.71-19.37-15.71-19.37,0,0-18.89,24.25-25.17,11.35-6.28-12.92-3.59-43.57-3.59-43.57Z"/>
          <path class="cls-1" d="m132.58,391.95s5.31,4.21,15.28,7.74c6.13,2.17,14.03,4.09,23.55,4.62,7.98.44,17.06-.1,27.19-2.28,1.52-.33,3.06-.68,4.64-1.1l7.75-4.55"/>
          <path class="cls-1" d="m199.37,387.67s-.41,7.24-.77,14.36c-.31,6.38-.58,12.66-.46,13.47"/>
          <path class="cls-1" d="m173.48,387.87s-1.2,8.66-2.07,16.43c-.6,5.34-1.04,10.27-.86,11.65"/>
          <path class="cls-1" d="m150.1,389.46s-1.16,4.76-2.24,10.22c-1.11,5.56-2.14,11.84-1.75,14.55"/>
          <path class="cls-1" d="m179.81,347.23s-20.09,16.67-18.89,25.14c1.2,8.47,30.53,5.66,33.15,2.22,2.74-3.63-11.12-26.75-14.26-27.37Z"/>
          <path class="cls-1" d="m165.09,316.47c-3.18-22.47-17.92-38.95-32.88-36.83-14.97,2.12-24.54,22.06-21.36,44.51,3.18,22.45,17.92,38.95,32.88,36.83,14.97-2.12,24.54-22.06,21.36-44.51Z"/>
          <path class="cls-1" d="m200.72,315.4c3.56-22.4,18.55-38.64,33.47-36.28,14.94,2.38,24.16,22.45,20.61,44.86-3.54,22.4-18.53,38.64-33.47,36.28-14.94-2.38-24.16-22.45-20.61-44.86Z"/>
          <path class="cls-1" d="m187.56,460.68c0,5.66-9.96,10.25-22.25,10.25s-22.25-4.62-22.25-10.29,9.96-10.25,22.25-10.25,22.25,4.62,22.25,10.29Z"/>
          <path class="cls-1" d="m110.88,525.43c0-.07.02-.12.02-.19"/>
          <path class="cls-1" d="m110.88,525.43c13.49,5.75,31.03,7.27,40.51,7.1,0,0,5.99,21.7-11.4,20.3-17.35-1.4-31.71-6.57-29.11-27.4Z"/>
          <path class="cls-1" d="m95.3,513.37c3.01,4.96,8.21,8.73,14.38,11.53.39.17.79.36,1.2.53"/>
          <path class="cls-1" d="m167.69,480.65s-72.99-5.2-75.1,20.9c-.36,4.54.65,8.45,2.7,11.81"/>
          <path class="cls-1" d="m104.29,557.03c13.43,7.07,32.16,12.96,47.7,9.91,0,0,3.7,16.81-1.4,17.4-3.58.41-19.77,1.47-32.53-1.68-9.12-2.26-15.62-10.68-14.6-20.04.15-1.44.27-4.48.84-5.6Z"/>
          <path class="cls-1" d="m95.3,513.35v.02c-.34.56-15.37,25.96-4.11,34.86,3.3,2.62,7.62,5.92,13.09,8.8"/>
          <path class="cls-1" d="m102.08,596.92c19.41,4.42,45.2,3.3,45.2,3.3,0,0,2.12,21.7-3.59,22.61-5.72.89-35.31,12.99-44.7-8.32,0,0-4.79-11.48,3.1-17.59Z"/>
          <path class="cls-1" d="m91.19,548.23s-20.61,30-5.41,42c3.85,3.05,9.7,5.19,16.29,6.69"/>
          <path class="cls-1" d="m161.07,641.98s-49.37,9.26-68.88,2.64c-14.62-4.96-21.94-15.42-20.61-28.6,1.1-10.76,14.2-25.79,14.2-25.79"/>
          <path class="cls-1" d="m156.83,497.98c-1.4-3.27-4.6-5.44-8.18-5.51-10.51-.22-34.5.24-38.85,8.76-5.6,11,19.8,21.8,45.1,17.11,0,0,6.49-9.65,1.93-20.37Z"/>
          <path class="cls-1" d="m226.48,526.44c-.02-.07-.02-.14-.03-.21"/>
          <path class="cls-1" d="m226.48,526.44c-14.65,5.75-33.87,7.26-44.27,7.07,0,0-6.13,21.72,12.92,20.33,18.98-1.39,34.62-6.54,31.35-27.4Z"/>
          <path class="cls-1" d="m165.98,480.85s.6-.03,1.71-.09c11.38-.46,75.73-2.05,78.33,21.77.5,4.55-.55,8.47-2.72,11.83-3.18,4.98-8.81,8.73-15.52,11.55-.43.17-.86.36-1.3.53"/>
          <path class="cls-1" d="m234.35,558.09c-14.58,7.05-34.98,12.92-52.09,9.86,0,0-3.7,16.81,1.9,17.42,3.94.43,21.7,1.49,35.63-1.64,9.98-2.24,16.93-10.68,15.61-20.04-.21-1.45-.41-4.5-1.04-5.6Z"/>
          <path class="cls-1" d="m243.3,514.36s17.52,25.93,5.22,34.93c-3.58,2.6-8.21,5.9-14.17,8.8"/>
          <path class="cls-1" d="m248.52,549.29s23.21,30.03,6.79,42.03c-1.76,1.28-3.92,2.41-6.38,3.41-3.32,1.33-7.2,2.41-11.35,3.27-21.17,4.43-49.48,3.29-49.48,3.29,0,0-1.88,21.72,4.4,22.62,6.28.91,38.99,13.04,48.84-8.27,0,0,5.03-11.5-3.77-17.63"/>
          <path class="cls-1" d="m160.76,641.72s.12.03.34.12c4.35,1.51,49.61,16.87,69.84,10.59,15.93-4.96,24.28-15.68,25.91-28.91,1.49-12.17.1-32.17-7.86-28.63-.21.1-.43.21-.65.34"/>
          <path class="cls-1" d="m175.53,498.91c1.45-3.29,4.93-5.44,8.83-5.51,11.53-.22,37.86.27,42.78,8.83,6.38,11-21.24,21.8-49.08,17.06,0,0-7.31-9.67-2.53-20.38Z"/>
          <path class="cls-1" d="m46.95,488.81c8.03-.84,20.61-.27,31.83,8.21,7.51,5.7,3.95,17.76-5.46,18.29-.14.02-.26.02-.38.02-4.16.21-7.74,3.05-9.02,7l-24.06,74.02c-1.3,3.99-.12,8.44,3.13,11.09,4.64,3.75,9.28,9.99.98,16.6-13.28,10.56-51.65-14.22-40.46-25.88,4.52-4.72,8.4-5.99,11.43-5.82,4.67.26,8.97-2.58,10.39-7.07l20.55-64.88c1.45-4.59-.22-9.82-4.45-12.13-2.02-1.1-3.59-3.7-3.65-9.14-.05-5.31,3.9-9.75,9.16-10.32Z"/>
          <path class="cls-1" d="m292.45,487.54c-8.01,1.04-20.11,4.48-29.06,15.37-5.99,7.27.27,18.19,9.55,16.51.12-.02.24-.03.38-.07,4.09-.77,8.21,1.18,10.39,4.72l40.56,66.42c2.19,3.59,2.07,8.2-.48,11.52-3.65,4.72-6.69,11.88,2.91,16.38,15.37,7.19,46.94-25.81,33.35-34.55-5.49-3.54-9.57-3.87-12.46-3.01-4.5,1.33-9.33-.44-11.76-4.47l-35.03-58.34c-2.48-4.12-2.05-9.62,1.52-12.84,1.69-1.54,2.64-4.43,1.42-9.75-1.18-5.15-6.06-8.57-11.3-7.89Z"/>
        </g>
      </g>
      <g>
        <g>
          <g>
            <path class="cls-3" d="m390.85,115.73l6.38-1.7s1.55-1.44,3.63-4.07c4.44-3.32,8.22-6.78,8.22-6.78,0,0,8.2,7.45,0,43.12s-69.24,41.61-69.24,41.61c-25.51,27.18-19.13,101.91-21.64,109.04-55.35-78.65-85.84-71.85-112.99-77.95-23.32-5.25-84.09,18.46-100.73,25.24-1.37.55-2.66-.94-1.91-2.22,8.02-13.72,33.7-58.92,32.22-72.27-1.76-15.8-5.67-18.78-5.67-18.78,0,0-73.53,3.46-77.63-56.66-4.1-60.11,77.63-59.16,77.63-59.16,0,0-7.94,9.24-8.85,15.18,0,0,27.84-49.26,88.17-48.83,49.19.35,70.99,19.6,86.74,47.41,0,0,64.69-39.35,100.22-2.83,27.92,28.7,13.08,54.25,5.45,63.87-3.42,2.56-7.22,5.03-10,5.77Z"/>
            <g>
              <path class="cls-1" d="m305.22,69.02c-3.2-7.06-6.46-13.8-10.03-20.1C279.43,21.1,257.63,1.85,208.45,1.5c-60.33-.42-88.17,48.83-88.17,48.83.91-5.94,8.85-15.18,8.85-15.18,0,0-81.73-.95-77.63,59.16,4.1,60.12,77.63,56.66,77.63,56.66,0,0,3.91,2.97,5.67,18.78,1.48,13.35-24.21,58.55-32.22,72.27-.75,1.27.55,2.77,1.91,2.22,16.64-6.78,77.41-30.49,100.73-25.24,27.15,6.11,57.63-.7,112.99,77.95"/>
              <path class="cls-1" d="m390.85,115.73l6.38-1.7s1.55-1.44,3.63-4.07c7.63-9.62,22.48-35.18-5.45-63.87-35.53-36.52-100.22,2.83-100.22,2.83"/>
              <path class="cls-1" d="m310.69,296.95s4.99,7.13,7.51,0c2.51-7.13-3.87-81.86,21.64-109.04,0,0,61.04-5.94,69.24-41.61s0-43.12,0-43.12c0,0-3.78,3.46-8.22,6.78-3.42,2.56-7.22,5.03-10,5.77l-.45.12c-.19.05-.36.09-.5.14-.67.18-.72.19-.36.09-.21.05-.35.09-.42.11l-.06.02"/>
            </g>
          </g>
          <path class="cls-1" d="m132.24,157.22c9.5,4.37,18.85,5.08,27.98.78,4.02-.18-12.35-18.31-18.04-38.21,0,0,19.6,72,85.04,71.21,65.45-.79,88.03-43.85,88.03-43.85"/>
        </g>
        <path class="cls-1" d="m334.22,196c-3.49,5.63-36.23,22.95-40-26"/>
      </g>
    </g>
  </g>
</svg>