<?xml version="1.0" encoding="UTF-8"?>
<svg id="Layer_2" data-name="Layer 2" xmlns="http://www.w3.org/2000/svg" viewBox="0 0 95.87 40.83">
  <defs>
    <style>
      .cls-1, .cls-2 {
        stroke-width: 0px;
      }

      .cls-2 {
        fill: #fff;
      }

      .cls-3 {
        fill: none;
        stroke: #000;
        stroke-linecap: round;
        stroke-linejoin: round;
        stroke-width: 3px;
      }
    </style>
  </defs>
  <g id="Layer_2-2" data-name="Layer 2">
    <g>
      <g>
        <path class="cls-2" d="m10.18,18.72c3.05-2.96,6.71-5.98,11-8.65l.65,1.04s-.01.04-.01.04c0,0,.01.01.03.04.05.28.19,1.41.59,5.52.71,7.3-15.62,5.85-15.62,5.85l-.17-.15c1.06-1.19,2.24-2.44,3.53-3.69Z"/>
        <path class="cls-2" d="m50.82,1.5c16.48,0,27.49,7.01,34.53,14.42,0,0-4.53,5.76-10.53,4.49-6-1.26-6-9.26-6-9.26-3.45,5.73-4.51,8.74-12.23,9.26-8.36.57-11.47-18.62-11.47-18.62,1.84-.19,3.74-.29,5.7-.29Z"/>
        <path class="cls-2" d="m45.12,1.79s-.3,18.14-8.53,18.62c-7.92.47-14.28-8.54-14.74-9.22-.01-.06-.02-.08-.02-.08l-.65-1.04c6.53-4.08,14.5-7.33,23.94-8.28Z"/>
        <path class="cls-1" d="m93.86,27.9c1.37,2.63-.11,5.84-3.01,6.49-13.24,2.96-49.31,9.26-85.86.35-3.16-.77-4.53-4.47-2.6-7.09,1.14-1.55,2.56-3.34,4.26-5.24l.17.15s16.33,1.45,15.62-5.85c-.4-4.11-.54-5.24-.59-5.52.46.68,6.82,9.69,14.74,9.22,8.23-.48,8.53-18.62,8.53-18.62,0,0,3.11,19.19,11.47,18.62,7.72-.52,8.78-3.53,12.23-9.26,0,0,0,8,6,9.26,6,1.27,10.53-4.49,10.53-4.49,4.07,4.28,6.81,8.7,8.51,11.98Z"/>
      </g>
      <g>
        <path class="cls-3" d="m85.35,15.92c4.07,4.28,6.81,8.7,8.51,11.98,1.37,2.63-.11,5.84-3.01,6.49-13.24,2.96-49.31,9.26-85.86.35-3.16-.77-4.53-4.47-2.6-7.09,1.14-1.55,2.56-3.34,4.26-5.24,1.06-1.19,2.24-2.44,3.53-3.69,3.05-2.96,6.71-5.98,11-8.65,6.53-4.08,14.5-7.33,23.94-8.28,1.84-.19,3.74-.29,5.7-.29,16.48,0,27.49,7.01,34.53,14.42Z"/>
        <path class="cls-3" d="m6.82,22.56s16.33,1.45,15.62-5.85c-.4-4.11-.54-5.24-.59-5.52-.01-.06-.02-.08-.02-.08-.01,0-.01.04-.01.04,0,0,.01.01.03.04.46.68,6.82,9.69,14.74,9.22,8.23-.48,8.53-18.62,8.53-18.62,0,0,3.11,19.19,11.47,18.62,7.72-.52,8.78-3.53,12.23-9.26,0,0,0,8,6,9.26,6,1.27,10.53-4.49,10.53-4.49"/>
      </g>
    </g>
  </g>
</svg>