<?xml version="1.0" encoding="UTF-8"?>
<svg id="Layer_2" data-name="Layer 2" xmlns="http://www.w3.org/2000/svg" xmlns:xlink="http://www.w3.org/1999/xlink" viewBox="0 0 360.9 447.67">
  <defs>
    <style>
      .cls-1 {
        fill: none;
        stroke: #000;
        stroke-miterlimit: 10;
        stroke-width: 3px;
      }

      .cls-2 {
        fill: url(#linear-gradient);
      }

      .cls-2, .cls-3, .cls-4, .cls-5, .cls-6, .cls-7, .cls-8, .cls-9, .cls-10, .cls-11, .cls-12, .cls-13, .cls-14, .cls-15, .cls-16, .cls-17, .cls-18, .cls-19, .cls-20 {
        stroke-width: 0px;
      }

      .cls-3 {
        fill: url(#linear-gradient-4);
      }

      .cls-4 {
        fill: url(#linear-gradient-2);
      }

      .cls-5 {
        fill: url(#linear-gradient-3);
      }

      .cls-6 {
        fill: url(#linear-gradient-5);
      }

      .cls-7 {
        fill: url(#linear-gradient-6);
      }

      .cls-9 {
        fill: #f6e553;
      }

      .cls-10 {
        fill: #9b9b9c;
      }

      .cls-11 {
        fill: #838181;
      }

      .cls-12 {
        fill: #1c1512;
      }

      .cls-13 {
        fill: #080707;
      }

      .cls-14 {
        fill: #cfcac5;
      }

      .cls-15 {
        fill: #c8814c;
      }

      .cls-16 {
        fill: #dbdbdc;
      }

      .cls-17 {
        fill: #b9b9b9;
      }

      .cls-18 {
        fill: #935f1b;
      }

      .cls-19 {
        fill: #e49557;
      }

      .cls-20 {
        fill: #fcfbfb;
      }
    </style>
    <linearGradient id="linear-gradient" x1="210.2" y1="298.07" x2="359.4" y2="298.07" gradientUnits="userSpaceOnUse">
      <stop offset=".12" stop-color="#fcae76"/>
      <stop offset=".45" stop-color="#e37007"/>
      <stop offset=".88" stop-color="#c25212"/>
    </linearGradient>
    <linearGradient id="linear-gradient-2" x1="192.55" y1="314.43" x2="301.36" y2="314.43" xlink:href="#linear-gradient"/>
    <linearGradient id="linear-gradient-3" x1="121.17" y1="320.19" x2="227.54" y2="320.19" xlink:href="#linear-gradient"/>
    <linearGradient id="linear-gradient-4" x1="192.51" y1="196.73" x2="192.55" y2="196.73" xlink:href="#linear-gradient"/>
    <linearGradient id="linear-gradient-5" x1="55.54" y1="312.96" x2="165.23" y2="312.96" xlink:href="#linear-gradient"/>
    <linearGradient id="linear-gradient-6" x1="1.5" y1="298.58" x2="155.3" y2="298.58" xlink:href="#linear-gradient"/>
  </defs>
  <g id="Layer_2-2" data-name="Layer 2">
    <g>
      <g>
        <g>
          <g>
            <path class="cls-2" d="m350.05,264.06c38.61,100.08-54.13,154.5-65.81,147.52,17.4-33.12,17.05-64.71,17.13-87.38.07-24.72-21.48-104.53-45.82-121.72-24.92-17.58-44.23-14.52-45.34-14.33,2.22-.69,99.06-29.81,139.85,75.91Z"/>
            <path class="cls-4" d="m284.24,411.58c-1.75,3.32-3.67,6.66-5.79,10-24.24,38.25-68.29,8.29-68.29,8.29,6.42-7.42,11.74-18.26,13.88-34.07,7.16-52.98,2.15-134.21-4.3-154.65-7.06-22.38-26.26-43.76-27.19-44.42,2.92-4.28,17.61-8.56,17.61-8.56,0,0,.01,0,.04-.01,1.1-.19,20.42-3.25,45.34,14.33,24.34,17.18,45.89,97,45.82,121.72-.07,22.67.27,54.26-17.13,87.38Z"/>
            <path class="cls-5" d="m219.74,241.14c6.44,20.45,11.46,101.67,4.3,154.65-2.13,15.81-7.46,26.65-13.88,34.07-15.09,17.46-36.24,16.05-36.24,16.05,0,0-16.53,2.75-30.77-9.84-8.74-7.7-16.63-21.18-19.35-44.58-7.16-61.58,1.56-129.21,11.46-156.09,10.02-27.21,29.97-38.66,29.97-38.66,13.9-5.61,26.76-.23,27.29-.01h.01s.01,0,.01-.01c.93.66,20.13,22.04,27.19,44.42Z"/>
            <path class="cls-18" d="m210.16,188.16s-14.69,4.28-17.61,8.56c-.03-.03-.04-.01-.03.01-.53-.21-13.39-5.6-27.29.01,0,0-1.33-5.73-9.92-8.59,0,0,25.78-22.91,24.34-34.37-1.43-11.46-15.69-14.41-12.14-35.13s12.2-22.17,12.2-22.17c0,0-4.35,20.06-4.35,24.36s7.16,8.59,17.18,15.75,5.73,27.21,5.73,32.94,2.31,17.18,11.9,18.62Z"/>
            <path class="cls-3" d="m192.55,196.72s-.01.01-.01.03h-.01s0-.06.03-.03Z"/>
            <path class="cls-6" d="m73.65,411.56c-11.54-18.19-27.22-58.34-11.43-136.05,17.18-84.49,93.08-87.35,93.08-87.35,8.59,2.86,9.92,8.59,9.92,8.59,0,0-19.95,11.46-29.97,38.66-9.89,26.88-18.62,94.51-11.46,156.09,2.72,23.4,10.61,36.87,19.35,44.58-29.36,5.9-55.15-4.48-66.6-20.23-.86-1.17-1.76-2.49-2.69-3.95-.07-.1-.14-.21-.2-.33Z"/>
            <path class="cls-7" d="m13.54,252.6c41.53-90.21,141.77-64.44,141.77-64.44,0,0-75.89,2.86-93.08,87.35-15.79,77.71-.11,117.87,11.43,136.05-24.37,9.95-101.63-68.78-60.11-158.96Z"/>
          </g>
          <g>
            <path class="cls-1" d="m192.52,196.74c-.53-.21-13.39-5.6-27.29.01,0,0-1.33-5.73-9.92-8.59,0,0,25.78-22.91,24.34-34.37-1.43-11.46-15.69-14.41-12.14-35.13s12.2-22.17,12.2-22.17c0,0-4.35,20.06-4.35,24.36s7.16,8.59,17.18,15.75,5.73,27.21,5.73,32.94,2.31,17.18,11.9,18.62c0,0-14.69,4.28-17.61,8.56,0,.01-.01.01-.01.03"/>
            <path class="cls-1" d="m192.53,196.75h-.01s0-.06.03-.03c.93.66,20.13,22.04,27.19,44.42,6.44,20.45,11.46,101.67,4.3,154.65-2.13,15.81-7.46,26.65-13.88,34.07-15.09,17.46-36.24,16.05-36.24,16.05,0,0-16.53,2.75-30.77-9.84-8.74-7.7-16.63-21.18-19.35-44.58-7.16-61.58,1.56-129.21,11.46-156.09,10.02-27.21,29.97-38.66,29.97-38.66"/>
            <path class="cls-1" d="m143.14,436.08c-29.36,5.9-55.15-4.48-66.6-20.23-.86-1.17-1.76-2.49-2.69-3.95-.07-.1-.14-.21-.2-.33-11.54-18.19-27.22-58.34-11.43-136.05,17.18-84.49,93.08-87.35,93.08-87.35,0,0-100.24-25.78-141.77,64.44-41.51,90.19,35.74,168.92,60.11,158.96.01,0,.01-.01.03-.01"/>
            <path class="cls-1" d="m210.16,188.16s.01,0,.04-.01c2.22-.69,99.06-29.81,139.85,75.91,38.61,100.08-54.13,154.5-65.81,147.52-.03-.01-.04-.01-.06-.03"/>
            <path class="cls-1" d="m210.16,429.87s44.05,29.96,68.29-8.29c2.12-3.34,4.04-6.67,5.79-10,17.4-33.12,17.05-64.71,17.13-87.38.07-24.72-21.48-104.53-45.82-121.72-24.92-17.58-44.23-14.52-45.34-14.33"/>
          </g>
        </g>
        <g>
          <path class="cls-8" d="m216.16,271.93s41.53,7.16,57.28-31.5c0,0-6.44,88.07-57.28,31.5Z"/>
          <path class="cls-8" d="m134.54,271.93s-41.53,7.16-57.28-31.5c0,0,6.44,88.07,57.28,31.5Z"/>
          <path class="cls-8" d="m172.49,291.26s-10.02,18.62-14.32,25.78c-2.93,4.89,19.04,3.23,26.82,1.99,1.63-.26,3.25-.56,1.84-3.5-3.22-6.71-12.86-22.31-14.34-24.26Z"/>
          <path class="cls-8" d="m73.68,331.36s15.75,45.82,55.85,65.87c0,0,12.89-11.46,17.18-15.75l15.75,21.48,14.32-20.05,15.75,17.18s12.89-18.62,12.89-21.48,14.32,17.18,14.32,17.18c0,0,39.45-16.32,55.53-75.46l-22.59,22.48-19.56-22.48s-6.22,26.78-11.95,28.21l-21.48-17.18-18.62,24.34s-23.45-17.32-23.18-20.11l-18.35,18.68-22.91-25.78-15.75,21.48s-25.78-11.46-27.21-18.62Z"/>
        </g>
      </g>
      <g>
        <path class="cls-13" d="m249.69,188.51q15.85,21.71,31.69,43.42c-51.18,12.31-116.45,1.61-161.06-26.55-12.93-8.58-38.17-26.01-44.06-40.23-4.01-9.69-.83-18.41,8.24-23.49,15.33-8.58,45.49-5.05,62.89-4.25,2.82,1.6-9.18,1-13.13,5.3-10.79,11.75,13.55,25.6,22.03,29.8,24.59,12.18,66.2,21.62,93.41,16.01Z"/>
        <path class="cls-8" d="m297.08,181.04c7.63,2.2,34.57,14.68,37.01,22.58-7.48,16.01-36.8,24.48-52.71,28.3q-15.85-21.71-31.69-43.42c14.83-6.65,31.3-12.11,47.39-7.47Z"/>
        <path class="cls-13" d="m285.31,161.58c-1.44,3.53,11.73,5.84,15.31,7.32,10.31,4.26,29.19,12.82,33.64,23.66,1.69,4.11,1.71,7.07-.16,11.06-2.45-7.91-29.38-20.39-37.01-22.58-1.67-2.29-7.34-.81-2.03-3.19-1.05-3.48-17.4-13.26-17.76-14.35-.24-.73.85-3.84,3.74-3.07,1.41.43,2.89.73,4.28,1.16Z"/>
        <path class="cls-11" d="m269.23,12.74l-.72-.13c-1.59-2.32-3.42-4.51-4.9-6.92l-8.05,7.17c-3.75-1.5-19.02-5.37-20.53-6.4-4.41-3.01,6.9-2.64,14.21-3.03,4.25-.23,8.49-.66,12.73-1.05,3.61,3.79,6.16,8.89,7.27,10.36Z"/>
        <path class="cls-12" d="m272.71,14.13l-2.68-2.75-.58.08c.82.84.81,1.69,1.08,2.27-.54-.04-1.03-.61-1.31-.99-1.11-1.47-3.65-6.57-7.27-10.36-4.24.39-8.47.82-12.73,1.05-2.71-1.05-8.32.69-4.14-1.89,5.4-.45,10.84-.47,16.18-1.54,1.25.33,9.81,12.15,11.44,14.13Z"/>
        <g>
          <path class="cls-13" d="m249.23,3.43c-7.32.39-18.62.02-14.21,3.03,1.51,1.03,16.77,4.89,20.53,6.4l8.05-7.17c1.48,2.41,3.31,4.59,4.9,6.92,1.94,2.83,10.38,16.83,12.65,17.74,4.84,1.94-8.36-11.78-10.61-16.61-.27-.58-.26-1.43-1.08-2.27l.58-.08,2.68,2.75c4.85,5.9,10.47,11.62,14.03,18.37q-9.03-.72-18.07-1.44-7.38-5.68-14.75-11.36c-13.51,3.05-9.12,1.73-5.59,17.21,2.02,8.88,4.38,23.57,6.08,30.07,1.8,6.88,8.54,23.21,8.6,24.51.08,1.92-1.94,7.78-1.77,11.71,9.76,9.13,5.21,12.04,6.25,16.94.6,2.82,10.47,13.86,3.53,23.58,2.68,17.5-1.86,13.03,10.03,16.69-2.89-.76-3.98,2.34-3.74,3.07.36,1.09,16.7,10.87,17.76,14.35-5.31,2.38.37.9,2.03,3.19-16.09-4.64-32.57.82-47.39,7.47-27.2,5.6-68.82-3.83-93.41-16.01-8.48-4.2-32.82-18.05-22.03-29.8,3.95-4.3,15.95-3.7,13.13-5.3-17.4-.8-47.56-4.33-62.89,4.25-9.07,5.08-12.25,13.81-8.24,23.49,5.89,14.22,31.13,31.66,44.06,40.23,44.62,28.16,109.88,38.85,161.06,26.55,15.91-3.83,45.23-12.3,52.71-28.3,1.86-3.99,1.85-6.95.16-11.06-4.45-10.83-23.33-19.39-33.64-23.66-3.57-1.48-16.75-3.79-15.31-7.32,19.48,6.02,70.83,23.03,48.46,51.94-10.85,14.02-37.39,22.61-54.22,26.33-2.38.4-4.91.49-7.28.92-10.12,1.84-20.23,3.6-30.51,4.18l3.67,1.42c-2.56-.34-5.11-.68-7.67-1.03-37.85-5.22-54.98-8.34-92.3-16.94-3.46-.8-6.9-1.83-10.36-2.65,1.76-1.81,6.83,1.88,7.7.85-8.16-4.43-16.68-9.09-24.72-14.12-1.21-.76-2.52-1.41-3.71-2.19-16.44-10.64-55.58-39.97-41.55-63.09,11.75-19.36,57.43-13.91,76.27-11.95,2.23-3.72,5.24-13.63,8.76-13.06-.07-4.76,4.06-7.31,7.14-10.35,1.68-4.15-6.41-5.99,13.76-26.05-.59-4.89,8.7-14.38,12.17-21.46l-.26-2.68c13.87-19.73,26.01-40.71,41.05-59.58,4.47-.06,8.93-.18,13.38-.55-4.17,2.58,1.43.84,4.14,1.89Z"/>
          <g>
            <path class="cls-13" d="m232.29,91.69c-1.62,1.21-12.66,8.65-12.6,9.53q17.55,13.47,35.09,26.93c-2.27.51-17.88,3.53-18.38,4.34-.08.13.44,2.11.54,2.17,1.51.96,20.19-3.1,23.19-4.02l.85-3.6c.06,0-.06-.56,1.15-.16-.05,1-.1,1.98-.17,2.98-9.17,4.49-18.34,5.94-28.67,6.39l-.74.99c-1.03-.89-2.13-3.17-3.02-3.94.58-1.57-.55-4.27-1.91-4.86-1.02-.44-12.11-.36-21.98-2.53-3.18-.7-6.38-5.16-12.18,1.15l-18.41-9.77.38-1.06c1.73.26-.92-1.19-1.36-1.75-9.52-12.29,2.2-15.19,5.43-20.43q9.3,2.83,18.6,5.67c.62-3.7.23-2.9-4.84-7.28-2.85-2.47-9.68-6.25-8.6-10.23,16.22,1.18,32.23,4.31,47.65,9.5Z"/>
            <path class="cls-13" d="m230.76,32.75c-.4,3.38,2.98,5.68,4.42,8.52q-3.76-.41-7.52-.82c-10.49,5.37-.98,6.55-3.28,16.88,1.02,2.5,10.72,17.39,10.03,18.76-4.48,2.33-9.82,3.93-13.65,7.08-9.47-4.19-17.82-8.7-26.04-15.12,13.34-10.39,22.57-25.19,36.04-35.31Z"/>
            <path class="cls-16" d="m251.64,67.79c-.37-.1-.82,0-1.05-.38-.64-1.05-4.07-18.67-4.95-21.96-2.16-8.12-8.94-27.49-9.76-32.44-1.85-11.16,2.87,2.94,5.6,10.24q5.08,22.27,10.16,44.54Z"/>
            <path class="cls-20" d="m179.48,94.03c-3.24,5.25-14.95,8.15-5.43,20.43.44.56,3.09,2.02,1.36,1.75-5.24-3.55-9.38-7.33-6.75-14.21.29-.77,10.18-11.84,10.86-12.29,1.18-.79,1.12,2.43-.04,4.32Z"/>
            <path class="cls-10" d="m271.26,165.77q1.83,3.81,3.65,7.63l-17.48,4.5c11.7-4.85,6.52-5.14,13.82-12.13Z"/>
            <path class="cls-17" d="m261.95,129.84c.08-1,.12-1.97.17-2.98.1-2.01.04-16.33-.22-17.15-.3-.93-2.22-1.9-2.92-4.48,7.14,6.47,4.64,7.13,5.23,14.31.27,3.29,1.81,6.63.8,9.92-.18.18-1.89-.2-3.06.38Z"/>
            <path class="cls-16" d="m266.33,125.38c1.01,2.54,5.29,11.96,3.6,14.01-15.07,1.07-15.11,2.88-1.7-2.94.59-1.72-5.62-1.71-1.9-11.06Z"/>
            <path class="cls-20" d="m165.25,115.48c.8.03,5.78,5.71,7.24,6.41-3.07-.4-8.02-7.05-9.84-1.43-1.55,4.79,4.19,7.01,6.58,10.04-15.97-5.95-5.04-15.06-3.98-15.02Z"/>
            <path class="cls-20" d="m184.64,82.19c-1.08,3.97,5.75,7.76,8.6,10.23-14.86-7.79-12.93-8.69-2.29-20.16,2.7-8.06,3.38-5.24-.27,1.46-.91,1.68-5.83,7.7-6.05,8.48Z"/>
            <g>
              <path class="cls-9" d="m263.08,166.52c-5.62-2.7-22.95-9.85-26.17-12.32-.42-.32-1.52-.55-1.64-1.24-.09-.53.56-2.35.63-3.46,5.76,1.43,25.89-.97,32.39-4.21l1.65,18.54c-2.1,1.34-4.52,1.95-6.85,2.69Z"/>
              <path class="cls-19" d="m236.91,154.2c3.23,2.48,20.55,9.62,26.17,12.32-10.38,3.3-23.42,3.64-34.33,4.6,1.43-14.42,3-11.35,5.25-13.32,2.37-2.08.11-3.89,2.91-3.6Z"/>
              <g>
                <path class="cls-19" d="m150.28,145.07c6.61-.31,9.42-8.7,13.01-13.78,6.84,4.33,14.53,6.75,21.98,9.67,5.39-2.55-1.82,6.83,1.4,11.73-2.93,1.21-2.25,6.47-3.32,9.92-9.99-3.76-25.54-10.28-33.07-17.54Z"/>
                <path class="cls-9" d="m163.29,131.29c-3.59,5.08-6.39,13.47-13.01,13.78-.11-.11-2.29-1.1-2.23-2.1q4.28-8.05,8.57-16.1l.64-.45c.39-.04,5.15,4.31,6.03,4.87Z"/>
              </g>
              <path class="cls-15" d="m235.9,149.5c-.07,1.11-.73,2.92-.63,3.46.12.69,1.23.92,1.64,1.24-2.8-.29-.54,1.53-2.91,3.6.05-.25.21-.63-.05-.76-1.43-.73-5.27,2.43-.86-9.56,1.27,1.19,1,1.57,2.81,2.02Z"/>
            </g>
            <path class="cls-20" d="m269.23,12.74c.29.38.77.96,1.31.99,2.25,4.83,15.45,18.55,10.61,16.61-2.27-.91-10.7-14.91-12.65-17.74l.72.13Z"/>
            <path class="cls-14" d="m143.72,150.26l3.86-2.68c5.79,12.45,10.45,14.44-3.86,2.68Z"/>
            <path class="cls-16" d="m211.7,35.65q-8.74,14-17.49,28c-.2-.42-.04-1.25.12-1.67.85-2.33,14.37-21.85,17.37-26.33Z"/>
            <path class="cls-16" d="m147.58,147.58l-3.86,2.68c-2.24-.78.91-2.94,2.99-5.09.78,1.07.81,2.3.87,2.41Z"/>
            <path class="cls-13" d="m260.97,127.03l-.85,3.6c-3,.92-21.67,4.97-23.19,4.02-.09-.06-.62-2.03-.54-2.17.5-.81,16.11-3.83,18.38-4.34,2.05-.46,4.11-.78,6.19-1.12Z"/>
            <g>
              <path class="cls-20" d="m229.52,133.29c.89.77,1.99,3.04,3.02,3.94-.81,5.77-5.86,36.86-6.75,38.81-.77,1.67-5.75,3.71-7.6,3.68-1.51-.02-28.28-4.89-29.68-5.45-1.55-.61-4.05-3.59-4.41-5.51l6.65-38.26c6.45-7.22,9.31-3.1,15.49-1.86,6.65,1.34,13.35,2.71,20.17,2.2.78,1.1,2.12,1.6,3.1,2.45Z"/>
              <g>
                <path class="cls-17" d="m193.46,164.65c-.48-.07-.96-.21-1.45-.27-.78-.09-2.48-.15-2.6-.1-3.02-3.21,2.03-5.45,2.19-5.8.79-1.81-.92-1.67-1.44-2.33,3.12-.01,2.53-1.05,3.11-4.69.05-.3,2.3-1.88-1.34-4.95.68-2.29,1.11-7.97,1.67-9.09.15-.3,5.02-3.59,5.54-3.68-1.25,9.55-4.68,21.87-5.67,30.92Z"/>
                <path class="cls-16" d="m226.24,140.96c1.18.67,1.11,1.54,3.26.6-.13,1.32-2.07,14.05-2.78,14.15-7.16-5.67-3.36-7.71-2.34-16.79,1.37,3.25,1.73,1.95,1.87,2.04Z"/>
                <path class="cls-16" d="m222.44,171.85c-.56-.19-1.43-.13-1.81-.33-.61-.31-1.74-2.39-2.5-2.71.04-.11.03-.25.07-.36,1.67-1.01,3.17-4.23,5.42-2.01,2.21,2.17-1.1,5.12-1.18,5.42Z"/>
                <path class="cls-10" d="m229.5,141.56c-2.15.94-2.07.08-3.26-.6-1.54-5.38,4.04-7.41,3.26.6Z"/>
                <path class="cls-16" d="m192.01,164.39c-2.11,1.52-1.02,9.16-3.92,6.05-1.13-1.22-.28-5.49,1.32-6.15.12-.05,1.82.01,2.6.1Z"/>
                <path class="cls-20" d="m193.26,151.46c-.58,3.65.02,4.68-3.11,4.69-.44-.56-1.28-.52-1.35-.81-.5-2.12,1.97-6.25,4.45-3.88Z"/>
                <path class="cls-20" d="m222.44,171.85c-.17.61-1.08,8.82-2.9,6.61-1.04-1.26,1.32-5.21,1.09-6.94.38.2,1.25.14,1.81.33Z"/>
                <g>
                  <path class="cls-13" d="m218.2,168.44c-.04.12-.03.25-.07.36-.5,1.42-1.19,3.07-3.02,3.21-2.06.15-17.03-3.52-21.72-3.99-.8-.8-.09-2.05.06-3.37.99-9.05,4.42-21.37,5.67-30.92,2.21-.41,19.2,3.99,24.71,3.97-2.06,8.25-3.74,24.37-5.64,30.74Z"/>
                  <path class="cls-13" d="m220.68,147.84c1.03.59-2.38,16.5-3.11,18.98l-20.78-4,3.35-17.24c1.23-.57,17.23,3.66,20.54,2.26Z"/>
                </g>
              </g>
            </g>
          </g>
        </g>
      </g>
    </g>
  </g>
</svg>