<?xml version="1.0" encoding="UTF-8"?>
<svg id="Layer_2" data-name="Layer 2" xmlns="http://www.w3.org/2000/svg" viewBox="0 0 493.42 526.47">
  <defs>
    <style>
      .cls-1 {
        stroke-miterlimit: 10;
      }

      .cls-1, .cls-2 {
        fill: none;
        stroke: #000;
        stroke-width: 3px;
      }

      .cls-3, .cls-4, .cls-5 {
        stroke-width: 0px;
      }

      .cls-4 {
        fill: #a93737;
      }

      .cls-5 {
        fill: #fff;
      }

      .cls-2 {
        stroke-linecap: round;
        stroke-linejoin: round;
      }
    </style>
  </defs>
  <g id="Layer_2-2" data-name="Layer 2">
    <g>
      <g>
        <g>
          <path class="cls-5" d="m75.5,317.85c40.87,0,74,8.28,74,18.5s-33.13,18.5-74,18.5S1.5,346.57,1.5,336.35s33.13-18.5,74-18.5Zm40.55,18.55c0-5.83-18.9-10.55-42.2-10.55s-42.2,4.72-42.2,10.55,18.89,10.55,42.2,10.55,42.2-4.72,42.2-10.55Z"/>
          <ellipse class="cls-5" cx="73.85" cy="336.4" rx="42.2" ry="10.55"/>
        </g>
        <g>
          <ellipse class="cls-1" cx="75.5" cy="336.35" rx="74" ry="18.5"/>
          <ellipse class="cls-1" cx="73.85" cy="336.4" rx="42.2" ry="10.55"/>
        </g>
      </g>
      <g>
        <g>
          <polygon class="cls-4" points="486.29 228.86 491.29 242.86 486.79 242.86 481.09 242.71 486.29 228.86"/>
          <polygon class="cls-4" points="465.29 223.03 472.38 241.86 466.79 241.86 466.29 241.86 459.29 241.86 465.29 223.03"/>
          <polygon class="cls-4" points="443.47 227.08 449.29 240.86 443.47 240.86 443.29 240.86 439.29 240.86 443.47 227.08"/>
          <path class="cls-4" d="m387.69,464.74c4.67,28.75,5.71,49.12,5.71,49.12-92.89,25-204.11,0-204.11,0-7-102,34.94-183.62,34.94-183.62,10,4.66,20.79,7.79,32.31,8.62,25.41,1.82,49.63-12.15,68.75-28.93,37.72,39.61,54.84,108.22,62.4,154.81Z"/>
          <path class="cls-4" d="m215.14,220.22h0s1.15-2.55,1.15-2.55c.81-4.96,1.79-19.6.51-34.54-1.86-21.78-8.53-44.2-27.51-38.27-10.05,3.14-14.68,11.61-16.29,21.75-3.53,22.14,7.29,52.25,7.29,52.25l1.7,3.5c2-1.06,4.32-2.08,6.93-2.89,4.9-1.54,10.81-2.35,17.57-1.38,2.74.39,5.63,1.07,8.65,2.13Zm96.32,2.14l1.69-3.5s10.82-30.11,7.29-52.25c-1.61-10.14-6.24-18.61-16.29-21.75-18.98-5.93-25.65,16.49-27.51,38.27-1.28,14.94-.3,29.58.51,34.54l1.16,2.54c3.02-1.05,5.91-1.73,8.65-2.12,6.76-.97,12.67-.16,17.57,1.38,2.61.81,4.93,1.83,6.93,2.89Zm66.83-55.5c0,30-10,82-13,93-1.63,5.99-17.18,30.03-40,50.07-19.12,16.78-43.34,30.75-68.75,28.93-11.52-.83-22.31-3.96-32.31-8.62-38.39-17.86-65.25-58.13-77.94-76.38-16-23-36-121-25-150s119-44,119-44c122-4,138,77,138,107Z"/>
          <path class="cls-5" d="m320.44,166.61c3.53,22.14-7.29,52.25-7.29,52.25l-1.69,3.5c-2-1.06-4.32-2.08-6.93-2.89,0,0,12.37-25.85,0-44.23,8.84-4.15,15.59-8.42,15.91-8.63Z"/>
          <path class="cls-4" d="m304.15,144.86c10.05,3.14,14.68,11.61,16.29,21.75-.32.21-7.07,4.48-15.91,8.63,0,0-.04.02-.12.05-.07.04-.19.09-.33.15-.07.03-.15.07-.24.11-1.65.72-5.93,2.59-9.54,3.95-.12.04-.24.09-.35.13-1.25.44-2.5.85-3.75,1.23-4.7,1.42-9.38,2.33-13.56,2.27,1.86-21.78,8.53-44.2,27.51-38.27Z"/>
          <path class="cls-3" d="m304.53,175.24c12.37,18.38,0,44.23,0,44.23-4.9-1.54-10.81-2.35-17.57-1.38h0c-8.2-5.78-.81-36.23,3.24-37.23.97-.24,2.3-.69,3.75-1.23.11-.04.23-.09.35-.13,3.29-1.18,6.53-2.55,9.54-3.95.09-.04.17-.08.24-.11.11-.04.22-.1.33-.15.08-.03.12-.05.12-.05Z"/>
          <path class="cls-5" d="m286.96,218.08h0c-2.74.4-5.63,1.08-8.65,2.13l-1.16-2.54c-.81-4.96-1.79-19.6-.51-34.54,4.18.06,8.86-.85,13.56-2.27-4.05,1-11.44,31.45-3.24,37.22Z"/>
          <path class="cls-5" d="m216.8,183.13c1.28,14.94.3,29.58-.51,34.54l-1.15,2.54h0c-3.02-1.05-5.91-1.73-8.65-2.12h0c8.19-5.78.8-36.23-3.25-37.23-1.01-.25-2.42-.73-3.95-1.3,5.99,2.13,12.16,3.65,17.51,3.57Z"/>
          <path class="cls-4" d="m216.8,183.13c-5.35.08-11.52-1.44-17.51-3.57-.23-.09-.46-.18-.7-.26-4.07-1.57-8.76-3.65-9.55-4.01-.08-.03-.12-.05-.12-.05-9.05-4.25-15.92-8.63-15.92-8.63,1.61-10.14,6.24-18.61,16.29-21.75,18.98-5.93,25.65,16.49,27.51,38.27Z"/>
          <path class="cls-3" d="m203.24,180.86c4.05,1,11.44,31.45,3.25,37.22h0c-6.76-.96-12.67-.15-17.57,1.39,0,0-12.37-25.85,0-44.23,0,0,.04.02.12.05,3,1.41,6.24,2.8,9.55,4.01.24.08.47.17.7.26,1.53.57,2.94,1.05,3.95,1.3Z"/>
          <path class="cls-5" d="m188.92,175.24c-12.37,18.38,0,44.23,0,44.23-2.61.81-4.93,1.83-6.93,2.89l-1.7-3.5s-10.82-30.11-7.29-52.25c0,0,6.87,4.38,15.92,8.63Z"/>
        </g>
        <g>
          <path class="cls-1" d="m325.29,309.93c22.82-20.04,38.37-44.08,40-50.07,3-11,13-63,13-93s-16-111-138-107c0,0-108,15-119,44s9,127,25,150c12.69,18.25,39.55,58.52,77.94,76.38,10,4.66,20.79,7.79,32.31,8.62,25.41,1.82,49.63-12.15,68.75-28.93Z"/>
          <path class="cls-1" d="m201.5,389.95s-80-8.1-114-35.1"/>
          <path class="cls-1" d="m224.23,330.24s-41.94,81.62-34.94,183.62c0,0,111.22,25,204.11,0,0,0-1.04-20.37-5.71-49.12-7.56-46.59-24.68-115.2-62.4-154.81"/>
          <path class="cls-1" d="m387.69,464.74c73.41-9.12,108.6-67.88,82.6-85.88s-36-69-24-78,18-24,19-26c.25-.5.25-.88.11-1.16t-.01-.01c-.43-.83-2.1-.83-2.1-.83-15-6-19.82-32-19.82-32h-4.18l4.18-13.78,5.82,13.78h-5.82"/>
          <path class="cls-1" d="m465.29,274.86s.04-.41.1-1.16h0c.4-4.59,1.76-21.53.9-31.84h6.09l-7.09-18.83-6,18.83h7"/>
          <polygon class="cls-1" points="486.79 242.86 491.29 242.86 486.29 228.86 481.09 242.71 486.79 242.86"/>
          <path class="cls-1" d="m465.39,273.7h.01c.41,0,20.89-.16,20.89-30.84h.5"/>
          <path class="cls-2" d="m247.72,284s21.7,2.08,40-5c10.24-3.96,18.55-13.08,23.5-21.5"/>
          <path class="cls-2" d="m173,228.86s3.2-3.44,8.99-6.5c2-1.06,4.32-2.08,6.93-2.89,4.9-1.54,10.81-2.35,17.57-1.38,2.74.39,5.63,1.07,8.65,2.13,2.14.74,4.35,1.67,6.62,2.81"/>
          <path class="cls-2" d="m181.99,222.36l-1.7-3.5s-10.82-30.11-7.29-52.25c1.61-10.14,6.24-18.61,16.29-21.75,18.98-5.93,25.65,16.49,27.51,38.27,1.28,14.94.3,29.58-.51,34.54l-1.15,2.54"/>
          <path class="cls-2" d="m199.29,179.56c5.99,2.13,12.16,3.65,17.51,3.57"/>
          <path class="cls-2" d="m189.04,175.29c3,1.41,6.24,2.8,9.55,4.01"/>
          <path class="cls-2" d="m173,166.61s6.87,4.38,15.92,8.63"/>
          <path class="cls-2" d="m188.92,219.47s-12.37-25.85,0-44.23c0,0,.04.02.12.05.79.36,5.48,2.44,9.55,4.01.24.08.47.17.7.26,1.53.57,2.94,1.05,3.95,1.3,4.05,1,11.44,31.45,3.25,37.22"/>
          <path class="cls-2" d="m177.79,132.36s15.27,9.77,26.26,13.19c10.98,3.43,21.1,6.78,21.1,6.78"/>
          <path class="cls-2" d="m320.45,228.86s-3.2-3.44-8.99-6.5c-2-1.06-4.32-2.08-6.93-2.89-4.9-1.54-10.81-2.35-17.57-1.38-2.74.39-5.63,1.07-8.65,2.12-2.14.75-4.36,1.68-6.63,2.82"/>
          <path class="cls-2" d="m311.46,222.36l1.69-3.5s10.82-30.11,7.29-52.25c-1.61-10.14-6.24-18.61-16.29-21.75-18.98-5.93-25.65,16.49-27.51,38.27-1.28,14.94-.3,29.58.51,34.54l1.16,2.54"/>
          <path class="cls-2" d="m293.95,179.63c-1.25.44-2.5.85-3.75,1.23-4.7,1.42-9.38,2.33-13.56,2.27"/>
          <path class="cls-2" d="m303.84,175.55c-3.01,1.4-6.25,2.77-9.54,3.95"/>
          <path class="cls-2" d="m304.41,175.29c-.11.05-.22.11-.33.15"/>
          <path class="cls-2" d="m320.45,166.61h0c-.32.21-7.07,4.48-15.91,8.63"/>
          <path class="cls-2" d="m304.53,219.47s12.37-25.85,0-44.23c0,0-.04.02-.12.05-.07.04-.19.09-.33.15-.07.03-.15.07-.24.11-1.65.72-5.93,2.59-9.54,3.95-.12.04-.24.09-.35.13-1.45.54-2.78.99-3.75,1.23-4.05,1-11.44,31.45-3.24,37.22"/>
          <path class="cls-2" d="m315.65,132.36s-15.27,9.77-26.25,13.19c-10.99,3.43-21.11,6.78-21.11,6.78"/>
        </g>
      </g>
      <g>
        <path class="cls-3" d="m180.47,92.86s-6.5,19.75-29.25,22.88c0,0-75.87-69.88-62.31-111.88,0,0,42.56,81,91.56,89Z"/>
        <path class="cls-1" d="m180.47,92.86s-6.5,19.75-29.25,22.88c0,0-75.87-69.88-62.31-111.88,0,0,42.56,81,91.56,89Z"/>
      </g>
      <g>
        <path class="cls-3" d="m298.29,92.86s6.5,19.75,29.25,22.88c0,0,75.87-69.88,62.31-111.88,0,0-42.56,81-91.56,89Z"/>
        <path class="cls-1" d="m298.29,92.86s6.5,19.75,29.25,22.88c0,0,75.87-69.88,62.31-111.88,0,0-42.56,81-91.56,89Z"/>
      </g>
    </g>
  </g>
</svg>