<?xml version="1.0" encoding="UTF-8"?>
<svg id="Layer_2" data-name="Layer 2" xmlns="http://www.w3.org/2000/svg" viewBox="0 0 315.75 389.82">
  <defs>
    <style>
      .cls-1 {
        fill: none;
        stroke: #000;
        stroke-miterlimit: 10;
        stroke-width: 3px;
      }

      .cls-2, .cls-3, .cls-4 {
        stroke-width: 0px;
      }

      .cls-3 {
        fill: #dee7af;
      }

      .cls-4 {
        fill: #fff;
      }
    </style>
  </defs>
  <g id="Layer_2-2" data-name="Layer 2">
    <g>
      <g>
        <path class="cls-2" d="m311.37,21.74c13.17,3.67-22.97,92.43-23.39,119.85,0,0-15.43-17.64-15.43-31.67,0-10.78,2.95-28.8,4.31-36.59,2.37-4.51.69-3.77.69-3.77,0,0-.27,1.41-.69,3.77-1.27,2.44-3.74,6.42-8.31,12.9-13,18.42-27.46,16.49-27.46,16.49,12.55-19.49-1.54-41.05-1.54-41.05,0,0,5-15.79-3,7.02-8,22.81-31.27,30.71-31.27,30.71,8.73-12.27-3.32-33.34-3.32-33.34-11.6.88-15.41,28.08-15.41,28.08-6,0-21.13-28.08-21.13-28.08-4.13,2.63-8.12,24.75-8.12,24.75l-15.75-24.75c-1,5.26-21,28.95-21,27.2s-20-24.57-20-24.57c-7,1.75-6,32.46-6,32.46-16-7.9-28-26.32-28-26.32-6.4,4.01-3.61,32.92-3.08,37.88-1.04-1.17-2.86-3.11-5.92-6.29-11-11.41-12-35.97-12-35.97,0,0-15.92,61.59-24,78.57,3-15-30-87.34-17-108.4,0,0,18-30.71,140-37.73,122-7.02,152.63,14.92,166.82,18.86Z"/>
        <path class="cls-3" d="m183.53,176.65c-15.4-1-26.23-.09-26.23-.09,0,0-15.82.89-36.25,2.97-9.54.97-20.09,2.21-30.5,3.74-7.7,1.13-15.34,2.42-22.43,3.89-8.59,1.77-16.38,3.81-22.57,6.11-7.73,2.88-13.28,2.59-17.21.32-12.87-7.41-8.51-36.02-6.79-44.59,8.08-16.98,24-78.57,24-78.57,0,0,1,24.57,12,35.97,3.06,3.18,4.88,5.12,5.92,6.29.05.47.08.73.08.73,0,0,2.6,2.28-.08-.73-.53-4.96-3.32-33.87,3.08-37.88,0,0,12,18.42,28,26.32,0,0-1-30.71,6-32.46,0,0,20,22.81,20,24.57s20-21.93,21-27.2l15.75,24.75s3.99-22.12,8.12-24.75c0,0,15.13,28.08,21.13,28.08,0,0,3.81-27.2,15.41-28.08,0,0,12.05,21.07,3.32,33.34,0,0,23.27-7.9,31.27-30.71,8-22.81,3-7.02,3-7.02,0,0,14.09,21.57,1.54,41.05,0,0,14.46,1.94,27.46-16.49,4.57-6.47,7.04-10.46,8.31-12.9-1.36,7.78-4.31,25.8-4.31,36.59,0,14.04,15.43,31.67,15.43,31.67-.04,2.11.14,3.86.57,5.18,6,18.42,7.49,46.94-3.26,49.79,0,0-13.62,4.26-46.65-7.89-1.33-.48-2.7-1-4.09-1.54-6.26-2.44-12.68-4.35-19.01-5.83-11.43-2.7-22.58-4.03-32.01-4.64Z"/>
        <path class="cls-3" d="m78.82,239.76c8.69-1.56,22.79-3.28,35.23-1.13h0c4.05-4.03,6.3-10.95,7.46-18.67,2.73-18.03-.46-40.43-.46-40.43,20.43-2.09,36.25-2.97,36.25-2.97,0,0,10.83-.91,26.23.09-.19,1.07-3.5,19.01.91,39.27,1.74,8.01,4.69,16.37,9.5,24.21,9.39-1.11,23.7-2.04,33.27.89l.38-.89c14.71-16.57,11.65-46.61,11.05-51.46,33.03,12.14,46.65,7.89,46.65,7.89,0,0-12.15,53.4-31.74,103.75-4.32,11.1-8.93,22.06-14.32,32.26-4.74,8.98-10.08,17.39-16.36,24.81-17.02,20.13-40.92,33.04-78.32,30.66-30.91-1.97-51.37-13.73-65.73-30.36-6.48-7.51-11.71-16-16.1-25.04-6.47-13.32-11.1-27.79-15.17-41.99-13.52-47.12-18.65-91.91-19.21-97.06,3.93,2.26,9.48,2.55,17.21-.32,6.19-2.3,13.98-4.33,22.57-6.11,0,0-8.02,35.94,10.7,52.61Zm113.76,81.14c2.89-.64,4.38-3.85,3.01-6.48-1.7-3.28-4.44-7.7-8.51-11.98-7.04-7.41-18.05-14.42-34.53-14.42-1.96,0-3.86.1-5.7.29-9.5.96-17.52,4.25-24.07,8.35-4.23,2.66-7.85,5.65-10.87,8.58-1.29,1.25-2.48,2.5-3.55,3.7-1.69,1.9-3.1,3.68-4.24,5.23-1.93,2.61-.56,6.31,2.6,7.08,36.55,8.91,72.62,2.61,85.86-.35Z"/>
        <path class="cls-4" d="m273.87,325.84c7.74,1.66,12.58,39.96-5.34,45.82,0,0-8.47-17.14-45.19-13.98l-.47-.31c6.28-7.42,11.62-15.83,16.36-24.81l.21.08s11.71,2.51,20.94,0,5.74-8.46,13.49-6.8Z"/>
        <path class="cls-4" d="m238.64,188.67c.6,4.84,3.66,34.88-11.05,51.46l-.38.89c-9.57-2.92-23.88-2-33.27-.89-4.81-7.83-7.76-16.2-9.5-24.21,0,0,31.09,5.16,31.1-34.63,6.33,1.48,12.75,3.4,19.01,5.83,1.39.54,2.76,1.06,4.09,1.54Z"/>
        <path class="cls-2" d="m195.59,314.42c1.37,2.63-.12,5.84-3.01,6.48-13.24,2.96-49.31,9.26-85.86.35-3.16-.77-4.53-4.47-2.6-7.08,1.14-1.55,2.55-3.33,4.24-5.23l.19.13s16.33,1.45,15.62-5.85c-.4-4.11-.54-5.24-.59-5.51.46.67,6.81,9.69,14.74,9.22,8.23-.49,8.53-18.63,8.53-18.63,0,0,3.11,19.19,11.47,18.63,7.72-.53,8.78-3.54,12.23-9.26,0,0,0,7.99,6,9.26,6,1.26,10.53-4.5,10.53-4.5,4.07,4.28,6.81,8.7,8.51,11.98Z"/>
        <path class="cls-2" d="m215.54,181.29c0,39.79-31.1,34.63-31.1,34.63-4.41-20.26-1.1-38.2-.91-39.27,9.43.61,20.58,1.94,32.01,4.64Z"/>
        <path class="cls-4" d="m152.55,288.02c16.48,0,27.49,7,34.53,14.42,0,0-4.53,5.76-10.53,4.5-6-1.27-6-9.26-6-9.26-3.45,5.73-4.51,8.74-12.23,9.26-8.36.56-11.47-18.63-11.47-18.63,1.84-.19,3.74-.29,5.7-.29Z"/>
        <path class="cls-4" d="m146.85,288.31s-.3,18.14-8.53,18.63c-7.93.47-14.28-8.55-14.74-9.22,0-.07-.02-.09-.02-.09l-.78-.97c6.55-4.11,14.57-7.4,24.07-8.35Z"/>
        <path class="cls-4" d="m124.17,303.22c.71,7.3-15.62,5.85-15.62,5.85l-.19-.13c1.07-1.2,2.26-2.45,3.55-3.7,3.02-2.93,6.64-5.92,10.87-8.58l.78.97s-.01.04-.01.04c0,0,.01.02.03.04.05.27.19,1.4.59,5.51Z"/>
        <path class="cls-2" d="m121.05,179.53s3.19,22.4.46,40.43h-.01c-37.04-5.76-30.95-36.69-30.95-36.69,10.41-1.53,20.96-2.76,30.5-3.74Z"/>
        <path class="cls-4" d="m121.5,219.96h.01c-1.16,7.72-3.41,14.64-7.46,18.66h0c-12.44-2.14-26.54-.42-35.23,1.14-18.72-16.67-10.7-52.61-10.7-52.61,7.09-1.47,14.73-2.75,22.43-3.89,0,0-6.09,30.93,30.95,36.69Z"/>
        <path class="cls-4" d="m62.72,332.64c4.39,9.04,9.62,17.53,16.1,25.04-36.72-3.17-45.19,13.98-45.19,13.98-17.92-5.85-13.08-44.16-5.34-45.82,7.75-1.66,4.26,4.29,13.49,6.8s20.94,0,20.94,0Z"/>
      </g>
      <g>
        <path class="cls-1" d="m21.55,149c3-15-30-87.34-17-108.4,0,0,18-30.71,140-37.73,122-7.02,152.63,14.92,166.82,18.86,13.17,3.67-22.97,92.43-23.39,119.85-.04,2.11.14,3.86.57,5.18,6,18.42,7.49,46.94-3.26,49.79,0,0-13.62,4.26-46.65-7.89-1.33-.48-2.7-1-4.09-1.54-6.26-2.44-12.68-4.35-19.01-5.83-11.43-2.7-22.58-4.03-32.01-4.64-15.4-1-26.23-.09-26.23-.09,0,0-15.82.89-36.25,2.97-9.54.97-20.09,2.21-30.5,3.74-7.7,1.13-15.34,2.42-22.43,3.89-8.59,1.77-16.38,3.81-22.57,6.11-7.73,2.88-13.28,2.59-17.21.32-12.87-7.41-8.51-36.02-6.79-44.59Z"/>
        <path class="cls-1" d="m276.86,73.33c-1.36,7.78-4.31,25.8-4.31,36.59,0,14.04,15.43,31.67,15.43,31.67"/>
        <path class="cls-1" d="m276.86,73.33c2.37-4.51.69-3.77.69-3.77,0,0-.27,1.41-.69,3.77Z"/>
        <path class="cls-1" d="m63.47,112.7c-.53-4.96-3.32-33.87,3.08-37.88,0,0,12,18.42,28,26.32,0,0-1-30.71,6-32.46,0,0,20,22.81,20,24.57s20-21.93,21-27.2l15.75,24.75s3.99-22.12,8.12-24.75c0,0,15.13,28.08,21.13,28.08,0,0,3.81-27.2,15.41-28.08,0,0,12.05,21.07,3.32,33.34,0,0,23.27-7.9,31.27-30.71,8-22.81,3-7.02,3-7.02,0,0,14.09,21.57,1.54,41.05,0,0,14.46,1.94,27.46-16.49,4.57-6.47,7.04-10.46,8.31-12.9"/>
        <path class="cls-1" d="m63.47,112.7c2.68,3.01.08.73.08.73,0,0-.03-.25-.08-.73Z"/>
        <path class="cls-1" d="m21.55,149c8.08-16.98,24-78.57,24-78.57,0,0,1,24.57,12,35.97,3.06,3.18,4.88,5.12,5.92,6.29"/>
        <path class="cls-1" d="m65.55,152.9s6.28-4.04,15.9-9.59c3.76-2.17,8.04-4.56,12.66-7.05,6.49-3.48,13.65-7.12,20.99-10.48,5.21-2.4,10.51-4.64,15.72-6.6,5.52-2.07,10.95-3.82,16.06-5.05,5-1.21,9.71-1.93,13.92-1.99,0,0,.11,0,.3.03,1.86.18,11.83.91,15.45-2.26"/>
        <path class="cls-1" d="m78.82,131.41s.71,6.07,2.63,11.91c1.3,3.97,3.15,7.82,5.73,9.59"/>
        <path class="cls-1" d="m90.55,123.07s1.49,6.85,3.56,13.2c1.32,4.06,2.88,7.91,4.44,9.62"/>
        <path class="cls-1" d="m109.55,113.42s3.01,6.16,5.55,12.37c1.85,4.54,3.45,9.1,3.45,11.32"/>
        <path class="cls-1" d="m128.55,105.53s1.02,7.45,2.27,13.67c.89,4.45,1.9,8.26,2.73,8.26"/>
        <polyline class="cls-1" points="144.46 102.71 146.88 114.14 149.23 125.27"/>
        <path class="cls-1" d="m162.96,99.39s-1.37,6.55-1.86,12.79c-.41,5.16-.22,10.1,1.86,10.9"/>
        <path class="cls-1" d="m28.29,193.1s.02.17.05.49c.56,5.15,5.69,49.94,19.21,97.06,4.07,14.2,8.7,28.67,15.17,41.99,4.39,9.04,9.62,17.53,16.1,25.04,14.36,16.63,34.82,28.39,65.73,30.36,37.4,2.38,61.3-10.54,78.32-30.66,6.28-7.42,11.62-15.83,16.36-24.81,5.39-10.2,10-21.16,14.32-32.26,19.59-50.35,31.74-103.75,31.74-103.75"/>
        <path class="cls-1" d="m70.55,241.52s3.22-.85,8.27-1.75c8.69-1.56,22.79-3.28,35.23-1.13,3.57.61,6.99,1.54,10.12,2.89"/>
        <path class="cls-1" d="m68.12,187.16s-8.02,35.94,10.7,52.61"/>
        <path class="cls-1" d="m121.05,179.53s3.19,22.4.46,40.43c-1.16,7.72-3.41,14.64-7.46,18.66"/>
        <path class="cls-1" d="m90.55,183.27s-6.09,30.93,30.95,36.69"/>
        <path class="cls-1" d="m184.44,241.52s3.86-.73,9.5-1.4c9.39-1.11,23.7-2.04,33.27.89,2.49.77,4.66,1.79,6.34,3.14"/>
        <path class="cls-1" d="m183.55,176.59s0,.02-.02.05c-.19,1.07-3.5,19.01.91,39.27,1.74,8.01,4.69,16.37,9.5,24.21"/>
        <path class="cls-1" d="m238.55,188s.03.23.09.67c.6,4.84,3.66,34.88-11.05,51.46"/>
        <path class="cls-1" d="m184.44,215.92s31.09,5.16,31.1-34.63"/>
        <path class="cls-1" d="m187.08,302.43c4.07,4.28,6.81,8.7,8.51,11.98,1.37,2.63-.12,5.84-3.01,6.48-13.24,2.96-49.31,9.26-85.86.35-3.16-.77-4.53-4.47-2.6-7.08,1.14-1.55,2.55-3.33,4.24-5.23,1.07-1.2,2.26-2.45,3.55-3.7,3.02-2.93,6.64-5.92,10.87-8.58,6.55-4.11,14.57-7.4,24.07-8.35,1.84-.19,3.74-.29,5.7-.29,16.48,0,27.49,7,34.53,14.42Z"/>
        <path class="cls-1" d="m108.55,309.08s16.33,1.45,15.62-5.85c-.4-4.11-.54-5.24-.59-5.51,0-.07-.02-.09-.02-.09-.01,0-.01.04-.01.04,0,0,.01.02.03.04.46.67,6.81,9.69,14.74,9.22,8.23-.49,8.53-18.63,8.53-18.63,0,0,3.11,19.19,11.47,18.63,7.72-.53,8.78-3.54,12.23-9.26,0,0,0,7.99,6,9.26,6,1.26,10.53-4.5,10.53-4.5"/>
        <path class="cls-1" d="m62.72,332.64s-11.71,2.51-20.94,0-5.74-8.46-13.49-6.8c-7.74,1.66-12.58,39.96,5.34,45.82,0,0,8.47-17.14,45.19-13.98"/>
        <path class="cls-1" d="m239.44,332.64s11.71,2.51,20.94,0,5.74-8.46,13.49-6.8c7.74,1.66,12.58,39.96-5.34,45.82,0,0-8.47-17.14-45.19-13.98"/>
      </g>
    </g>
  </g>
</svg>