<?xml version="1.0" encoding="UTF-8"?>
<svg id="Layer_2" data-name="Layer 2" xmlns="http://www.w3.org/2000/svg" viewBox="0 0 370.24 497.83">
  <defs>
    <style>
      .cls-1 {
        fill: none;
        stroke: #000;
        stroke-width: 3px;
      }

      .cls-1, .cls-2 {
        stroke-miterlimit: 10;
      }

      .cls-2 {
        font-family: Arial-Black, 'Arial Black';
        font-size: 48px;
        font-weight: 800;
        stroke: #fff;
      }

      .cls-2, .cls-3 {
        fill: #fff;
      }

      .cls-4, .cls-3 {
        stroke-width: 0px;
      }
    </style>
  </defs>
  <g id="Layer_2-2" data-name="Layer 2">
    <g>
      <g>
        <g>
          <path class="cls-3" d="m321.01,221.53c11.68,108.44,26.84,139.56,46.58,147.06,0,0-38.32,39.96-69.06,36.54-30.75-3.42-30.75-17.08-47.83-15.37-17.08,1.71-32.46,22.21-52.96,22.21s-35.87-20.5-61.5-20.5-54.8,14.04-91.46-22.87c0,0,56.44-30.94,64.98-152.22,8.54-121.29,37.94-144.88,98.39-141.63,60.47,3.26,101.16,38.35,112.85,146.79Zm-42.13-45.3c0-8.97-7.26-16.23-16.23-16.23s-16.23,7.26-16.23,16.23,7.26,16.23,16.23,16.23,16.23-7.26,16.23-16.23Zm-37.58,45.27c0-12.27-7.26-22.21-16.23-22.21s-16.23,9.94-16.23,22.21,7.26,22.21,16.23,22.21,16.23-9.94,16.23-22.21Zm-42.71-45.27c0-8.97-7.26-16.23-16.23-16.23s-16.23,7.26-16.23,16.23,7.26,16.23,16.23,16.23,16.23-7.26,16.23-16.23Z"/>
          <circle class="cls-4" cx="262.65" cy="176.23" r="16.23"/>
          <ellipse class="cls-4" cx="225.07" cy="221.5" rx="16.23" ry="22.21"/>
          <circle class="cls-4" cx="182.37" cy="176.23" r="16.23"/>
        </g>
        <path class="cls-1" d="m44.78,368.59s56.44-30.94,64.98-152.22c8.54-121.29,37.94-144.88,98.39-141.63,60.47,3.26,101.16,38.35,112.85,146.79,11.68,108.44,26.84,139.56,46.58,147.06,0,0-38.32,39.96-69.06,36.54-30.75-3.42-30.75-17.08-47.83-15.37-17.08,1.71-32.46,22.21-52.96,22.21s-35.87-20.5-61.5-20.5-54.8,14.04-91.46-22.87Z"/>
      </g>
      <text class="cls-2" transform="translate(90.44 482.61)"><tspan x="0" y="0">customer</tspan></text>
      <text/>
    </g>
  </g>
</svg>