<?xml version="1.0" encoding="UTF-8"?>
<svg id="Layer_2" data-name="Layer 2" xmlns="http://www.w3.org/2000/svg" xmlns:xlink="http://www.w3.org/1999/xlink" viewBox="0 0 1771.08 456.04">
  <defs>
    <style>
      .cls-1 {
        fill: none;
        stroke: #000;
        stroke-miterlimit: 10;
        stroke-width: 3px;
      }

      .cls-2 {
        fill: url(#linear-gradient);
      }

      .cls-2, .cls-3, .cls-4, .cls-5, .cls-6, .cls-7, .cls-8, .cls-9, .cls-10, .cls-11, .cls-12, .cls-13, .cls-14, .cls-15, .cls-16, .cls-17, .cls-18, .cls-19, .cls-20, .cls-21, .cls-22, .cls-23, .cls-24, .cls-25, .cls-26, .cls-27, .cls-28, .cls-29, .cls-30, .cls-31, .cls-32, .cls-33, .cls-34, .cls-35, .cls-36, .cls-37, .cls-38 {
        stroke-width: 0px;
      }

      .cls-3 {
        fill: url(#linear-gradient-11);
      }

      .cls-4 {
        fill: url(#linear-gradient-12);
      }

      .cls-5 {
        fill: url(#linear-gradient-13);
      }

      .cls-6 {
        fill: url(#linear-gradient-10);
      }

      .cls-7 {
        fill: url(#linear-gradient-17);
      }

      .cls-8 {
        fill: url(#linear-gradient-16);
      }

      .cls-9 {
        fill: url(#linear-gradient-19);
      }

      .cls-10 {
        fill: url(#linear-gradient-15);
      }

      .cls-11 {
        fill: url(#linear-gradient-23);
      }

      .cls-12 {
        fill: url(#linear-gradient-21);
      }

      .cls-13 {
        fill: url(#linear-gradient-18);
      }

      .cls-14 {
        fill: url(#linear-gradient-14);
      }

      .cls-15 {
        fill: url(#linear-gradient-22);
      }

      .cls-16 {
        fill: url(#linear-gradient-20);
      }

      .cls-17 {
        fill: url(#linear-gradient-24);
      }

      .cls-18 {
        fill: url(#linear-gradient-4);
      }

      .cls-19 {
        fill: url(#linear-gradient-2);
      }

      .cls-20 {
        fill: url(#linear-gradient-3);
      }

      .cls-21 {
        fill: url(#linear-gradient-8);
      }

      .cls-22 {
        fill: url(#linear-gradient-9);
      }

      .cls-23 {
        fill: url(#linear-gradient-7);
      }

      .cls-24 {
        fill: url(#linear-gradient-5);
      }

      .cls-25 {
        fill: url(#linear-gradient-6);
      }

      .cls-27 {
        fill: #f6e553;
      }

      .cls-28 {
        fill: #9b9b9c;
      }

      .cls-29 {
        fill: #838181;
      }

      .cls-30 {
        fill: #1c1512;
      }

      .cls-31 {
        fill: #080707;
      }

      .cls-32 {
        fill: #cfcac5;
      }

      .cls-33 {
        fill: #c8814c;
      }

      .cls-34 {
        fill: #dbdbdc;
      }

      .cls-35 {
        fill: #b9b9b9;
      }

      .cls-36 {
        fill: #935f1b;
      }

      .cls-37 {
        fill: #e49557;
      }

      .cls-38 {
        fill: #fcfbfb;
      }
    </style>
    <linearGradient id="linear-gradient" x1="1396.22" y1="299.91" x2="1545.41" y2="299.91" gradientUnits="userSpaceOnUse">
      <stop offset=".12" stop-color="#fcae76"/>
      <stop offset=".45" stop-color="#e37007"/>
      <stop offset=".88" stop-color="#c25212"/>
    </linearGradient>
    <linearGradient id="linear-gradient-2" x1="1378.56" y1="316.26" x2="1487.38" y2="316.26" xlink:href="#linear-gradient"/>
    <linearGradient id="linear-gradient-3" x1="1307.19" y1="322.02" x2="1413.56" y2="322.02" xlink:href="#linear-gradient"/>
    <linearGradient id="linear-gradient-4" x1="1378.53" y1="198.57" x2="1378.56" y2="198.57" xlink:href="#linear-gradient"/>
    <linearGradient id="linear-gradient-5" x1="1241.56" y1="314.79" x2="1351.24" y2="314.79" xlink:href="#linear-gradient"/>
    <linearGradient id="linear-gradient-6" x1="1187.51" y1="300.42" x2="1341.32" y2="300.42" xlink:href="#linear-gradient"/>
    <linearGradient id="linear-gradient-7" x1="1653.98" y1="339.54" x2="1769.45" y2="338.12" xlink:href="#linear-gradient"/>
    <linearGradient id="linear-gradient-8" x1="1640.48" y1="352.36" x2="1724.69" y2="351.33" xlink:href="#linear-gradient"/>
    <linearGradient id="linear-gradient-9" x1="1585.3" y1="357.5" x2="1667.62" y2="356.49" xlink:href="#linear-gradient"/>
    <linearGradient id="linear-gradient-10" x1="1639.33" y1="261.28" x2="1639.36" y2="261.28" xlink:href="#linear-gradient"/>
    <linearGradient id="linear-gradient-11" x1="1534.44" y1="352.53" x2="1619.32" y2="351.49" xlink:href="#linear-gradient"/>
    <linearGradient id="linear-gradient-12" x1="1492.48" y1="341.92" x2="1611.5" y2="340.46" xlink:href="#linear-gradient"/>
    <linearGradient id="linear-gradient-13" x1="374.87" y1="298.07" x2="225.67" y2="298.07" xlink:href="#linear-gradient"/>
    <linearGradient id="linear-gradient-14" x1="392.52" y1="314.43" x2="283.71" y2="314.43" xlink:href="#linear-gradient"/>
    <linearGradient id="linear-gradient-15" x1="463.9" y1="320.19" x2="357.53" y2="320.19" xlink:href="#linear-gradient"/>
    <linearGradient id="linear-gradient-16" x1="392.56" y1="196.73" x2="392.52" y2="196.73" xlink:href="#linear-gradient"/>
    <linearGradient id="linear-gradient-17" x1="529.53" y1="312.96" x2="419.85" y2="312.96" xlink:href="#linear-gradient"/>
    <linearGradient id="linear-gradient-18" x1="583.57" y1="298.59" x2="429.77" y2="298.59" xlink:href="#linear-gradient"/>
    <linearGradient id="linear-gradient-19" x1="117.1" y1="337.71" x2="1.63" y2="336.29" xlink:href="#linear-gradient"/>
    <linearGradient id="linear-gradient-20" x1="130.6" y1="350.53" x2="46.39" y2="349.5" xlink:href="#linear-gradient"/>
    <linearGradient id="linear-gradient-21" x1="185.78" y1="355.67" x2="103.46" y2="354.66" xlink:href="#linear-gradient"/>
    <linearGradient id="linear-gradient-22" x1="131.74" y1="259.45" x2="131.72" y2="259.45" xlink:href="#linear-gradient"/>
    <linearGradient id="linear-gradient-23" x1="236.64" y1="350.7" x2="151.77" y2="349.65" xlink:href="#linear-gradient"/>
    <linearGradient id="linear-gradient-24" x1="278.6" y1="340.08" x2="159.57" y2="338.62" xlink:href="#linear-gradient"/>
  </defs>
  <g id="Layer_2-2" data-name="Layer 2">
    <g>
      <g>
        <g>
          <g>
            <g>
              <path class="cls-2" d="m1536.06,265.89c38.61,100.08-54.13,154.5-65.81,147.52,17.4-33.12,17.05-64.71,17.13-87.38.07-24.72-21.48-104.53-45.82-121.72-24.92-17.58-44.23-14.52-45.34-14.33,2.22-.69,99.06-29.81,139.85,75.91Z"/>
              <path class="cls-19" d="m1470.25,413.41c-1.75,3.32-3.67,6.66-5.79,10-24.24,38.25-68.29,8.29-68.29,8.29,6.42-7.42,11.74-18.26,13.88-34.07,7.16-52.98,2.15-134.21-4.3-154.65-7.06-22.38-26.26-43.76-27.19-44.42,2.92-4.28,17.61-8.56,17.61-8.56,0,0,.01,0,.04-.01,1.1-.19,20.42-3.25,45.34,14.33,24.34,17.18,45.89,97,45.82,121.72-.07,22.67.27,54.26-17.13,87.38Z"/>
              <path class="cls-20" d="m1405.75,242.98c6.44,20.45,11.46,101.67,4.3,154.65-2.13,15.81-7.46,26.65-13.88,34.07-15.09,17.46-36.24,16.05-36.24,16.05,0,0-16.53,2.75-30.77-9.84-8.74-7.7-16.63-21.18-19.35-44.58-7.16-61.58,1.56-129.21,11.46-156.09,10.02-27.21,29.97-38.66,29.97-38.66,13.9-5.61,26.76-.23,27.29-.01h.01s.01,0,.01-.01c.93.66,20.13,22.04,27.19,44.42Z"/>
              <path class="cls-36" d="m1396.17,190s-14.69,4.28-17.61,8.56c-.03-.03-.04-.01-.03.01-.53-.21-13.39-5.6-27.29.01,0,0-1.33-5.73-9.92-8.59,0,0,25.78-22.91,24.34-34.37-1.43-11.46-15.69-14.41-12.14-35.13s12.2-22.17,12.2-22.17c0,0-4.35,20.06-4.35,24.36s7.16,8.59,17.18,15.75,5.73,27.21,5.73,32.94,2.31,17.18,11.9,18.62Z"/>
              <path class="cls-18" d="m1378.56,198.56s-.01.01-.01.03h-.01s0-.06.03-.03Z"/>
              <path class="cls-24" d="m1259.66,413.4c-11.54-18.19-27.22-58.34-11.43-136.05,17.18-84.49,93.08-87.35,93.08-87.35,8.59,2.86,9.92,8.59,9.92,8.59,0,0-19.95,11.46-29.97,38.66-9.89,26.88-18.62,94.51-11.46,156.09,2.72,23.4,10.61,36.87,19.35,44.58-29.36,5.9-55.15-4.48-66.6-20.23-.86-1.17-1.76-2.49-2.69-3.95-.07-.1-.14-.21-.2-.33Z"/>
              <path class="cls-25" d="m1199.55,254.43c41.53-90.21,141.77-64.44,141.77-64.44,0,0-75.89,2.86-93.08,87.35-15.79,77.71-.11,117.87,11.43,136.05-24.37,9.95-101.63-68.78-60.11-158.96Z"/>
            </g>
            <g>
              <path class="cls-1" d="m1378.53,198.57c-.53-.21-13.39-5.6-27.29.01,0,0-1.33-5.73-9.92-8.59,0,0,25.78-22.91,24.34-34.37-1.43-11.46-15.69-14.41-12.14-35.13s12.2-22.17,12.2-22.17c0,0-4.35,20.06-4.35,24.36s7.16,8.59,17.18,15.75,5.73,27.21,5.73,32.94,2.31,17.18,11.9,18.62c0,0-14.69,4.28-17.61,8.56,0,.01-.01.01-.01.03"/>
              <path class="cls-1" d="m1378.55,198.59h-.01s0-.06.03-.03c.93.66,20.13,22.04,27.19,44.42,6.44,20.45,11.46,101.67,4.3,154.65-2.13,15.81-7.46,26.65-13.88,34.07-15.09,17.46-36.24,16.05-36.24,16.05,0,0-16.53,2.75-30.77-9.84-8.74-7.7-16.63-21.18-19.35-44.58-7.16-61.58,1.56-129.21,11.46-156.09,10.02-27.21,29.97-38.66,29.97-38.66"/>
              <path class="cls-1" d="m1329.16,437.91c-29.36,5.9-55.15-4.48-66.6-20.23-.86-1.17-1.76-2.49-2.69-3.95-.07-.1-.14-.21-.2-.33-11.54-18.19-27.22-58.34-11.43-136.05,17.18-84.49,93.08-87.35,93.08-87.35,0,0-100.24-25.78-141.77,64.44-41.51,90.19,35.74,168.92,60.11,158.96.01,0,.01-.01.03-.01"/>
              <path class="cls-1" d="m1396.17,190s.01,0,.04-.01c2.22-.69,99.06-29.81,139.85,75.91,38.61,100.08-54.13,154.5-65.81,147.52-.03-.01-.04-.01-.06-.03"/>
              <path class="cls-1" d="m1396.17,431.7s44.05,29.96,68.29-8.29c2.12-3.34,4.04-6.67,5.79-10,17.4-33.12,17.05-64.71,17.13-87.38.07-24.72-21.48-104.53-45.82-121.72-24.92-17.58-44.23-14.52-45.34-14.33"/>
            </g>
          </g>
          <g>
            <path class="cls-26" d="m1402.17,273.77s41.53,7.16,57.28-31.5c0,0-6.44,88.07-57.28,31.5Z"/>
            <path class="cls-26" d="m1320.55,273.77s-41.53,7.16-57.28-31.5c0,0,6.44,88.07,57.28,31.5Z"/>
            <path class="cls-26" d="m1358.5,293.1s-10.02,18.62-14.32,25.78c-2.93,4.89,19.04,3.23,26.82,1.99,1.63-.26,3.25-.56,1.84-3.5-3.22-6.71-12.86-22.31-14.34-24.26Z"/>
            <path class="cls-26" d="m1259.69,333.19s15.75,45.82,55.85,65.87c0,0,12.89-11.46,17.18-15.75l15.75,21.48,14.32-20.05,15.75,17.18s12.89-18.62,12.89-21.48,14.32,17.18,14.32,17.18c0,0,39.45-16.32,55.53-75.46l-22.59,22.48-19.56-22.48s-6.22,26.78-11.95,28.21l-21.48-17.18-18.62,24.34s-23.45-17.32-23.18-20.11l-18.35,18.68-22.91-25.78-15.75,21.48s-25.78-11.46-27.21-18.62Z"/>
          </g>
        </g>
        <g>
          <path class="cls-31" d="m1435.71,190.34l31.69,43.42c-51.18,12.31-116.45,1.61-161.06-26.55-12.93-8.58-38.17-26.01-44.06-40.23-4.01-9.69-.83-18.41,8.24-23.49,15.33-8.58,45.49-5.05,62.89-4.25,2.82,1.6-9.18,1-13.13,5.3-10.79,11.75,13.55,25.6,22.03,29.8,24.59,12.18,66.2,21.62,93.41,16.01Z"/>
          <path class="cls-26" d="m1483.1,182.87c7.63,2.2,34.57,14.68,37.01,22.58-7.48,16.01-36.8,24.48-52.71,28.3l-31.69-43.42c14.83-6.65,31.3-12.11,47.39-7.47Z"/>
          <path class="cls-31" d="m1471.33,163.41c-1.44,3.53,11.73,5.84,15.31,7.32,10.31,4.26,29.19,12.82,33.64,23.66,1.69,4.11,1.71,7.07-.16,11.06-2.45-7.91-29.38-20.39-37.01-22.58-1.67-2.29-7.34-.81-2.03-3.19-1.05-3.48-17.4-13.26-17.76-14.35-.24-.73.85-3.84,3.74-3.07,1.41.43,2.89.73,4.28,1.16Z"/>
          <path class="cls-29" d="m1455.24,14.57l-.72-.13c-1.59-2.32-3.42-4.51-4.9-6.92l-8.05,7.17c-3.75-1.5-19.02-5.37-20.53-6.4-4.41-3.01,6.9-2.64,14.21-3.03,4.25-.23,8.49-.66,12.73-1.05,3.61,3.79,6.16,8.89,7.27,10.36Z"/>
          <path class="cls-30" d="m1458.72,15.97l-2.68-2.75-.58.08c.82.84.81,1.69,1.08,2.27-.54-.04-1.03-.61-1.31-.99-1.11-1.47-3.65-6.57-7.27-10.36-4.24.39-8.47.82-12.73,1.05-2.71-1.05-8.32.69-4.14-1.89,5.4-.45,10.84-.47,16.18-1.54,1.25.33,9.81,12.15,11.44,14.13Z"/>
          <g>
            <path class="cls-31" d="m1435.25,5.26c-7.32.39-18.62.02-14.21,3.03,1.51,1.03,16.77,4.89,20.53,6.4l8.05-7.17c1.48,2.41,3.31,4.59,4.9,6.92,1.94,2.83,10.38,16.83,12.65,17.74,4.84,1.94-8.36-11.78-10.61-16.61-.27-.58-.26-1.43-1.08-2.27l.58-.08,2.68,2.75c4.85,5.9,10.47,11.62,14.03,18.37q-9.03-.72-18.07-1.44-7.38-5.68-14.75-11.36c-13.51,3.05-9.12,1.73-5.59,17.21,2.02,8.88,4.38,23.57,6.08,30.07,1.8,6.88,8.54,23.21,8.6,24.51.08,1.92-1.94,7.78-1.77,11.71,9.76,9.13,5.21,12.04,6.25,16.94.6,2.82,10.47,13.86,3.53,23.58,2.68,17.5-1.86,13.03,10.03,16.69-2.89-.76-3.98,2.34-3.74,3.07.36,1.09,16.7,10.87,17.76,14.35-5.31,2.38.37.9,2.03,3.19-16.09-4.64-32.57.82-47.39,7.47-27.2,5.6-68.82-3.83-93.41-16.01-8.48-4.2-32.82-18.05-22.03-29.8,3.95-4.3,15.95-3.7,13.13-5.3-17.4-.8-47.56-4.33-62.89,4.25-9.07,5.08-12.25,13.81-8.24,23.49,5.89,14.22,31.13,31.66,44.06,40.23,44.62,28.16,109.88,38.85,161.06,26.55,15.91-3.83,45.23-12.3,52.71-28.3,1.86-3.99,1.85-6.95.16-11.06-4.45-10.83-23.33-19.39-33.64-23.66-3.57-1.48-16.75-3.79-15.31-7.32,19.48,6.02,70.83,23.03,48.46,51.94-10.85,14.02-37.39,22.61-54.22,26.33-2.38.4-4.91.49-7.28.92-10.12,1.84-20.23,3.6-30.51,4.18l3.67,1.42c-2.56-.34-5.11-.68-7.67-1.03-37.85-5.22-54.98-8.34-92.3-16.94-3.46-.8-6.9-1.83-10.36-2.65,1.76-1.81,6.83,1.88,7.7.85-8.16-4.43-16.68-9.09-24.72-14.12-1.21-.76-2.52-1.41-3.71-2.19-16.44-10.64-55.58-39.97-41.55-63.09,11.75-19.36,57.43-13.91,76.27-11.95,2.23-3.72,5.24-13.63,8.76-13.06-.07-4.76,4.06-7.31,7.14-10.35,1.68-4.15-6.41-5.99,13.76-26.05-.59-4.89,8.7-14.38,12.17-21.46l-.26-2.68c13.87-19.73,26.01-40.71,41.05-59.58,4.47-.06,8.93-.18,13.38-.55-4.17,2.58,1.43.84,4.14,1.89Z"/>
            <g>
              <path class="cls-31" d="m1418.3,93.52c-1.62,1.21-12.66,8.65-12.6,9.53q17.55,13.47,35.09,26.93c-2.27.51-17.88,3.53-18.38,4.34-.08.13.44,2.11.54,2.17,1.51.96,20.19-3.1,23.19-4.02l.85-3.6c.06,0-.06-.56,1.15-.16-.05,1-.1,1.98-.17,2.98-9.17,4.49-18.34,5.94-28.67,6.39l-.74.99c-1.03-.89-2.13-3.17-3.02-3.94.58-1.57-.55-4.27-1.91-4.86-1.02-.44-12.11-.36-21.98-2.53-3.18-.7-6.38-5.16-12.18,1.15q-9.21-4.89-18.41-9.77l.38-1.06c1.73.26-.92-1.19-1.36-1.75-9.52-12.29,2.2-15.19,5.43-20.43l18.6,5.67c.62-3.7.23-2.9-4.84-7.28-2.85-2.47-9.68-6.25-8.6-10.23,16.22,1.18,32.23,4.31,47.65,9.5Z"/>
              <path class="cls-31" d="m1416.77,34.59c-.4,3.38,2.98,5.68,4.42,8.52q-3.76-.41-7.52-.82c-10.49,5.37-.98,6.55-3.28,16.88,1.02,2.5,10.72,17.39,10.03,18.76-4.48,2.33-9.82,3.93-13.65,7.08-9.47-4.19-17.82-8.7-26.04-15.12,13.34-10.39,22.57-25.19,36.04-35.31Z"/>
              <path class="cls-34" d="m1437.65,69.63c-.37-.1-.82,0-1.05-.38-.64-1.05-4.07-18.67-4.95-21.96-2.16-8.12-8.94-27.49-9.76-32.44-1.85-11.16,2.87,2.94,5.6,10.24q5.08,22.27,10.16,44.54Z"/>
              <path class="cls-38" d="m1365.49,95.86c-3.24,5.25-14.95,8.15-5.43,20.43.44.56,3.09,2.02,1.36,1.75-5.24-3.55-9.38-7.33-6.75-14.21.29-.77,10.18-11.84,10.86-12.29,1.18-.79,1.12,2.43-.04,4.32Z"/>
              <path class="cls-28" d="m1457.28,167.6q1.83,3.81,3.65,7.63l-17.48,4.5c11.7-4.85,6.52-5.14,13.82-12.13Z"/>
              <path class="cls-35" d="m1447.97,131.68c.08-1,.12-1.97.17-2.98.1-2.01.04-16.33-.22-17.15-.3-.93-2.22-1.9-2.92-4.48,7.14,6.47,4.64,7.13,5.23,14.31.27,3.29,1.81,6.63.8,9.92-.18.18-1.89-.2-3.06.38Z"/>
              <path class="cls-34" d="m1452.34,127.22c1.01,2.54,5.29,11.96,3.6,14.01-15.07,1.07-15.11,2.88-1.7-2.94.59-1.72-5.62-1.71-1.9-11.06Z"/>
              <path class="cls-38" d="m1351.27,117.32c.8.03,5.78,5.71,7.24,6.41-3.07-.4-8.02-7.05-9.84-1.43-1.55,4.79,4.19,7.01,6.58,10.04-15.97-5.95-5.04-15.06-3.98-15.02Z"/>
              <path class="cls-38" d="m1370.66,84.03c-1.08,3.97,5.75,7.76,8.6,10.23-14.86-7.79-12.93-8.69-2.29-20.16,2.7-8.06,3.38-5.24-.27,1.46-.91,1.68-5.83,7.7-6.05,8.48Z"/>
              <g>
                <path class="cls-27" d="m1449.09,168.36c-5.62-2.7-22.95-9.85-26.17-12.32-.42-.32-1.52-.55-1.64-1.24-.09-.53.56-2.35.63-3.46,5.76,1.43,25.89-.97,32.39-4.21l1.65,18.54c-2.1,1.34-4.52,1.95-6.85,2.69Z"/>
                <path class="cls-37" d="m1422.92,156.04c3.23,2.48,20.55,9.62,26.17,12.32-10.38,3.3-23.42,3.64-34.33,4.6,1.43-14.42,3-11.35,5.25-13.32,2.37-2.08.11-3.89,2.91-3.6Z"/>
                <g>
                  <path class="cls-37" d="m1336.29,146.91c6.61-.31,9.42-8.7,13.01-13.78,6.84,4.33,14.53,6.75,21.98,9.67,5.39-2.55-1.82,6.83,1.4,11.73-2.93,1.21-2.25,6.47-3.32,9.92-9.99-3.76-25.54-10.28-33.07-17.54Z"/>
                  <path class="cls-27" d="m1349.3,133.13c-3.59,5.08-6.39,13.47-13.01,13.78-.11-.11-2.29-1.1-2.23-2.1l8.57-16.1.64-.45c.39-.04,5.15,4.31,6.03,4.87Z"/>
                </g>
                <path class="cls-33" d="m1421.91,151.34c-.07,1.11-.73,2.92-.63,3.46.12.69,1.23.92,1.64,1.24-2.8-.29-.54,1.53-2.91,3.6.05-.25.21-.63-.05-.76-1.43-.73-5.27,2.43-.86-9.56,1.27,1.19,1,1.57,2.81,2.02Z"/>
              </g>
              <path class="cls-38" d="m1455.24,14.57c.29.38.77.96,1.31.99,2.25,4.83,15.45,18.55,10.61,16.61-2.27-.91-10.7-14.91-12.65-17.74l.72.13Z"/>
              <path class="cls-32" d="m1329.73,152.09l3.86-2.68c5.79,12.45,10.45,14.44-3.86,2.68Z"/>
              <path class="cls-34" d="m1397.72,37.48q-8.74,14-17.49,28c-.2-.42-.04-1.25.12-1.67.85-2.33,14.37-21.85,17.37-26.33Z"/>
              <path class="cls-34" d="m1333.59,149.42l-3.86,2.68c-2.24-.78.91-2.94,2.99-5.09.78,1.07.81,2.3.87,2.41Z"/>
              <path class="cls-31" d="m1446.99,128.87l-.85,3.6c-3,.92-21.67,4.97-23.19,4.02-.09-.06-.62-2.03-.54-2.17.5-.81,16.11-3.83,18.38-4.34,2.05-.46,4.11-.78,6.19-1.12Z"/>
              <g>
                <path class="cls-38" d="m1415.53,135.13c.89.77,1.99,3.04,3.02,3.94-.81,5.77-5.86,36.86-6.75,38.81-.77,1.67-5.75,3.71-7.6,3.68-1.51-.02-28.28-4.89-29.68-5.45-1.55-.61-4.05-3.59-4.41-5.51q3.32-19.13,6.65-38.26c6.45-7.22,9.31-3.1,15.49-1.86,6.65,1.34,13.35,2.71,20.17,2.2.78,1.1,2.12,1.6,3.1,2.45Z"/>
                <g>
                  <path class="cls-35" d="m1379.47,166.49c-.48-.07-.96-.21-1.45-.27-.78-.09-2.48-.15-2.6-.1-3.02-3.21,2.03-5.45,2.19-5.8.79-1.81-.92-1.67-1.44-2.33,3.12-.01,2.53-1.05,3.11-4.69.05-.3,2.3-1.88-1.34-4.95.68-2.29,1.11-7.97,1.67-9.09.15-.3,5.02-3.59,5.54-3.68-1.25,9.55-4.68,21.87-5.67,30.92Z"/>
                  <path class="cls-34" d="m1412.25,142.8c1.18.67,1.11,1.54,3.26.6-.13,1.32-2.07,14.05-2.78,14.15-7.16-5.67-3.36-7.71-2.34-16.79,1.37,3.25,1.73,1.95,1.87,2.04Z"/>
                  <path class="cls-34" d="m1408.46,173.68c-.56-.19-1.43-.13-1.81-.33-.61-.31-1.74-2.39-2.5-2.71.04-.11.03-.25.07-.36,1.67-1.01,3.17-4.23,5.42-2.01,2.21,2.17-1.1,5.12-1.18,5.42Z"/>
                  <path class="cls-28" d="m1415.51,143.4c-2.15.94-2.07.08-3.26-.6-1.54-5.38,4.04-7.41,3.26.6Z"/>
                  <path class="cls-34" d="m1378.02,166.22c-2.11,1.52-1.02,9.16-3.92,6.05-1.13-1.22-.28-5.49,1.32-6.15.12-.05,1.82.01,2.6.1Z"/>
                  <path class="cls-38" d="m1379.27,153.29c-.58,3.65.02,4.68-3.11,4.69-.44-.56-1.28-.52-1.35-.81-.5-2.12,1.97-6.25,4.45-3.88Z"/>
                  <path class="cls-38" d="m1408.46,173.68c-.17.61-1.08,8.82-2.9,6.61-1.04-1.26,1.32-5.21,1.09-6.94.38.2,1.25.14,1.81.33Z"/>
                  <g>
                    <path class="cls-31" d="m1404.22,170.28c-.04.12-.03.25-.07.36-.5,1.42-1.19,3.07-3.02,3.21-2.06.15-17.03-3.52-21.72-3.99-.8-.8-.09-2.05.06-3.37.99-9.05,4.42-21.37,5.67-30.92,2.21-.41,19.2,3.99,24.71,3.97-2.06,8.25-3.74,24.37-5.64,30.74Z"/>
                    <path class="cls-31" d="m1406.69,149.67c1.03.59-2.38,16.5-3.11,18.98l-20.78-4,3.35-17.24c1.23-.57,17.23,3.66,20.54,2.26Z"/>
                  </g>
                </g>
              </g>
            </g>
          </g>
        </g>
      </g>
      <g>
        <g>
          <g>
            <g>
              <path class="cls-23" d="m1761.89,311.89c30.83,77.09-40.42,120.08-49.53,114.79,13.15-25.8,12.58-50.24,12.42-67.78-.18-19.13-17.62-80.69-36.62-93.76-19.45-13.37-34.38-10.82-35.23-10.66,1.71-.55,76.39-24.01,108.96,57.42Z"/>
              <path class="cls-21" d="m1712.36,426.68c-1.32,2.59-2.77,5.19-4.38,7.79-18.4,29.83-52.78,7.07-52.78,7.07,4.91-5.8,8.92-14.24,10.43-26.5,5.04-41.07.39-103.88-4.79-119.64-5.69-17.25-20.74-33.62-21.47-34.12,2.22-3.34,13.54-6.79,13.54-6.79,0,0,.01,0,.03-.01.85-.15,15.78-2.71,35.23,10.66,19,13.07,36.44,74.63,36.62,93.76.16,17.54.73,41.99-12.42,67.78Z"/>
              <path class="cls-22" d="m1660.83,295.39c5.18,15.76,9.83,78.57,4.79,119.64-1.5,12.25-5.52,20.69-10.43,26.5-11.5,13.65-27.88,12.77-27.88,12.77,0,0-12.76,2.28-23.91-7.32-6.83-5.88-13.07-16.23-15.4-34.31-6.13-47.58-.03-100.01,7.38-120.9,7.5-21.15,22.83-30.21,22.83-30.21,10.71-4.48,20.71-.43,21.12-.27h.01s.01,0,.01-.01c.73.5,15.78,16.86,21.47,34.12Z"/>
              <path class="cls-36" d="m1652.9,254.48s-11.32,3.45-13.54,6.79c-.02-.02-.03-.01-.02.01-.41-.16-10.41-4.21-21.12.27,0,0-1.09-4.42-7.76-6.55,0,0,19.73-17.98,18.51-26.83-1.22-8.85-12.28-10.99-9.73-27.07,2.55-16.07,9.23-17.27,9.23-17.27,0,0-3.18,15.57-3.14,18.89s5.62,6.58,13.45,12.03,4.69,21,4.75,25.43,1.95,13.28,9.37,14.29Z"/>
              <path class="cls-6" d="m1639.36,261.28s-.01.01-.01.02h-.01s0-.04.02-.02Z"/>
              <path class="cls-3" d="m1549.39,428.67c-9.1-13.96-21.62-44.89-10.14-105.18,12.5-65.55,71.2-68.48,71.2-68.48,6.68,2.13,7.76,6.55,7.76,6.55,0,0-15.33,9.06-22.83,30.21-7.41,20.9-13.51,73.32-7.38,120.9,2.33,18.08,8.56,28.44,15.4,34.31-22.66,4.84-42.72-2.94-51.73-15.03-.68-.9-1.39-1.91-2.12-3.03-.06-.08-.11-.16-.16-.25Z"/>
              <path class="cls-4" d="m1501.36,306.22c31.28-70.21,109.1-51.22,109.1-51.22,0,0-58.71,2.94-71.2,68.48-11.48,60.29,1.03,91.22,10.14,105.18-18.77,7.93-79.3-52.26-48.03-122.45Z"/>
            </g>
            <g>
              <path class="cls-1" d="m1639.34,261.29c-.41-.16-10.41-4.21-21.12.27,0,0-1.09-4.42-7.76-6.55,0,0,19.73-17.98,18.51-26.83-1.22-8.85-12.28-10.99-9.73-27.07,2.55-16.07,9.23-17.27,9.23-17.27,0,0-3.18,15.57-3.14,18.89s5.62,6.58,13.45,12.03,4.69,21,4.75,25.43,1.95,13.28,9.37,14.29c0,0-11.32,3.45-13.54,6.79,0,.01-.01.01-.01.02"/>
              <path class="cls-1" d="m1639.35,261.3h-.01s0-.04.02-.02c.73.5,15.78,16.86,21.47,34.12,5.18,15.76,9.83,78.57,4.79,119.64-1.5,12.25-5.52,20.69-10.43,26.5-11.5,13.65-27.88,12.77-27.88,12.77,0,0-12.76,2.28-23.91-7.32-6.83-5.88-13.07-16.23-15.4-34.31-6.13-47.58-.03-100.01,7.38-120.9,7.5-21.15,22.83-30.21,22.83-30.21"/>
              <path class="cls-1" d="m1603.4,446.98c-22.66,4.84-42.72-2.94-51.73-15.03-.68-.9-1.39-1.91-2.12-3.03-.06-.08-.11-.16-.16-.25-9.1-13.96-21.62-44.89-10.14-105.18,12.5-65.55,71.2-68.48,71.2-68.48,0,0-77.82-18.99-109.1,51.22-31.27,70.19,29.27,130.38,48.03,122.45.01,0,.01-.01.02-.01"/>
              <path class="cls-1" d="m1652.9,254.48s.01,0,.03-.01c1.71-.55,76.39-24.01,108.96,57.42,30.83,77.09-40.42,120.08-49.53,114.79-.02-.01-.03-.01-.04-.02"/>
              <path class="cls-1" d="m1655.2,441.53s34.38,22.76,52.78-7.07c1.61-2.6,3.06-5.2,4.38-7.79,13.15-25.8,12.58-50.24,12.42-67.78-.18-19.13-17.62-80.69-36.62-93.76-19.45-13.37-34.38-10.82-35.23-10.66"/>
            </g>
          </g>
          <g>
            <path class="cls-26" d="m1658.35,319.26s32.21,5.15,44.03-24.92c0,0-4.15,68.22-44.03,24.92Z"/>
            <path class="cls-26" d="m1595.18,320.03s-32.07,5.94-44.63-23.84c0,0,5.82,68.09,44.63,23.84Z"/>
            <path class="cls-26" d="m1624.73,334.63s-7.58,14.5-10.84,20.08c-2.22,3.81,14.77,2.32,20.78,1.29,1.26-.22,2.51-.46,1.39-2.73-2.55-5.16-10.16-17.14-11.33-18.64Z"/>
            <path class="cls-26" d="m1548.65,366.6s12.63,35.31,43.85,50.45c0,0,9.86-8.99,13.15-12.35l12.39,16.47,10.89-15.65,12.35,13.15s9.8-14.53,9.77-16.75,11.25,13.16,11.25,13.16c0,0,30.38-13.01,42.25-58.93l-17.27,17.61-15.35-17.21s-4.56,20.78-8.98,21.94l-16.79-13.09-14.18,19.02s-18.31-13.18-18.13-15.35l-14.02,14.63-17.98-19.73-11.99,16.77s-20.06-8.62-21.23-14.15Z"/>
          </g>
        </g>
        <g>
          <path class="cls-31" d="m1683.5,254.37l24.94,33.3c-39.49,10.01-90.1,2.35-124.9-19.01-10.09-6.51-29.79-19.77-34.48-30.72-3.2-7.46-.82-14.24,6.15-18.26,11.79-6.79,35.15-4.34,48.63-3.89,2.19,1.21-7.1.86-10.11,4.23-8.24,9.19,10.73,19.68,17.33,22.85,19.14,9.2,51.44,16.1,72.44,11.5Z"/>
          <path class="cls-26" d="m1720.11,248.14c5.93,1.63,26.89,11.03,28.86,17.13-5.63,12.46-28.25,19.29-40.52,22.4l-24.94-33.3c11.41-5.29,24.11-9.67,36.6-6.23Z"/>
          <path class="cls-31" d="m1710.82,233.2c-1.08,2.75,9.14,4.41,11.91,5.52,8.02,3.2,22.71,9.65,26.25,17.99,1.34,3.16,1.39,5.46-.02,8.56-1.97-6.09-22.93-15.5-28.86-17.13-1.31-1.76-5.69-.56-1.6-2.45-.85-2.68-13.59-10.1-13.88-10.94-.19-.56.62-2.98,2.87-2.41,1.1.32,2.24.54,3.32.86Z"/>
          <path class="cls-29" d="m1696.95,118.16l-.56-.1c-1.26-1.78-2.69-3.46-3.86-5.31l-6.16,5.63c-2.92-1.13-14.77-3.98-15.95-4.76-3.44-2.29,5.31-2.11,10.97-2.48,3.29-.22,6.56-.59,9.84-.93,2.83,2.9,4.85,6.82,5.72,7.95Z"/>
          <path class="cls-30" d="m1699.66,119.21l-2.1-2.1-.45.07c.64.64.64,1.3.86,1.74-.42-.02-.8-.46-1.03-.76-.87-1.13-2.89-5.05-5.72-7.95-3.28.34-6.55.72-9.84.93-2.11-.79-6.43.61-3.22-1.42,4.17-.4,8.39-.46,12.51-1.35.97.24,7.71,9.31,8.99,10.83Z"/>
          <g>
            <path class="cls-31" d="m1681.39,111.15c-5.66.37-14.41.19-10.97,2.48,1.18.78,13.03,3.63,15.95,4.76l6.16-5.63c1.17,1.85,2.61,3.52,3.86,5.31,1.53,2.17,8.19,12.92,9.96,13.61,3.77,1.46-6.58-9.04-8.37-12.75-.21-.45-.22-1.1-.86-1.74l.45-.07,2.1,2.1c3.81,4.52,8.21,8.89,11.03,14.08q-7-.47-14-.94-5.76-4.32-11.53-8.65c-10.43,2.49-7.04,1.42-4.16,13.37,1.65,6.85,3.62,18.2,4.99,23.21,1.46,5.31,6.83,17.88,6.89,18.89.08,1.48-1.43,6.04-1.26,9.08,7.64,6.97,4.15,9.27,4.99,13.05.49,2.18,8.23,10.63,2.96,18.22,2.24,13.52-1.32,10.1,7.92,12.82-2.25-.56-3.06,1.85-2.87,2.41.29.84,13.03,8.25,13.88,10.94-4.09,1.9.29.7,1.6,2.45-12.5-3.43-25.19.94-36.6,6.23-21,4.59-53.29-2.31-72.44-11.5-6.6-3.17-25.57-13.66-17.33-22.85,3.02-3.37,12.31-3.01,10.11-4.23-13.47-.46-36.84-2.9-48.63,3.89-6.97,4.02-9.35,10.8-6.15,18.26,4.69,10.95,24.4,24.2,34.48,30.72,34.8,21.37,85.4,29.02,124.9,19.01,12.28-3.11,34.89-9.95,40.52-22.4,1.41-3.11,1.36-5.4.02-8.56-3.55-8.34-18.24-14.79-26.25-17.99-2.78-1.11-13-2.77-11.91-5.52,15.13,4.47,55.03,17.15,38,39.74-8.26,10.95-28.72,17.86-41.71,20.9-1.84.33-3.79.43-5.62.78-7.81,1.52-15.62,2.98-23.57,3.52l2.85,1.07c-1.98-.24-3.96-.48-5.94-.73-29.34-3.68-42.63-5.93-71.59-12.23-2.69-.58-5.35-1.35-8.05-1.96,1.35-1.42,5.3,1.39,5.97.58-6.35-3.35-13-6.88-19.27-10.7-.95-.58-1.96-1.07-2.9-1.66-12.83-8.08-43.39-30.41-32.76-48.43,8.91-15.1,44.31-11.31,58.91-9.97,1.69-2.9,3.92-10.6,6.65-10.19-.1-3.68,3.07-5.7,5.42-8.07,1.26-3.23-5.01-4.57,10.4-20.29-.5-3.78,6.6-11.21,9.21-16.72l-.22-2.07c10.55-15.4,19.75-31.75,31.2-46.5,3.46-.09,6.91-.23,10.35-.55-3.2,2.03,1.12.63,3.22,1.42Z"/>
            <g>
              <path class="cls-31" d="m1669.12,179.61c-1.24.95-9.72,6.81-9.66,7.5q13.71,10.25,27.41,20.51c-1.76.42-13.8,2.9-14.18,3.53-.06.1.36,1.63.44,1.67,1.18.73,15.59-2.59,17.91-3.33l.62-2.8s-.05-.43.89-.14c-.03.78-.06,1.53-.1,2.31-7.06,3.56-14.14,4.77-22.13,5.22l-.57.77c-.8-.68-1.68-2.43-2.37-3.02.43-1.22-.47-3.3-1.53-3.75-.79-.33-9.38-.17-17.04-1.75-2.47-.51-4.99-3.93-9.42,1q-7.17-3.69-14.34-7.39l.28-.82c1.34.19-.73-.91-1.07-1.34-7.48-9.42,1.56-11.77,4.01-15.87l14.45,4.21c.45-2.87.15-2.24-3.81-5.59-2.23-1.88-7.55-4.75-6.75-7.83,12.56.76,24.98,3.03,36.96,6.9Z"/>
              <path class="cls-31" d="m1667.37,134.02c-.27,2.62,2.36,4.36,3.5,6.55l-5.83-.56c-8.06,4.25-.69,5.08-2.38,13.1.81,1.93,8.46,13.36,7.94,14.42-3.44,1.84-7.56,3.14-10.49,5.61-7.37-3.15-13.87-6.56-20.29-11.45,10.22-8.17,17.23-19.71,27.55-27.67Z"/>
              <path class="cls-34" d="m1683.86,160.94c-.29-.07-.64,0-.82-.28-.5-.81-3.33-14.41-4.04-16.95-1.75-6.26-7.18-21.19-7.86-25.01-1.54-8.62,2.25,2.25,4.43,7.87q4.14,17.19,8.29,34.37Z"/>
              <path class="cls-38" d="m1628.27,181.93c-2.45,4.09-11.5,6.45-4.01,15.87.34.43,2.41,1.53,1.07,1.34-4.09-2.7-7.33-5.58-5.36-10.93.22-.6,7.77-9.26,8.29-9.62.91-.62.89,1.87,0,3.34Z"/>
              <path class="cls-28" d="m1699.98,236.57l2.9,5.87q-6.74,1.82-13.48,3.65c9.01-3.86,4.99-4.04,10.58-9.52Z"/>
              <path class="cls-35" d="m1692.44,208.86c.05-.77.08-1.53.1-2.31.05-1.56-.13-12.64-.33-13.27-.24-.72-1.73-1.45-2.3-3.44,5.59,4.94,3.66,5.48,4.18,11.02.24,2.54,1.46,5.12.71,7.67-.14.14-1.47-.13-2.37.32Z"/>
              <path class="cls-34" d="m1695.78,205.37c.81,1.95,4.21,9.21,2.92,10.81-11.65.97-11.67,2.37-1.35-2.26.44-1.34-4.36-1.27-1.57-8.54Z"/>
              <path class="cls-38" d="m1617.46,198.66c.62.01,4.53,4.36,5.67,4.89-2.38-.28-6.27-5.38-7.63-1.01-1.15,3.72,3.31,5.39,5.18,7.71-12.42-4.46-4.04-11.6-3.22-11.58Z"/>
              <path class="cls-38" d="m1632.15,172.72c-.8,3.08,4.52,5.95,6.75,7.83-11.58-5.89-10.09-6.6-1.96-15.58,2.02-6.26,2.56-4.09-.19,1.13-.69,1.31-4.44,6.02-4.6,6.62Z"/>
              <g>
                <path class="cls-27" d="m1693.66,237.23c-4.38-2.04-17.85-7.4-20.37-9.29-.32-.24-1.18-.41-1.28-.95-.08-.41.41-1.82.46-2.68,4.47,1.06,20.03-.99,25.02-3.56l1.45,14.33c-1.62,1.05-3.48,1.55-5.28,2.15Z"/>
                <path class="cls-37" d="m1673.28,227.95c2.52,1.89,16,7.25,20.37,9.29-8,2.65-18.09,3.04-26.52,3.89.97-11.18,2.21-8.81,3.94-10.36,1.81-1.63.05-3.01,2.21-2.82Z"/>
                <g>
                  <path class="cls-37" d="m1606.16,221.71c5.11-.31,7.21-6.82,9.93-10.79,5.34,3.29,11.31,5.08,17.1,7.28,4.15-2.03-1.34,5.31,1.2,9.06-2.26.96-1.68,5.03-2.47,7.71-7.77-2.82-19.86-7.71-25.76-13.26Z"/>
                  <path class="cls-27" d="m1616.09,210.92c-2.73,3.97-4.82,10.48-9.93,10.79-.09-.08-1.78-.83-1.75-1.61q3.24-6.27,6.48-12.54l.49-.35c.3-.03,4.03,3.29,4.71,3.71Z"/>
                </g>
                <path class="cls-33" d="m1672.46,224.32c-.04.86-.53,2.27-.46,2.68.1.53.96.7,1.28.95-2.17-.19-.4,1.19-2.21,2.82.03-.19.16-.49-.04-.59-1.12-.55-4.06,1.93-.76-7.39,1,.91.79,1.2,2.19,1.54Z"/>
              </g>
              <path class="cls-38" d="m1696.95,118.16c.23.29.61.73,1.03.76,1.78,3.71,12.13,14.21,8.37,12.75-1.77-.68-8.42-11.43-9.96-13.61l.56.1Z"/>
              <path class="cls-32" d="m1601.13,225.78l2.96-2.11c4.6,9.58,8.22,11.08-2.96,2.11Z"/>
              <path class="cls-34" d="m1652.65,136.44q-6.63,10.92-13.27,21.83c-.16-.32-.04-.96.08-1.29.64-1.81,10.91-17.05,13.19-20.54Z"/>
              <path class="cls-34" d="m1604.09,223.67l-2.96,2.11c-1.74-.58.68-2.28,2.27-3.97.61.82.65,1.77.69,1.86Z"/>
              <path class="cls-31" d="m1691.65,206.69l-.62,2.8c-2.31.74-16.72,4.06-17.91,3.33-.07-.05-.5-1.57-.44-1.67.38-.63,12.43-3.11,14.18-3.53,1.59-.38,3.18-.64,4.78-.93Z"/>
              <g>
                <path class="cls-38" d="m1667.37,211.84c.69.58,1.57,2.34,2.37,3.02-.58,4.47-4.18,28.58-4.85,30.1-.58,1.3-4.41,2.93-5.84,2.92-1.17,0-21.93-3.52-23.02-3.93-1.21-.46-3.17-2.74-3.47-4.22l4.78-29.67c4.92-5.65,7.18-2.49,11.97-1.58,5.16.97,10.36,1.97,15.63,1.51.61.84,1.66,1.22,2.43,1.87Z"/>
                <g>
                  <path class="cls-35" d="m1639.76,236.45c-.38-.05-.75-.15-1.12-.19-.6-.06-1.92-.09-2.01-.05-2.37-2.45,1.52-4.24,1.64-4.51.59-1.41-.72-1.28-1.14-1.79,2.42-.04,1.95-.83,2.36-3.66.03-.23,1.77-1.47-1.08-3.81.5-1.78.78-6.18,1.21-7.05.11-.23,3.85-2.82,4.25-2.9-.88,7.4-3.41,16.97-4.1,23.98Z"/>
                  <path class="cls-34" d="m1664.9,217.8c.92.51.87,1.18,2.53.43-.09,1.03-1.47,10.89-2.02,10.98-5.6-4.32-2.68-5.93-1.97-12.97,1.09,2.5,1.36,1.5,1.47,1.56Z"/>
                  <path class="cls-34" d="m1662.26,241.74c-.44-.14-1.11-.09-1.4-.24-.47-.24-1.37-1.83-1.96-2.08.03-.09.02-.19.05-.28,1.29-.8,2.42-3.3,4.18-1.61,1.73,1.66-.8,3.97-.86,4.21Z"/>
                  <path class="cls-28" d="m1667.43,218.24c-1.66.75-1.6.08-2.53-.43-1.24-4.15,3.06-5.77,2.53.43Z"/>
                  <path class="cls-34" d="m1638.63,236.26c-1.62,1.19-.7,7.1-2.97,4.72-.89-.93-.27-4.25.96-4.77.09-.04,1.41,0,2.01.05Z"/>
                  <path class="cls-38" d="m1639.48,226.24c-.41,2.83.06,3.62-2.36,3.66-.35-.43-.99-.39-1.05-.62-.41-1.64,1.46-4.86,3.41-3.05Z"/>
                  <path class="cls-38" d="m1662.26,241.74c-.13.48-.75,6.83-2.18,5.14-.81-.96.97-4.04.78-5.38.3.15.97.1,1.4.24Z"/>
                  <g>
                    <path class="cls-31" d="m1658.95,239.14c-.03.09-.02.19-.05.28-.37,1.1-.89,2.39-2.31,2.51-1.59.14-13.21-2.56-16.85-2.88-.62-.61-.09-1.59.01-2.61.68-7.01,3.22-16.58,4.1-23.98,1.7-.34,14.89,2.91,19.16,2.84-1.52,6.4-2.66,18.9-4.07,23.84Z"/>
                    <path class="cls-31" d="m1660.66,223.18c.8.45-1.69,12.79-2.23,14.72q-8.06-1.45-16.12-2.9,1.21-6.69,2.43-13.38c.94-.46,13.37,2.67,15.91,1.56Z"/>
                  </g>
                </g>
              </g>
            </g>
          </g>
        </g>
      </g>
    </g>
    <g>
      <g>
        <g>
          <g>
            <g>
              <path class="cls-5" d="m235.02,264.06c-38.61,100.08,54.13,154.5,65.81,147.52-17.4-33.12-17.07-64.71-17.13-87.38-.07-24.72,21.48-104.53,45.82-121.72,24.9-17.58,44.23-14.52,45.34-14.33-2.22-.69-99.06-29.81-139.85,75.91Z"/>
              <path class="cls-14" d="m300.83,411.58c1.75,3.32,3.67,6.66,5.79,10,24.23,38.25,68.29,8.29,68.29,8.29-6.42-7.42-11.74-18.26-13.88-34.07-7.16-52.98-2.16-134.22,4.3-154.65,7.06-22.38,26.26-43.76,27.19-44.42-2.92-4.28-17.61-8.56-17.61-8.56,0,0-.01,0-.04-.01-1.1-.19-20.43-3.25-45.34,14.33-24.34,17.18-45.89,97-45.82,121.72.06,22.67-.27,54.26,17.13,87.38Z"/>
              <path class="cls-10" d="m441.94,436.07c8.74-7.7,16.61-21.18,19.33-44.56,7.16-61.58-1.56-129.21-11.46-156.09-10.02-27.21-29.97-38.66-29.97-38.66-13.92-5.61-26.76-.23-27.29-.01h-.01s-.01,0-.01-.01c-.93.66-20.13,22.04-27.19,44.42-6.46,20.43-11.46,101.67-4.3,154.65,2.13,15.81,7.46,26.65,13.88,34.07,15.09,17.46,36.24,16.05,36.24,16.05,0,0,16.53,2.75,30.79-9.85Z"/>
              <path class="cls-36" d="m374.91,188.16s14.69,4.28,17.61,8.56c.03-.03.04-.01.03.01.53-.21,13.37-5.6,27.29.01,0,0,1.33-5.73,9.92-8.59,0,0-25.78-22.91-24.34-34.37,1.43-11.46,15.69-14.41,12.14-35.13s-12.2-22.17-12.2-22.17c0,0,4.35,20.06,4.35,24.36s-7.16,8.59-17.18,15.75c-10.02,7.16-5.73,27.21-5.73,32.94s-2.32,17.18-11.9,18.62Z"/>
              <path class="cls-8" d="m392.52,196.73s.01.01.01.03h.01s0-.06-.03-.03Z"/>
              <path class="cls-7" d="m511.42,411.57c11.54-18.19,27.22-58.35,11.43-136.05-17.18-84.49-93.08-87.35-93.08-87.35-8.59,2.86-9.92,8.59-9.92,8.59,0,0,19.95,11.46,29.97,38.66,9.89,26.88,18.62,94.51,11.46,156.09-2.72,23.38-10.6,36.86-19.33,44.56,29.34,5.91,55.13-4.47,66.59-20.22.84-1.17,1.76-2.49,2.69-3.95.07-.1.14-.21.2-.33Z"/>
              <path class="cls-13" d="m571.54,252.6c-41.53-90.21-141.77-64.44-141.77-64.44,0,0,75.89,2.86,93.08,87.35,15.79,77.7.11,117.87-11.43,136.05,24.37,9.95,101.63-68.78,60.11-158.96Z"/>
            </g>
            <g>
              <path class="cls-1" d="m392.55,196.74c.53-.21,13.37-5.6,27.29.01,0,0,1.33-5.73,9.92-8.59,0,0-25.78-22.91-24.34-34.37,1.43-11.46,15.69-14.41,12.14-35.13s-12.2-22.17-12.2-22.17c0,0,4.35,20.06,4.35,24.36s-7.16,8.59-17.18,15.75c-10.02,7.16-5.73,27.21-5.73,32.94s-2.32,17.18-11.9,18.62c0,0,14.69,4.28,17.61,8.56,0,.01.01.01.01.03"/>
              <path class="cls-1" d="m392.54,196.75h.01s0-.06-.03-.03c-.93.66-20.13,22.04-27.19,44.42-6.46,20.43-11.46,101.67-4.3,154.65,2.13,15.81,7.46,26.65,13.88,34.07,15.09,17.46,36.24,16.05,36.24,16.05,0,0,16.53,2.75,30.79-9.85,8.74-7.7,16.61-21.18,19.33-44.56,7.16-61.58-1.56-129.21-11.46-156.09-10.02-27.21-29.97-38.66-29.97-38.66"/>
              <path class="cls-1" d="m441.93,436.07h.01c29.34,5.91,55.13-4.47,66.59-20.22.84-1.17,1.76-2.49,2.69-3.95.07-.1.14-.21.2-.33,11.54-18.19,27.22-58.35,11.43-136.05-17.18-84.49-93.08-87.35-93.08-87.35,0,0,100.24-25.78,141.77,64.44,41.51,90.19-35.74,168.92-60.11,158.96-.01,0-.01-.01-.03-.01"/>
              <path class="cls-1" d="m374.91,188.16s-.01,0-.04-.01c-2.22-.69-99.06-29.81-139.85,75.91-38.61,100.08,54.13,154.5,65.81,147.52.03-.01.04-.01.06-.03"/>
              <path class="cls-1" d="m374.91,429.87s-44.06,29.96-68.29-8.29c-2.12-3.34-4.04-6.67-5.79-10-17.4-33.12-17.07-64.71-17.13-87.38-.07-24.72,21.48-104.53,45.82-121.72,24.9-17.58,44.23-14.52,45.34-14.33"/>
            </g>
          </g>
          <g>
            <path class="cls-26" d="m368.9,271.93s-41.53,7.16-57.28-31.5c0,0,6.44,88.07,57.28,31.5Z"/>
            <path class="cls-26" d="m450.53,271.93s41.53,7.16,57.28-31.5c0,0-6.44,88.07-57.28,31.5Z"/>
            <path class="cls-26" d="m412.58,291.26s10.02,18.62,14.32,25.78c2.93,4.89-19.04,3.23-26.82,1.99-1.63-.26-3.25-.56-1.84-3.5,3.22-6.71,12.86-22.31,14.34-24.26Z"/>
            <path class="cls-26" d="m511.39,331.36s-15.75,45.82-55.85,65.87c0,0-12.89-11.46-17.18-15.75l-15.75,21.48-14.32-20.05-15.75,17.18s-12.89-18.62-12.89-21.48-14.32,17.18-14.32,17.18c0,0-39.45-16.32-55.53-75.46l22.59,22.48,19.56-22.48s6.22,26.78,11.95,28.21l21.48-17.18,18.62,24.34s23.45-17.32,23.18-20.11l18.35,18.68,22.91-25.78,15.75,21.48s25.78-11.46,27.21-18.62Z"/>
          </g>
        </g>
        <g>
          <path class="cls-31" d="m335.37,188.51q-15.85,21.71-31.69,43.42c51.18,12.31,116.45,1.61,161.06-26.55,12.93-8.58,38.17-26.01,44.06-40.23,4.01-9.69.83-18.41-8.24-23.49-15.33-8.58-45.49-5.05-62.89-4.25-2.82,1.6,9.18,1,13.13,5.3,10.79,11.75-13.55,25.6-22.03,29.8-24.59,12.18-66.2,21.62-93.41,16.01Z"/>
          <path class="cls-26" d="m287.98,181.04c-7.63,2.2-34.57,14.68-37.01,22.58,7.48,16.01,36.8,24.48,52.71,28.3q15.85-21.71,31.69-43.42c-14.83-6.65-31.3-12.11-47.39-7.47Z"/>
          <path class="cls-31" d="m299.75,161.58c1.44,3.53-11.73,5.84-15.31,7.32-10.31,4.26-29.19,12.82-33.64,23.66-1.69,4.11-1.71,7.07.16,11.06,2.45-7.91,29.38-20.39,37.01-22.58,1.67-2.29,7.34-.81,2.03-3.19,1.05-3.48,17.4-13.26,17.76-14.35.24-.73-.85-3.84-3.74-3.07-1.41.43-2.89.73-4.28,1.16Z"/>
          <path class="cls-29" d="m315.84,12.74l.72-.13c1.59-2.32,3.42-4.51,4.9-6.92q4.03,3.59,8.05,7.17c3.75-1.5,19.02-5.37,20.53-6.4,4.41-3.01-6.9-2.64-14.21-3.03-4.25-.23-8.49-.66-12.73-1.05-3.61,3.79-6.16,8.89-7.27,10.36Z"/>
          <path class="cls-30" d="m312.35,14.13l2.68-2.75.58.08c-.82.84-.81,1.69-1.08,2.27.54-.04,1.03-.61,1.31-.99,1.11-1.47,3.65-6.57,7.27-10.36,4.24.39,8.47.82,12.73,1.05,2.71-1.05,8.32.69,4.14-1.89-5.4-.45-10.84-.47-16.18-1.54-1.25.33-9.81,12.15-11.44,14.13Z"/>
          <g>
            <path class="cls-31" d="m335.83,3.43c7.32.39,18.62.02,14.21,3.03-1.51,1.03-16.77,4.89-20.53,6.4q-4.03-3.59-8.05-7.17c-1.48,2.41-3.31,4.59-4.9,6.92-1.94,2.83-10.38,16.83-12.65,17.74-4.84,1.94,8.36-11.78,10.61-16.61.27-.58.26-1.43,1.08-2.27l-.58-.08-2.68,2.75c-4.85,5.9-10.47,11.62-14.03,18.37q9.03-.72,18.07-1.44,7.38-5.68,14.75-11.36c13.51,3.05,9.12,1.73,5.59,17.21-2.02,8.88-4.38,23.57-6.08,30.07-1.8,6.88-8.54,23.21-8.6,24.51-.08,1.92,1.94,7.78,1.77,11.71-9.76,9.13-5.21,12.04-6.25,16.94-.6,2.82-10.47,13.86-3.53,23.58-2.68,17.5,1.86,13.03-10.03,16.69,2.89-.76,3.98,2.34,3.74,3.07-.36,1.09-16.7,10.87-17.76,14.35,5.31,2.38-.37.9-2.03,3.19,16.09-4.64,32.57.82,47.39,7.47,27.2,5.6,68.82-3.83,93.41-16.01,8.48-4.2,32.82-18.05,22.03-29.8-3.95-4.3-15.95-3.7-13.13-5.3,17.4-.8,47.56-4.33,62.89,4.25,9.07,5.08,12.25,13.81,8.24,23.49-5.89,14.22-31.13,31.66-44.06,40.23-44.62,28.16-109.88,38.85-161.06,26.55-15.91-3.83-45.23-12.3-52.71-28.3-1.86-3.99-1.85-6.95-.16-11.06,4.45-10.83,23.33-19.39,33.64-23.66,3.57-1.48,16.75-3.79,15.31-7.32-19.48,6.02-70.83,23.03-48.46,51.94,10.85,14.02,37.39,22.61,54.22,26.33,2.38.4,4.91.49,7.28.92,10.12,1.84,20.23,3.6,30.51,4.18l-3.67,1.42c2.56-.34,5.11-.68,7.67-1.03,37.85-5.22,54.98-8.34,92.3-16.94,3.46-.8,6.9-1.83,10.36-2.65-1.76-1.81-6.83,1.88-7.7.85,8.16-4.43,16.68-9.09,24.72-14.12,1.21-.76,2.52-1.41,3.71-2.19,16.44-10.64,55.58-39.97,41.55-63.09-11.75-19.36-57.43-13.91-76.27-11.95-2.23-3.72-5.24-13.63-8.76-13.06.07-4.76-4.06-7.31-7.14-10.35-1.68-4.15,6.41-5.99-13.76-26.05.59-4.89-8.7-14.38-12.17-21.46l.26-2.68c-13.87-19.73-26.01-40.71-41.05-59.58-4.47-.06-8.93-.18-13.38-.55,4.17,2.58-1.43.84-4.14,1.89Z"/>
            <g>
              <path class="cls-31" d="m352.78,91.69c1.62,1.21,12.66,8.65,12.6,9.53q-17.55,13.47-35.09,26.93c2.27.51,17.88,3.53,18.38,4.34.08.13-.44,2.11-.54,2.17-1.51.96-20.19-3.1-23.19-4.02l-.85-3.6c-.06,0,.06-.56-1.15-.16.05,1,.1,1.98.17,2.98,9.17,4.49,18.34,5.94,28.67,6.39l.74.99c1.03-.89,2.13-3.17,3.02-3.94-.58-1.57.55-4.27,1.91-4.86,1.02-.44,12.11-.36,21.98-2.53,3.18-.7,6.38-5.16,12.18,1.15l18.41-9.77-.38-1.06c-1.73.26.92-1.19,1.36-1.75,9.52-12.29-2.2-15.19-5.43-20.43q-9.3,2.83-18.6,5.67c-.62-3.7-.23-2.9,4.84-7.28,2.85-2.47,9.68-6.25,8.6-10.23-16.22,1.18-32.23,4.31-47.65,9.5Z"/>
              <path class="cls-31" d="m354.31,32.75c.4,3.38-2.98,5.68-4.42,8.52q3.76-.41,7.52-.82c10.49,5.37.98,6.55,3.28,16.88-1.02,2.5-10.72,17.39-10.03,18.76,4.48,2.33,9.82,3.93,13.65,7.08,9.47-4.19,17.82-8.7,26.04-15.12-13.34-10.39-22.57-25.19-36.04-35.31Z"/>
              <path class="cls-34" d="m333.43,67.79c.37-.1.82,0,1.05-.38.64-1.05,4.07-18.67,4.95-21.96,2.16-8.12,8.94-27.49,9.76-32.44,1.85-11.16-2.87,2.94-5.6,10.24q-5.08,22.27-10.16,44.54Z"/>
              <path class="cls-38" d="m405.59,94.03c3.24,5.25,14.95,8.15,5.43,20.43-.44.56-3.09,2.02-1.36,1.75,5.24-3.55,9.38-7.33,6.75-14.21-.29-.77-10.18-11.84-10.86-12.29-1.18-.79-1.12,2.43.04,4.32Z"/>
              <path class="cls-28" d="m313.8,165.77q-1.83,3.81-3.65,7.63l17.48,4.5c-11.7-4.85-6.52-5.14-13.82-12.13Z"/>
              <path class="cls-35" d="m323.11,129.84c-.08-1-.12-1.97-.17-2.98-.1-2.01-.04-16.33.22-17.15.3-.93,2.22-1.9,2.92-4.48-7.14,6.47-4.64,7.13-5.23,14.31-.27,3.29-1.81,6.63-.8,9.92.18.18,1.89-.2,3.06.38Z"/>
              <path class="cls-34" d="m318.74,125.38c-1.01,2.54-5.29,11.96-3.6,14.01,15.07,1.07,15.11,2.88,1.7-2.94-.59-1.72,5.62-1.71,1.9-11.06Z"/>
              <path class="cls-38" d="m419.81,115.48c-.8.03-5.78,5.71-7.24,6.41,3.07-.4,8.02-7.05,9.84-1.43,1.55,4.79-4.19,7.01-6.58,10.04,15.97-5.95,5.04-15.06,3.98-15.02Z"/>
              <path class="cls-38" d="m400.42,82.19c1.08,3.97-5.75,7.76-8.6,10.23,14.86-7.79,12.93-8.69,2.29-20.16-2.7-8.06-3.38-5.24.27,1.46.91,1.68,5.83,7.7,6.05,8.48Z"/>
              <g>
                <path class="cls-27" d="m321.99,166.52c5.62-2.7,22.95-9.85,26.17-12.32.42-.32,1.52-.55,1.64-1.24.09-.53-.56-2.35-.63-3.46-5.76,1.43-25.89-.97-32.39-4.21q-.82,9.27-1.65,18.54c2.1,1.34,4.52,1.95,6.85,2.69Z"/>
                <path class="cls-37" d="m348.16,154.2c-3.23,2.48-20.55,9.62-26.17,12.32,10.38,3.3,23.42,3.64,34.33,4.6-1.43-14.42-3-11.35-5.25-13.32-2.37-2.08-.11-3.89-2.91-3.6Z"/>
                <g>
                  <path class="cls-37" d="m434.78,145.07c-6.61-.31-9.42-8.7-13.01-13.78-6.84,4.33-14.53,6.75-21.98,9.67-5.39-2.55,1.82,6.83-1.4,11.73,2.93,1.21,2.25,6.47,3.32,9.92,9.99-3.76,25.54-10.28,33.07-17.54Z"/>
                  <path class="cls-27" d="m421.78,131.29c3.59,5.08,6.39,13.47,13.01,13.78.11-.11,2.29-1.1,2.23-2.1q-4.28-8.05-8.57-16.1l-.64-.45c-.39-.04-5.15,4.31-6.03,4.87Z"/>
                </g>
                <path class="cls-33" d="m349.17,149.5c.07,1.11.73,2.92.63,3.46-.12.69-1.23.92-1.64,1.24,2.8-.29.54,1.53,2.91,3.6-.05-.25-.21-.63.05-.76,1.43-.73,5.27,2.43.86-9.56-1.27,1.19-1,1.57-2.81,2.02Z"/>
              </g>
              <path class="cls-38" d="m315.84,12.74c-.29.38-.77.96-1.31.99-2.25,4.83-15.45,18.55-10.61,16.61,2.27-.91,10.7-14.91,12.65-17.74l-.72.13Z"/>
              <path class="cls-32" d="m441.35,150.26l-3.86-2.68c-5.79,12.45-10.45,14.44,3.86,2.68Z"/>
              <path class="cls-34" d="m373.36,35.65q8.74,14,17.49,28c.2-.42.04-1.25-.12-1.67-.85-2.33-14.37-21.85-17.37-26.33Z"/>
              <path class="cls-34" d="m437.49,147.58l3.86,2.68c2.24-.78-.91-2.94-2.99-5.09-.78,1.07-.81,2.3-.87,2.41Z"/>
              <path class="cls-31" d="m324.09,127.03l.85,3.6c3,.92,21.67,4.97,23.19,4.02.09-.06.62-2.03.54-2.17-.5-.81-16.11-3.83-18.38-4.34-2.05-.46-4.11-.78-6.19-1.12Z"/>
              <g>
                <path class="cls-38" d="m355.55,133.29c-.89.77-1.99,3.04-3.02,3.94.81,5.77,5.86,36.86,6.75,38.81.77,1.67,5.75,3.71,7.6,3.68,1.51-.02,28.28-4.89,29.68-5.45,1.55-.61,4.05-3.59,4.41-5.51l-6.65-38.26c-6.45-7.22-9.31-3.1-15.49-1.86-6.65,1.34-13.35,2.71-20.17,2.2-.78,1.1-2.12,1.6-3.1,2.45Z"/>
                <g>
                  <path class="cls-35" d="m391.61,164.65c.48-.07.96-.21,1.45-.27.78-.09,2.48-.15,2.6-.1,3.02-3.21-2.03-5.45-2.19-5.8-.79-1.81.92-1.67,1.44-2.33-3.12-.01-2.53-1.05-3.11-4.69-.05-.3-2.3-1.88,1.34-4.95-.68-2.29-1.11-7.97-1.67-9.09-.15-.3-5.02-3.59-5.54-3.68,1.25,9.55,4.68,21.87,5.67,30.92Z"/>
                  <path class="cls-34" d="m358.83,140.96c-1.18.67-1.11,1.54-3.26.6.13,1.32,2.07,14.05,2.78,14.15,7.16-5.67,3.36-7.71,2.34-16.79-1.37,3.25-1.73,1.95-1.87,2.04Z"/>
                  <path class="cls-34" d="m362.62,171.85c.56-.19,1.43-.13,1.81-.33.61-.31,1.74-2.39,2.5-2.71-.04-.11-.03-.25-.07-.36-1.67-1.01-3.17-4.23-5.42-2.01-2.21,2.17,1.1,5.12,1.18,5.42Z"/>
                  <path class="cls-28" d="m355.57,141.56c2.15.94,2.07.08,3.26-.6,1.54-5.38-4.04-7.41-3.26.6Z"/>
                  <path class="cls-34" d="m393.06,164.39c2.11,1.52,1.02,9.16,3.92,6.05,1.13-1.22.28-5.49-1.32-6.15-.12-.05-1.82.01-2.6.1Z"/>
                  <path class="cls-38" d="m391.81,151.46c.58,3.65-.02,4.68,3.11,4.69.44-.56,1.28-.52,1.35-.81.5-2.12-1.97-6.25-4.45-3.88Z"/>
                  <path class="cls-38" d="m362.62,171.85c.17.61,1.08,8.82,2.9,6.61,1.04-1.26-1.32-5.21-1.09-6.94-.38.2-1.25.14-1.81.33Z"/>
                  <g>
                    <path class="cls-31" d="m366.86,168.44c.04.12.03.25.07.36.5,1.42,1.19,3.07,3.02,3.21,2.06.15,17.03-3.52,21.72-3.99.8-.8.09-2.05-.06-3.37-.99-9.05-4.42-21.37-5.67-30.92-2.21-.41-19.2,3.99-24.71,3.97,2.06,8.25,3.74,24.37,5.64,30.74Z"/>
                    <path class="cls-31" d="m364.39,147.84c-1.03.59,2.38,16.5,3.11,18.98q10.39-2,20.78-4-1.68-8.62-3.35-17.24c-1.23-.57-17.23,3.66-20.54,2.26Z"/>
                  </g>
                </g>
              </g>
            </g>
          </g>
        </g>
      </g>
      <g>
        <g>
          <g>
            <g>
              <path class="cls-9" d="m9.19,310.05c-30.83,77.09,40.42,120.08,49.53,114.79-13.14-25.8-12.58-50.24-12.42-67.78.18-19.13,17.62-80.69,36.62-93.76,19.45-13.37,34.38-10.82,35.23-10.66-1.71-.55-76.39-24.01-108.96,57.42Z"/>
              <path class="cls-16" d="m58.72,424.84c1.32,2.59,2.77,5.19,4.38,7.79,18.4,29.83,52.78,7.07,52.78,7.07-4.91-5.8-8.92-14.24-10.43-26.5-5.04-41.07-.39-103.88,4.79-119.64,5.69-17.25,20.74-33.62,21.47-34.12-2.22-3.34-13.54-6.79-13.54-6.79,0,0-.01,0-.03-.01-.85-.15-15.78-2.71-35.23,10.66-19,13.07-36.44,74.63-36.62,93.76-.16,17.54-.72,41.99,12.42,67.78Z"/>
              <path class="cls-12" d="m110.25,293.56c-5.18,15.76-9.83,78.57-4.79,119.64,1.5,12.25,5.52,20.69,10.43,26.5,11.5,13.65,27.88,12.77,27.88,12.77,0,0,12.76,2.28,23.92-7.32,6.83-5.89,13.06-16.24,15.38-34.31,6.13-47.58.03-100.01-7.38-120.9-7.5-21.15-22.82-30.21-22.82-30.21-10.72-4.48-20.72-.43-21.13-.27h-.01s-.01,0-.01-.01c-.73.5-15.78,16.86-21.47,34.12Z"/>
              <path class="cls-36" d="m118.18,252.65s11.32,3.45,13.54,6.79c.02-.02.03-.01.02.01.41-.16,10.41-4.21,21.13.27,0,0,1.07-4.42,7.75-6.56,0,0-19.73-17.98-18.51-26.83s12.28-11,9.73-27.07-9.23-17.27-9.23-17.27c0,0,3.18,15.57,3.14,18.89s-5.62,6.58-13.45,12.03c-7.83,5.45-4.69,21-4.75,25.43s-1.95,13.28-9.37,14.29Z"/>
              <path class="cls-15" d="m131.72,259.44s.01.01.01.02h.01s0-.04-.02-.02Z"/>
              <path class="cls-11" d="m221.7,426.84c9.09-13.96,21.61-44.89,10.13-105.18-12.5-65.55-71.2-68.48-71.2-68.48-6.68,2.13-7.75,6.56-7.75,6.56,0,0,15.32,9.06,22.82,30.21,7.41,20.9,13.51,73.32,7.38,120.9-2.33,18.07-8.55,28.42-15.38,34.31,22.65,4.84,42.71-2.94,51.72-15.03.68-.9,1.39-1.91,2.13-3.03.06-.08.11-.16.16-.25Z"/>
              <path class="cls-17" d="m269.72,304.39c-31.28-70.21-109.1-51.22-109.1-51.22,0,0,58.71,2.94,71.2,68.48,11.48,60.29-1.03,91.22-10.13,105.18,18.78,7.91,79.28-52.28,48.02-122.45Z"/>
            </g>
            <g>
              <path class="cls-1" d="m131.74,259.45c.41-.16,10.41-4.21,21.13.27,0,0,1.07-4.42,7.75-6.56,0,0-19.73-17.98-18.51-26.83s12.28-11,9.73-27.07-9.23-17.27-9.23-17.27c0,0,3.18,15.57,3.14,18.89s-5.62,6.58-13.45,12.03c-7.83,5.45-4.69,21-4.75,25.43s-1.95,13.28-9.37,14.29c0,0,11.32,3.45,13.54,6.79,0,.01.01.01.01.02"/>
              <path class="cls-1" d="m131.73,259.46h.01s0-.04-.02-.02c-.73.5-15.78,16.86-21.47,34.12-5.18,15.76-9.83,78.57-4.79,119.64,1.5,12.25,5.52,20.69,10.43,26.5,11.5,13.65,27.88,12.77,27.88,12.77,0,0,12.76,2.28,23.92-7.32,6.83-5.89,13.06-16.24,15.38-34.31,6.13-47.58.03-100.01-7.38-120.9-7.5-21.15-22.82-30.21-22.82-30.21"/>
              <path class="cls-1" d="m167.69,445.15c22.65,4.84,42.71-2.94,51.72-15.03.68-.9,1.39-1.91,2.13-3.03.06-.08.11-.16.16-.25,9.09-13.96,21.61-44.89,10.13-105.18-12.5-65.55-71.2-68.48-71.2-68.48,0,0,77.82-18.99,109.1,51.22,31.26,70.17-29.24,130.36-48.02,122.45-.01,0-.02-.01-.03-.01"/>
              <path class="cls-1" d="m118.18,252.65s-.01,0-.03-.01c-1.71-.55-76.39-24.01-108.96,57.42-30.83,77.09,40.42,120.08,49.53,114.79.02-.01.03-.01.04-.02"/>
              <path class="cls-1" d="m115.88,439.7s-34.38,22.76-52.78-7.07c-1.61-2.6-3.06-5.2-4.38-7.79-13.14-25.8-12.58-50.24-12.42-67.78.18-19.13,17.62-80.69,36.62-93.76,19.45-13.37,34.38-10.82,35.23-10.66"/>
            </g>
          </g>
          <g>
            <path class="cls-26" d="m112.73,317.42s-32.21,5.15-44.03-24.92c0,0,4.15,68.22,44.03,24.92Z"/>
            <path class="cls-26" d="m175.9,318.2s32.07,5.94,44.63-23.84c0,0-5.82,68.09-44.63,23.84Z"/>
            <path class="cls-26" d="m146.35,332.8s7.58,14.5,10.84,20.08c2.22,3.81-14.77,2.32-20.78,1.29-1.26-.22-2.51-.46-1.39-2.73,2.55-5.16,10.16-17.14,11.33-18.64Z"/>
            <path class="cls-26" d="m222.43,364.77s-12.63,35.31-43.85,50.45c0,0-9.86-8.99-13.15-12.35l-12.39,16.47-10.89-15.65-12.35,13.15s-9.8-14.53-9.77-16.75-11.25,13.16-11.25,13.16c0,0-30.38-13.01-42.25-58.93l17.27,17.61,15.35-17.21s4.56,20.78,8.98,21.94l16.79-13.09,14.18,19.02s18.31-13.18,18.13-15.35l14.02,14.63,17.98-19.73,11.99,16.77s20.06-8.62,21.23-14.15Z"/>
          </g>
        </g>
        <g>
          <path class="cls-31" d="m87.57,252.54q-12.47,16.65-24.94,33.3c39.49,10.01,90.1,2.35,124.9-19.01,10.09-6.51,29.79-19.77,34.48-30.72,3.2-7.46.82-14.24-6.15-18.26-11.79-6.79-35.15-4.34-48.63-3.89-2.19,1.21,7.1.86,10.11,4.23,8.24,9.19-10.73,19.68-17.33,22.85-19.14,9.2-51.44,16.1-72.44,11.5Z"/>
          <path class="cls-26" d="m50.97,246.31c-5.93,1.63-26.89,11.03-28.86,17.13,5.63,12.46,28.25,19.29,40.52,22.4q12.47-16.65,24.94-33.3c-11.41-5.29-24.11-9.67-36.6-6.23Z"/>
          <path class="cls-31" d="m60.26,231.36c1.08,2.75-9.14,4.41-11.91,5.52-8.02,3.2-22.71,9.65-26.25,17.99-1.34,3.16-1.39,5.46.02,8.56,1.97-6.09,22.93-15.5,28.86-17.13,1.31-1.76,5.69-.56,1.6-2.45.85-2.68,13.59-10.1,13.88-10.94.19-.56-.62-2.98-2.87-2.41-1.1.32-2.24.54-3.32.86Z"/>
          <path class="cls-29" d="m74.13,116.33l.56-.1c1.26-1.78,2.69-3.46,3.86-5.31q3.08,2.81,6.16,5.63c2.92-1.13,14.77-3.98,15.95-4.76,3.44-2.29-5.31-2.11-10.97-2.48-3.29-.22-6.56-.59-9.84-.93-2.83,2.9-4.85,6.82-5.72,7.95Z"/>
          <path class="cls-30" d="m71.42,117.37l2.1-2.1.45.07c-.64.64-.64,1.3-.86,1.74.42-.02.8-.46,1.03-.76.87-1.13,2.89-5.05,5.72-7.95,3.28.34,6.55.72,9.84.93,2.11-.79,6.43.61,3.22-1.42-4.17-.4-8.39-.46-12.51-1.35-.97.24-7.71,9.31-8.99,10.83Z"/>
          <g>
            <path class="cls-31" d="m89.69,109.32c5.66.37,14.41.19,10.97,2.48-1.18.78-13.03,3.63-15.95,4.76q-3.08-2.81-6.16-5.63c-1.17,1.85-2.61,3.52-3.86,5.31-1.53,2.17-8.19,12.92-9.96,13.61-3.77,1.46,6.58-9.04,8.37-12.75.21-.45.22-1.1.86-1.74l-.45-.07-2.1,2.1c-3.81,4.52-8.21,8.89-11.03,14.08q7-.47,14-.94,5.76-4.32,11.53-8.65c10.43,2.49,7.04,1.42,4.16,13.37-1.65,6.85-3.62,18.2-4.99,23.21-1.46,5.31-6.83,17.88-6.89,18.89-.08,1.48,1.43,6.04,1.26,9.08-7.64,6.97-4.15,9.27-4.99,13.05-.49,2.18-8.23,10.63-2.96,18.22-2.24,13.52,1.32,10.1-7.92,12.82,2.25-.56,3.06,1.85,2.87,2.41-.29.84-13.03,8.25-13.88,10.94,4.09,1.9-.29.7-1.6,2.45,12.5-3.43,25.19.94,36.6,6.23,21,4.59,53.29-2.31,72.44-11.5,6.6-3.17,25.57-13.66,17.33-22.85-3.02-3.37-12.31-3.01-10.11-4.23,13.47-.46,36.84-2.9,48.63,3.89,6.97,4.02,9.35,10.8,6.15,18.26-4.69,10.95-24.4,24.2-34.48,30.72-34.8,21.37-85.4,29.02-124.9,19.01-12.28-3.11-34.89-9.95-40.52-22.4-1.41-3.11-1.36-5.4-.02-8.56,3.55-8.34,18.24-14.79,26.25-17.99,2.78-1.11,13-2.77,11.91-5.52-15.13,4.47-55.03,17.15-38,39.74,8.26,10.95,28.72,17.86,41.71,20.9,1.84.33,3.79.43,5.62.78,7.81,1.52,15.62,2.98,23.57,3.52l-2.85,1.07c1.98-.24,3.96-.48,5.94-.73,29.34-3.68,42.63-5.93,71.59-12.23,2.69-.58,5.35-1.35,8.05-1.96-1.35-1.42-5.3,1.39-5.97.58,6.35-3.35,13-6.88,19.27-10.7.95-.58,1.96-1.07,2.9-1.66,12.83-8.08,43.39-30.41,32.76-48.43-8.91-15.1-44.31-11.31-58.91-9.97-1.69-2.9-3.92-10.6-6.65-10.19.1-3.68-3.07-5.7-5.42-8.07-1.26-3.23,5.01-4.57-10.4-20.29.5-3.78-6.6-11.21-9.21-16.72l.22-2.07c-10.55-15.4-19.75-31.75-31.2-46.5-3.46-.09-6.91-.23-10.35-.55,3.2,2.03-1.12.63-3.22,1.42Z"/>
            <g>
              <path class="cls-31" d="m101.96,177.78c1.24.95,9.72,6.81,9.66,7.5q-13.71,10.25-27.41,20.51c1.76.42,13.8,2.9,14.18,3.53.06.1-.36,1.63-.44,1.67-1.18.73-15.59-2.59-17.91-3.33l-.62-2.8s.05-.43-.89-.14c.03.78.06,1.53.1,2.31,7.06,3.56,14.14,4.77,22.13,5.22l.57.77c.8-.68,1.68-2.43,2.37-3.02-.43-1.22.47-3.3,1.53-3.75.79-.33,9.38-.17,17.04-1.75,2.47-.51,4.99-3.93,9.42,1l14.34-7.39-.28-.82c-1.34.19.73-.91,1.07-1.34,7.48-9.42-1.56-11.77-4.01-15.87q-7.23,2.11-14.45,4.21c-.45-2.87-.15-2.24,3.81-5.59,2.23-1.88,7.55-4.75,6.75-7.83-12.56.76-24.98,3.03-36.96,6.9Z"/>
              <path class="cls-31" d="m103.71,132.18c.27,2.62-2.36,4.36-3.5,6.55l5.83-.56c8.06,4.25.69,5.08,2.38,13.1-.81,1.93-8.46,13.36-7.94,14.42,3.44,1.84,7.56,3.14,10.49,5.61,7.37-3.15,13.87-6.56,20.29-11.45-10.22-8.17-17.23-19.71-27.55-27.67Z"/>
              <path class="cls-34" d="m87.21,159.1c.29-.07.64,0,.82-.28.5-.81,3.33-14.41,4.04-16.95,1.75-6.26,7.18-21.19,7.86-25.01,1.54-8.62-2.25,2.25-4.43,7.87q-4.14,17.19-8.29,34.37Z"/>
              <path class="cls-38" d="m142.81,180.09c2.45,4.09,11.5,6.45,4.01,15.87-.34.43-2.41,1.53-1.07,1.34,4.09-2.7,7.33-5.58,5.36-10.93-.22-.6-7.77-9.26-8.29-9.62-.91-.62-.89,1.87,0,3.34Z"/>
              <path class="cls-28" d="m71.1,234.74l-2.9,5.87q6.74,1.82,13.48,3.65c-9.01-3.86-4.99-4.04-10.58-9.52Z"/>
              <path class="cls-35" d="m78.64,207.03c-.05-.77-.08-1.53-.1-2.31-.05-1.56.13-12.64.33-13.27.24-.72,1.73-1.45,2.3-3.44-5.59,4.94-3.66,5.48-4.18,11.02-.24,2.54-1.46,5.12-.71,7.67.14.14,1.47-.13,2.37.32Z"/>
              <path class="cls-34" d="m75.3,203.53c-.81,1.95-4.21,9.21-2.92,10.81,11.65.97,11.67,2.37,1.35-2.26-.44-1.34,4.36-1.27,1.57-8.54Z"/>
              <path class="cls-38" d="m153.62,196.83c-.62.01-4.53,4.36-5.67,4.89,2.38-.28,6.27-5.38,7.63-1.01,1.15,3.72-3.31,5.39-5.18,7.71,12.42-4.46,4.04-11.6,3.22-11.58Z"/>
              <path class="cls-38" d="m138.93,170.88c.8,3.08-4.52,5.95-6.75,7.83,11.58-5.89,10.09-6.6,1.96-15.58-2.02-6.26-2.56-4.09.19,1.13.69,1.31,4.44,6.02,4.6,6.62Z"/>
              <g>
                <path class="cls-27" d="m77.42,235.4c4.38-2.04,17.85-7.4,20.37-9.29.32-.24,1.18-.41,1.28-.95.08-.41-.41-1.82-.46-2.68-4.47,1.06-20.03-.99-25.02-3.56l-1.45,14.33c1.62,1.05,3.48,1.55,5.28,2.15Z"/>
                <path class="cls-37" d="m97.8,226.11c-2.52,1.89-16,7.25-20.37,9.29,8,2.65,18.09,3.04,26.52,3.89-.97-11.18-2.21-8.81-3.94-10.36-1.81-1.63-.05-3.01-2.21-2.82Z"/>
                <g>
                  <path class="cls-37" d="m164.92,219.87c-5.11-.31-7.21-6.82-9.93-10.79-5.34,3.29-11.31,5.08-17.1,7.28-4.15-2.03,1.34,5.31-1.2,9.06,2.26.96,1.68,5.03,2.47,7.71,7.77-2.82,19.86-7.71,25.76-13.26Z"/>
                  <path class="cls-27" d="m154.99,209.08c2.73,3.97,4.82,10.48,9.93,10.79.09-.08,1.78-.83,1.75-1.61l-6.48-12.54-.49-.35c-.3-.03-4.03,3.29-4.71,3.71Z"/>
                </g>
                <path class="cls-33" d="m98.62,222.49c.04.86.53,2.27.46,2.68-.1.53-.96.7-1.28.95,2.17-.19.4,1.19,2.21,2.82-.03-.19-.16-.49.04-.59,1.12-.55,4.06,1.93.76-7.39-1,.91-.79,1.2-2.19,1.54Z"/>
              </g>
              <path class="cls-38" d="m74.13,116.33c-.23.29-.61.73-1.03.76-1.78,3.71-12.13,14.21-8.37,12.75,1.77-.68,8.42-11.43,9.96-13.61l-.56.1Z"/>
              <path class="cls-32" d="m169.95,223.95q-1.48-1.05-2.96-2.11c-4.6,9.58-8.22,11.08,2.96,2.11Z"/>
              <path class="cls-34" d="m118.42,134.6l13.27,21.83c.16-.32.04-.96-.08-1.29-.64-1.81-10.91-17.05-13.19-20.54Z"/>
              <path class="cls-34" d="m166.99,221.84q1.48,1.05,2.96,2.11c1.74-.58-.68-2.28-2.27-3.97-.61.82-.65,1.77-.69,1.86Z"/>
              <path class="cls-31" d="m79.43,204.86l.62,2.8c2.31.74,16.72,4.06,17.91,3.33.07-.05.5-1.57.44-1.67-.38-.63-12.43-3.11-14.18-3.53-1.59-.38-3.18-.64-4.78-.93Z"/>
              <g>
                <path class="cls-38" d="m103.71,210c-.69.58-1.57,2.34-2.37,3.02.58,4.47,4.18,28.58,4.85,30.1.58,1.3,4.41,2.93,5.84,2.92,1.17,0,21.93-3.52,23.02-3.93,1.21-.46,3.17-2.74,3.47-4.22l-4.78-29.67c-4.92-5.65-7.18-2.49-11.97-1.58-5.16.97-10.36,1.97-15.63,1.51-.61.84-1.66,1.22-2.43,1.87Z"/>
                <g>
                  <path class="cls-35" d="m131.32,234.61c.38-.05.75-.15,1.12-.19.6-.06,1.92-.09,2.01-.05,2.37-2.45-1.52-4.24-1.64-4.51-.59-1.41.72-1.28,1.14-1.79-2.42-.04-1.95-.83-2.36-3.66-.03-.23-1.77-1.47,1.08-3.81-.5-1.78-.78-6.18-1.21-7.05-.11-.23-3.85-2.82-4.25-2.9.88,7.4,3.41,16.97,4.1,23.98Z"/>
                  <path class="cls-34" d="m106.18,215.97c-.92.51-.87,1.18-2.53.43.09,1.03,1.47,10.89,2.02,10.98,5.6-4.32,2.68-5.93,1.97-12.97-1.09,2.5-1.36,1.5-1.47,1.56Z"/>
                  <path class="cls-34" d="m108.82,239.91c.44-.14,1.11-.09,1.4-.24.47-.24,1.37-1.83,1.96-2.08-.03-.09-.02-.19-.05-.28-1.29-.8-2.42-3.3-4.18-1.61-1.73,1.66.8,3.97.86,4.21Z"/>
                  <path class="cls-28" d="m103.65,216.4c1.66.75,1.6.08,2.53-.43,1.24-4.15-3.06-5.77-2.53.43Z"/>
                  <path class="cls-34" d="m132.44,234.42c1.62,1.19.7,7.1,2.97,4.72.89-.93.27-4.25-.96-4.77-.09-.04-1.41,0-2.01.05Z"/>
                  <path class="cls-38" d="m131.6,224.4c.41,2.83-.06,3.62,2.36,3.66.35-.43.99-.39,1.05-.62.41-1.64-1.46-4.86-3.41-3.05Z"/>
                  <path class="cls-38" d="m108.82,239.91c.13.48.75,6.83,2.18,5.14.81-.96-.97-4.04-.78-5.38-.3.15-.97.1-1.4.24Z"/>
                  <g>
                    <path class="cls-31" d="m112.13,237.31c.03.09.02.19.05.28.37,1.1.89,2.39,2.31,2.51,1.59.14,13.21-2.56,16.85-2.88.62-.61.09-1.59-.01-2.61-.68-7.01-3.22-16.58-4.1-23.98-1.7-.34-14.89,2.91-19.16,2.84,1.52,6.4,2.66,18.9,4.07,23.84Z"/>
                    <path class="cls-31" d="m110.42,221.34c-.8.45,1.69,12.79,2.23,14.72q8.06-1.45,16.12-2.9l-2.43-13.38c-.94-.46-13.37,2.67-15.91,1.56Z"/>
                  </g>
                </g>
              </g>
            </g>
          </g>
        </g>
      </g>
    </g>
  </g>
</svg>