<?xml version="1.0" encoding="UTF-8"?>
<svg id="Layer_2" data-name="Layer 2" xmlns="http://www.w3.org/2000/svg" viewBox="0 0 471.5 553.4">
  <defs>
    <style>
      .cls-1 {
        fill: none;
        stroke: #000;
        stroke-miterlimit: 10;
        stroke-width: 3px;
      }

      .cls-2, .cls-3, .cls-4, .cls-5, .cls-6, .cls-7 {
        stroke-width: 0px;
      }

      .cls-3 {
        fill: #211811;
      }

      .cls-4 {
        fill: #dedede;
      }

      .cls-5 {
        fill: #ca9766;
      }

      .cls-6 {
        fill: #cfac18;
      }

      .cls-7 {
        fill: #fff;
      }
    </style>
  </defs>
  <g id="Layer_2-2" data-name="Layer 2">
    <g>
      <g>
        <g>
          <path class="cls-4" d="m424.69,353.53c.72-.31,24.03-10.41,37.81-34.03,0,0,5,40-45,75l17-7c-.11,19.84-47,62-75,62l-1.11.13c-4.26-36.46-11.42-76.42-23.4-102.27,7.04-2.04,88.21-27,134.79-103.18,0,0,6.06,70.38-45.09,109.35Z"/>
          <path class="cls-7" d="m334.99,347.36c11.98,25.85,19.14,65.81,23.4,102.27,5.34,45.69,6.11,85.87,6.11,85.87-69,33-157,6-157,6,0,0-5.58-38.15-5.97-92.01-.02-1.98-.03-3.97-.03-5.99,0-44.64,15.7-82.08,22.51-96.21,1.89-3.92,3.09-6.05,3.09-6.05,12.79,7.84,26.82,12.79,41.4,12.26,21.05-.77,37.57-13.55,49.93-29.03l.07.03c6.32,4.73,11.77,12.7,16.49,22.86Z"/>
          <path class="cls-5" d="m223.31,232.9c3.9.75,4.9-52.29-17.81-52.4-5.85-.03-14.18,5.22-16.04,12.78-3.57,14.46-1.75,35.1-1.75,35.1,4.43-.74,10.44-1.19,17.51-.33,5.48.67,11.59,2.12,18.09,4.85Zm80.53,4.53c3.63-2.29,4.39-52.3-17.64-52.41-5.85-.03-14.18,5.21-16.05,12.78-3.35,13.6-.09,34.97.31,37.46,4.27-1.23,10.09-2.21,17.03-1.68,4.93.37,10.43,1.5,16.35,3.85Zm47.66-39.27l-4,69.34s-9.14,32-29.07,56.97c-12.36,15.48-28.88,28.26-49.93,29.03-14.58.53-28.61-4.42-41.4-12.26-35.43-21.69-61.4-65.45-63.6-75.74-3-14-7.5-89.5-7.5-89.5,0,0,12.5-39.5,97.75-41.15,85.25-1.65,97.75,63.31,97.75,63.31Z"/>
          <path class="cls-7" d="m286.2,185.02c22.03.11,21.27,50.12,17.64,52.41-5.92-2.35-11.42-3.48-16.35-3.85v-.08s8.62-37.92-17.34-35.7c1.87-7.57,10.2-12.81,16.05-12.78Z"/>
          <path class="cls-3" d="m270.15,197.8c25.96-2.22,17.35,35.7,17.35,35.7v.08c-6.95-.53-12.77.45-17.04,1.68-.4-2.49-3.66-23.86-.31-37.46Z"/>
          <path class="cls-4" d="m135.55,353.53c-51.14-38.97-45.09-109.35-45.09-109.35,48.72,79.68,132.54,102.63,132.54,102.63l1.01.48c-6.81,14.13-22.51,51.57-22.51,96.21,0,2.02.01,4.01.03,5.99h-.79c-28,.01-74.89-42.15-75-61.99l17,7c-50-35-45-75-45-75,13.78,23.62,37.09,33.72,37.81,34.03Z"/>
          <path class="cls-7" d="m205.5,180.5c22.71.11,21.71,53.15,17.81,52.4-6.5-2.73-12.61-4.18-18.09-4.85l.06-.47s10.14-36.51-15.82-34.3c1.86-7.56,10.19-12.81,16.04-12.78Z"/>
          <path class="cls-3" d="m189.46,193.28c25.96-2.21,15.82,34.3,15.82,34.3l-.06.47c-7.07-.86-13.08-.41-17.51.33,0,0-1.82-20.64,1.75-35.1Z"/>
        </g>
        <g>
          <path class="cls-1" d="m318.43,324.47c19.93-24.97,29.07-56.97,29.07-56.97l4-69.34s-12.5-64.96-97.75-63.31c-85.25,1.65-97.75,41.15-97.75,41.15,0,0,4.5,75.5,7.5,89.5,2.2,10.29,28.17,54.05,63.6,75.74,12.79,7.84,26.82,12.79,41.4,12.26,21.05-.77,37.57-13.55,49.93-29.03Z"/>
          <path class="cls-1" d="m179.5,230.5s3.02-1.26,8.21-2.12c4.43-.74,10.44-1.19,17.51-.33,5.48.67,11.59,2.12,18.09,4.85,2.99,1.24,6.06,2.76,9.19,4.6"/>
          <path class="cls-1" d="m187.71,228.38s-1.82-20.64,1.75-35.1c1.86-7.56,10.19-12.81,16.04-12.78,22.71.11,21.71,53.15,17.81,52.4"/>
          <path class="cls-1" d="m205.28,227.58s10.14-36.51-15.82-34.3"/>
          <path class="cls-1" d="m262.5,238.5s2.89-1.79,7.96-3.24c4.27-1.23,10.09-2.21,17.03-1.68,4.93.37,10.43,1.5,16.35,3.85,3.02,1.19,6.14,2.7,9.36,4.59"/>
          <path class="cls-1" d="m270.5,235.5s-.01-.08-.04-.24c-.4-2.49-3.66-23.86-.31-37.46,1.87-7.57,10.2-12.81,16.05-12.78,22.03.11,21.27,50.12,17.64,52.41-.11.07-.22.09-.34.07"/>
          <path class="cls-1" d="m287.5,233.5s8.61-37.92-17.35-35.7"/>
          <path class="cls-1" d="m248.5,304.5s21.7,2.08,40-5c10.24-3.96,18.55-13.08,23.5-21.5"/>
          <path class="cls-1" d="m227.1,341.24s-1.2,2.13-3.09,6.05c-6.81,14.13-22.51,51.57-22.51,96.21,0,2.02.01,4.01.03,5.99.39,53.86,5.97,92.01,5.97,92.01,0,0,88,27,157-6,0,0-.77-40.18-6.11-85.87-4.26-36.46-11.42-76.42-23.4-102.27-4.72-10.16-10.17-18.13-16.49-22.86"/>
          <path class="cls-1" d="m424.67,353.54s.01,0,.02-.01c.72-.31,24.03-10.41,37.81-34.03,0,0,5,40-45,75l17-7c-.11,19.84-47,62-75,62"/>
          <path class="cls-1" d="m334.5,347.5s.17-.05.49-.14c7.04-2.04,88.21-27,134.79-103.18,0,0,6.06,70.38-45.09,109.35"/>
          <path class="cls-1" d="m135.57,353.54s0,0-.02-.01c-.72-.31-24.03-10.41-37.81-34.03,0,0-5,40,45,75l-17-7c.11,19.84,47,62,75,62"/>
          <path class="cls-1" d="m223,346.81s-83.82-22.95-132.54-102.63c0,0-6.05,70.38,45.09,109.35"/>
        </g>
      </g>
      <path class="cls-2" d="m158.01,154.28c-2.79.81-4.38,3.32-4.7,6.1-.35,3.05.99,5.9,3.28,7.89,2.49,2.15,5.9,3.62,9.11,4.29,2.73.58,6.37.34,7.39-2.79.96-2.96-1.66-5.15-4.2-5.97-2.7-.88-6.28-.54-8.41,1.49-2.27,2.16-1.42,5.56,1.38,6.7,2.96,1.2,5.93-.75,6.16-3.91.28-3.88-3.3-6.48-6.93-6.02-4.26.54-6.74,4.19-8.13,7.92-.24.64.17,1.35.69,1.69,2.58,1.7,6.4.73,7.75-2.09s-.41-6.38-3.35-7.35l-.8,2.89c6.19,1.18,14.13,2.17,18.03-4.02,1.39-2.21,1.99-5.1.97-7.57s-3.62-4.1-6.34-4.02c-2.89.08-5.64,1.65-7.64,3.65s-4.07,5.13-2.52,7.86c1.33,2.34,4.72,3.18,7.01,1.8,2.54-1.52,3.35-4.98,2.46-7.68-1.03-3.1-3.85-5.25-6.73-6.54-3.08-1.39-6.73-1.98-9.81-.25-2.75,1.54-4.46,4.69-3.54,7.82.76,2.57,2.93,4.61,5.54,5.18,4.88,1.07,10.42-2.04,11.95-6.82,1.92-6.01-2.19-12.33-7.24-15.3-4.61-2.71-11.89-3.31-15.63,1.23-1.98,2.41-2.41,5.76-1.35,8.66,1.15,3.13,3.74,5.34,6.86,6.37,1.54.51,3.18.69,4.8.61,1.19-.06,2.12-1.67,1.06-2.56-4.27-3.59-10.34-4.68-15.6-2.75-2.65.97-5.08,2.61-6.65,4.99-1.48,2.24-2.16,5.32-.72,7.75,1.56,2.63,5.14,3.88,7.95,4.57,3.17.78,6.46.87,9.67.31,1.23-.21,3.47-.42,4.19-1.55.66-1.04.44-2.61-.09-3.63-1.08-2.07-3.75-3.38-6.04-2.77-2.46.66-3.83,3.21-3.81,5.63.01,2.68,1.53,5.06,3.87,6.32,5.53,2.96,12.64.09,16.7-4.09,1.96-2.01,2.89-4.96.75-7.22-1.7-1.79-4.6-2.29-6.68-.88s-2.93,4.24-2.39,6.68c.6,2.71,2.96,4.64,5.5,5.49,5.81,1.94,13.52-2.23,11.91-9.03-.66-2.77-3.12-4.94-6.04-4.62-2.76.3-5.26,2.5-5.16,5.41.02.66.45,1.27,1.1,1.45,5.74,1.55,11.89,1.43,17.58-.32,2.76-.85,5.44-2.07,7.86-3.64,2.23-1.45,5.02-3.31,5.89-5.96s-.62-5.52-2.85-7.08c-2.34-1.64-5.91-2.07-8.71-1.86-2.2.17-5.11,1.22-5.06,3.88.05,2.92,3.91,4.23,6.17,4.99,2.75.93,5.89.87,8.01-1.35,1.91-2,2.05-4.87.08-6.88s-5.22-3.37-8.01-3.99-5.66-.84-8.22.27c-2.17.93-3.89,3.18-3.01,5.61.7,1.94,2.94,2.95,4.9,2.85,2.32-.13,4.08-1.84,4.29-4.15s-1.25-4.76-3.3-5.89c-4.99-2.73-12.04,2.53-11.62,7.99.44,5.79,7.68,5.7,11.84,4.78,5.31-1.17,11.09-4.85,10.52-11.05-.6-6.49-9.07-8.36-14.4-8.31-4.65.04-10.83,2.34-11.7,7.56-.82,4.96,4.1,8.47,8.69,7.78,5.18-.79,7.39-6.74,6.01-11.33-1.61-5.35-7.46-8.12-12.75-7.83-2.7.15-5.47,1.08-6.66,3.71-1,2.21-.7,4.94.69,6.92,3.29,4.69,10.88,4.25,14.56.31,1.94-2.07,2.64-4.92,1.43-7.55-1.13-2.48-3.54-4.35-5.87-5.66-4.69-2.63-10.38-3.31-15.59-2.06-2.6.62-5.07,1.76-7.21,3.36-.92.68-1,1.92,0,2.59,3.76,2.52,8.23,3.86,12.75,3.95s9.25-.94,12.8-3.51c1.73-1.25,2.7-3.27,1.77-5.34s-2.94-3.1-4.9-3.77c-4.2-1.44-8.88-1.47-13.14-.28-4.02,1.13-8.6,3.54-10.73,7.3-1.1,1.93-1.36,4.27-.17,6.23,1.02,1.69,2.85,2.69,4.68,3.25,4.18,1.28,9.08.87,13.22-.37s8.56-3.64,11.5-7.03c1.38-1.59,2.32-3.63,1.55-5.73-.67-1.82-2.39-2.93-4.17-3.48-3.88-1.21-8.54.04-11.96,2.01s-7.87,6.05-7.7,10.42,4.66,6.35,8.3,6.89c4.56.67,10.2.17,14.08-2.56,3.09-2.17,5.99-6.76,2.69-10.08-1.54-1.55-3.91-2-5.99-2.25s-4.32-.15-6.44.27c-4.31.85-8.55,3.16-11.37,6.56-1.37,1.65-2.26,3.69-1.72,5.85.45,1.79,1.8,3.18,3.3,4.17,3.46,2.29,8.08,2.67,12.11,2.73,8.77.14,17.63-2.55,24.84-7.54,1.84-1.28,3.59-2.69,5.21-4.25.68-.66,1.86-1.52,2.13-2.46.26-.89-.44-2.06-.94-2.76-2.19-3.05-6.49-3.67-9.98-3.66-9.02.02-18.75,1.36-26.49,6.31-3.53,2.26-7.89,5.87-7.68,10.52s5.26,6.9,9.35,7.55c4.52.71,9.22-.03,13.27-2.18,1.91-1.01,3.96-2.38,4.91-4.4s.56-4.11-.74-5.79c-3.03-3.94-8.9-3.32-13.23-2.47-2.09.41-4.17,1.38-5.3,3.27-1.03,1.73-1.19,4.04.14,5.65,1.43,1.74,3.94,2.08,6.04,2.34,2.26.28,4.52.2,6.76-.16,4.34-.68,8.46-2.58,11.83-5.4,1.65-1.38,3.45-3.14,3.36-5.47-.08-2.07-1.61-3.69-3.31-4.69-4.09-2.41-9.65-2.63-14.17-1.56-4.08.96-8.79,3.4-9.93,7.79-1.04,3.99,1.47,7.47,4.79,9.41,3.66,2.15,8.07,2.63,12.25,2.43,4.69-.23,9.29-1.43,13.5-3.51,2.13-1.05,4.12-2.35,5.97-3.84,1.7-1.37,3.4-3.18,3.61-5.47.46-4.86-5.55-6.82-9.36-7.28-4.33-.52-8.84.61-12.4,3.14-.86.61-.94,1.55-.3,2.36,2.69,3.41,6.97,4.65,11.05,5.51s8.64,1.39,11.87,4.23l1.82-2.36c-7.58-3.41-16.22-3.9-24.09-1.14-1.31.46-1.38,1.95-.36,2.74,6.29,4.84,16,5.43,20.81-1.78,1.96-2.94,2.38-6.8.61-9.93-1.63-2.89-4.97-5.09-8.36-4.85-1.69.12-3.56.77-4.55,2.23s-.83,3.17.03,4.6c2.01,3.34,6.25,4.33,9.84,4.75,4.11.48,8.38-.11,12.21-1.68,3.1-1.27,7.99-3.67,7.69-7.71s-5.3-5.23-8.52-5.7c-3.87-.57-7.89-.19-11.57,1.16-3.43,1.27-7.08,3.31-9.02,6.53s-1.56,7.34,2.41,8.51c3.58,1.06,8.11.05,11.48-1.31,3.68-1.49,7.07-3.86,9.48-7.04,2.23-2.94,3.7-7.21,1.65-10.64-1.85-3.1-5.86-4.25-9.28-4.14-3.23.1-6.78,1.43-8.78,4.07-2.18,2.88-1.39,6.66,1.33,8.9,3.22,2.66,7.85,3.67,11.94,3.6,2.17-.04,4.36-.39,6.42-1.08,1.67-.56,3.48-1.34,4.33-2.99,1.94-3.77-2.83-6.3-5.64-7.38-3.16-1.22-6.68-1.63-10.05-1.32-6.8.64-13.3,4.02-17.24,9.67-2.27,3.25-3.54,7.46-1.04,10.95,2.27,3.17,6.18,4.35,9.92,3.6s7.82-3.57,9.29-7.25-.4-7.32-3.62-9.13-7.36-1.16-10.34,1.13-5.71,6.53-4.95,10.52c.63,3.29,3.79,5.53,6.94,6.08,3.85.67,7.42-1.06,10.31-3.49,2.72-2.28,5.66-5.35,6.32-8.97.72-3.94-2.15-6.49-6.01-6.07s-7.68,2.09-10.72,4.64-5.57,6.15-5.58,10.15c-.02,7.49,9.05,10.78,15.32,9.65,2.92-.53,6.19-2.24,6.92-5.37.91-3.92-2.38-6.93-5.68-8.28-3.6-1.47-7.8-1.55-11.47-.29s-7.23,3.7-8.25,7.46c-1.09,4,2.03,7.39,5.82,8.12,3.33.65,6.63-.68,9.03-2.99s4.09-5.81,4.18-9.28-1.59-6.96-3.91-9.55-5.7-4.6-9.12-5.75c-3.6-1.21-7.97-1.83-11.63-.52-3.33,1.2-6.01,4.21-5.91,7.9.11,3.89,3.4,6.03,6.96,6.4s7.6-.63,10.97-1.97c3.59-1.42,6.89-3.43,9.77-6,5.07-4.52,11.67-13.75,5.56-20.04-5.07-5.21-13.85-3.74-19.64-.78-3.27,1.67-6.18,4.09-8.44,6.99s-4.92,7.07-4.09,10.77c.89,3.96,5.55,5.11,8.98,4.06,2.02-.62,3.85-1.77,5.62-2.89s3.45-2.31,4.99-3.7c3.08-2.78,5.34-6.45,5.67-10.65.3-3.9-1.52-7.43-4.65-9.69-6.23-4.49-15.36-3.42-21.5.65-3.09,2.04-6.56,5.27-7,9.16-.48,4.2,3.31,6.33,6.93,6.8,4.11.54,8.45.07,12.44-1.03s8.11-2.89,11.28-5.55c3.53-2.96.76-6.94-1.78-9.47-2.25-2.24-5.02-3.89-7.99-4.97-6-2.18-12.94-1.9-18.66.96-2.9,1.45-5.92,3.73-7.19,6.81-.69,1.67-.74,3.61.45,5.07,1.31,1.62,3.52,1.88,5.44,2.22,4.19.75,8.77,1.16,12.67-.93,3.14-1.69,5.74-5.08,5.41-8.79-.66-7.36-8.92-10.51-15.3-9.52s-13.1,6.25-13.75,13.25c-.31,3.34,1.37,6.66,4.72,7.58,2.83.78,5.9-.27,6.96-3.14.24-.64-.17-1.35-.69-1.69-4.04-2.69-9.35-2.97-13.72-.89s-6.93,6.4-7.4,11c-.42,4.14,1.36,10.36,6.28,10.88,2.01.21,4.19-.91,5.02-2.79,1.03-2.32-.46-4.55-2.44-5.75-3.92-2.37-9.57-1.9-12.81,1.43-3,3.08-3.4,8.37-.69,11.76,2.49,3.1,7.4,3.58,10.6,1.28,1.76-1.27,2.98-3.38,2.77-5.6s-1.85-3.82-3.82-4.64c-4.12-1.71-8.9-.04-11.66,3.32-2.98,3.64-2.65,8.4,1.31,11.16s10.04,3.8,14.99,3.44c2.63-.19,5.24-.73,7.71-1.67,2.13-.82,4.89-1.86,6.07-3.96,1.25-2.23-.08-4.56-1.91-5.93-1.97-1.47-4.56-2.3-7-2.5-4.57-.38-8.73,2.37-9.57,6.97-.72,3.99.99,8.2,4.81,9.9s8.65.73,11.42-2.37c2.95-3.3,3.06-8.33.95-12.09-2.32-4.13-7.09-5.88-11.63-5.14-2.26.37-4.53,1.42-6.15,3.05s-2.52,4.32-.8,6.27c1.34,1.51,3.52,1.85,5.44,1.84,2.48-.02,4.97-.32,7.4-.78,9.71-1.85,18.88-7.04,25.36-14.52,3.13-3.61,6.49-8.67,3.48-13.39-2.59-4.06-7.79-5.32-12.22-4s-9.1,4.74-11.06,9c-.87,1.89-1.31,4.15-.31,6.08,1.14,2.22,3.58,2.98,5.93,3.03,9.82.21,20.21-5.15,25.77-13.23,1.41-2.05,2.36-4.64,1.58-7.12-.69-2.18-2.46-3.89-4.53-4.8-2.49-1.1-5.28-.97-7.88-.36-2.36.56-4.77,1.43-6.75,2.87-1.72,1.24-3.24,2.92-3.56,5.09-.29,1.97.45,3.98,1.98,5.25,3.21,2.66,8.05,2.13,11.75.99,4.72-1.46,9.33-4.55,9.92-9.85s-4.17-8.63-8.87-9.69-10-.23-14.11,2.46c-3.8,2.48-7.28,7.31-5.71,12.06,1.44,4.36,6.21,5.95,10.4,6.07,5.21.15,10.54-1.33,15.07-3.85,4.11-2.28,9.24-6.1,9.31-11.3s-4.85-8.37-9.47-8.8c-5.02-.46-10.38,1.49-14.83,3.65-4.17,2.02-8,4.76-11.31,7.99s-6.2,7.11-8.31,11.3c-1.74,3.46-5.12,9.94-.12,12.26,4.05,1.88,9.56-.28,13.14-2.31,2.12-1.2,4.08-2.74,5.74-4.53s3.5-4.06,3.54-6.62c.08-5.27-6.83-7.27-10.99-7.66-4.71-.44-10.73.91-14,4.57-1.48,1.66-2.14,3.95-1.17,6.04.81,1.76,2.57,2.81,4.33,3.43,4.26,1.49,9.37.5,13.64-.47,9.71-2.19,18.8-7.32,25.66-14.54,3.28-3.45,6.99-7.96,6.8-13.02-.2-5.32-5-8.14-9.62-9.4-4.97-1.36-10.44-1.11-15.26.72-3.78,1.44-10.7,5.44-7.55,10.47,1.26,2.01,3.83,2.77,5.98,3.38,2.66.74,5.43,1.16,8.19,1.27,5.43.21,11.09-.79,16.01-3.14,3.93-1.87,8.16-5.74,7.44-10.52-.76-5.06-6.27-7.14-10.79-6.41-2.66.43-5.22,1.65-7.51,3.03-2.15,1.3-4.13,2.93-5.53,5.04-2.71,4.09-2.31,9.7,1.84,12.62,2.1,1.48,4.82,2.24,7.31,2.73,2.77.55,5.61.72,8.42.47,4.76-.43,10.56-1.82,13.82-5.63s2.03-8.9-1.75-11.89-9.14-3.74-13.9-2.93c-9.88,1.67-17.28,11.03-16.48,21.07.34,4.34,2.88,9.42,7.98,8.78,2.06-.26,3.88-1.54,4.41-3.61.61-2.36-.67-4.82-2-6.68-4.79-6.67-13.67-9.62-21.6-7.89-4.2.92-8.25,3.31-10.63,6.95-2.81,4.3-1.74,9.48,2.5,12.34s10.42,2.16,14.95.23c3.86-1.64,7.83-5.36,6.08-9.95-1.77-4.64-7.81-6.9-12.34-7.43s-10.64.24-12.96,4.52c-2.56,4.72,2.32,8.32,6.19,9.8,5.31,2.03,11.04,3.11,16.71,3.35,5.35.23,10.79-.31,15.97-1.68,4.31-1.14,8.54-3.25,10.31-7.58.26-.64-.19-1.34-.69-1.69-3.76-2.64-8.79-3.46-13.17-2.01-3.94,1.3-7.76,4.82-7.39,9.3.67,8.07,11.53,9.74,17.82,8.53,3.57-.69,7.45-2.4,9.37-5.66s1.18-7.35-1.47-9.97c-6.25-6.19-16.49-3.89-22.65,1.11-3.26,2.65-7.13,7.38-6.17,11.88.81,3.77,4.74,5.33,8.19,5.66,4.24.41,8.66-1.04,12.51-2.7,4.29-1.85,8.24-4.51,11.56-7.79,3.08-3.04,6.98-7.83,3.92-12.2-2.4-3.44-7.11-4.44-10.99-3.38-7.46,2.04-12.67,11.04-7.98,17.98,4.06,6.02,13.46,8.15,18.95,2.82,3.35-3.25,3.15-7.95.08-11.29s-7.53-4.53-11.82-4.53c-8.76,0-18.35,5.73-20.34,14.71-.88,3.96.09,8.1,3.05,10.95,2.62,2.52,6.24,3.76,9.81,4s7.71-.66,10.73-2.91c3.52-2.62,5.19-7.28,1.82-10.79-3.03-3.15-7.84-3.34-11.63-1.6s-6.68,5.56-7.1,9.77,1.56,8.35,4.71,10.98,7.6,3.6,11.71,2.47,7.53-3.91,9.1-7.71c1.32-3.21,1.22-7.63-1.46-10.15-3.23-3.04-8.15-1.69-10.84,1.38s-3.39,7.34-1.84,10.97c1.83,4.3,6.53,5.35,10.8,4.81s8.49-2.85,10.22-6.97c1.55-3.69.95-8.43-2.39-10.95-2.93-2.22-7.26-2.06-10.27-.06-3.36,2.23-4.52,6.45-3.3,10.22,1.27,3.9,4.57,6.63,8.67,6.97s7.88-1.69,10.2-4.89c.59-.82-.05-1.94-.9-2.2-3.26-1.02-7.37-1.92-10,.95-2.17,2.38-1.98,5.9.95,7.54,5.48,3.06,13.03,1.18,16.96-3.51.58-.69.63-1.89-.3-2.36-4.92-2.48-10.89-1.58-15.18,1.76-2.02,1.58-3.6,3.69-4.41,6.14-.97,2.94.01,6.24,3.36,6.83,4.24.74,14.04-3.4,10.99-9.05-1.56-2.89-5.96-3.86-8.92-4.33-3.36-.53-7.01-.5-10.27.57-2.65.88-5.27,2.64-5.97,5.52-.74,3.04.93,6.1,3.34,7.89,2.7,1.99,6.25,2.24,9.49,2.07,3.04-.17,6.61-.46,8.59-3.1s1.37-6.08-.38-8.51c-1.91-2.64-4.97-4.24-7.83-5.63-5.77-2.81-13.41-4.32-18.38.9-4.48,4.7-2.35,11.97,2.91,15.08s13.62,2.21,18.66-1.47c2.49-1.82,4.24-4.39,4.58-7.5.29-2.7-.58-5.6-2.75-7.34-4.14-3.3-11.56-.35-10.66,5.39.98,6.24,9.46,7.82,14.53,8.3,6.93.66,14.04-.7,20.27-3.81,2.73-1.37,5.42-3.5,4.6-6.92-.64-2.68-3.13-4.67-5.83-4.92-3.49-.32-6.71,1.75-9.09,4.09s-4.16,5.18-5.32,8.29c-.98,2.65-1.92,6.17-.67,8.87,1.55,3.35,5.35,2.9,8.15,1.59,5.18-2.42,10.6-8.34,8.21-14.45-1.94-4.97-7.72-6.44-12.56-6.07-5.85.45-12.99,3.25-15.12,9.2-1.01,2.82-.68,6.14,1.37,8.42,2.15,2.4,5.75,3.31,8.86,3.39s6.45-.88,8.8-3.08,3.54-5.25,3.11-8.31c-.91-6.52-8.5-9.77-14.39-9.27-6.59.57-11.95,4.89-14.45,10.94-1.99,4.8-3.2,14.11,3.62,15.6,2.67.58,5.57-.28,7.57-2.12,2.37-2.19,3.41-5.45,3.88-8.55.92-6.19.52-14.25-6.08-17.17-5.68-2.51-10.99,2.18-11.05,7.96s5.76,9.81,11.26,10.16c6.72.42,12.94-4,17.61-8.36s8.5-9.95,9.27-16.38c.67-5.62-1.25-11.91-5.74-15.56-9.96-8.1-26.52,1-28.64,12.66-.57,3.15.1,6.29,2.22,8.73,1.9,2.19,4.72,3.47,7.48,4.19,6.11,1.58,12.95,1.12,18.71-1.45s9.76-7.12,11.18-13.03c1.28-5.34.23-11.7-4.11-15.44-3.64-3.15-9.05-3.96-13.56-2.38-5.14,1.79-8.34,6.49-7.61,11.98.85,6.47,6.14,11.13,12.25,12.68,5.27,1.34,13.1,1.46,17.24-2.76,1.99-2.02,2.58-5,1.45-7.6s-3.46-4.31-5.84-5.53c-3.07-1.58-6.58-2.49-9.98-2.95s-7.13-.29-10.4,1.17c-5.2,2.31-9.51,8.22-7.18,14.01,2.07,5.15,8.87,8.36,13.28,3.9,3.77-3.8,3.2-10.35-.55-13.92-4.21-4-11.27-4.84-16.54-2.67-2.44,1.01-4.84,2.69-6.01,5.14s-.88,5.33.82,7.45c3.22,4.01,9.79,4.07,14.25,2.52,5.17-1.79,11.24-6.72,9.31-12.9-.87-2.78-3.19-4.8-5.85-5.83-3.47-1.36-7.33-.8-10.82.16-6.06,1.66-13.14,4.57-14.71,11.38-.7,3.03-.06,6.29,2.24,8.49s5.35,2.96,8.34,3.13c3.2.19,6.59-.51,8.97-2.79,1.89-1.81,2.83-4.34,3.06-6.9.51-5.69-2.83-10.8-7.85-13.29-5.81-2.88-12.73-2.66-18.89-1.13-3.44.86-6.79,2.21-9.87,3.97-2.73,1.56-5.42,3.4-7.32,5.94-1.65,2.2-2.96,5.2-2.02,7.96,1.03,3.06,4.14,4.2,7.11,4.29,6.42.19,13.11-1.74,18.86-4.47s11.4-6.83,15.31-11.96c3.6-4.71,5.97-12.13.69-16.63-4.34-3.7-11.5-3.71-16.55-1.6-2.36.98-4.61,2.58-5.69,4.97-1.26,2.78-.63,5.84,1.19,8.21,1.92,2.5,4.7,4.08,7.56,5.29,3.3,1.39,6.79,2.24,10.36,2.56s7.2.08,10.69-.71c2.76-.62,5.89-1.56,7.62-3.97,4.42-6.16-4.78-11.88-9.46-13.84-5.79-2.42-12.38-2.92-18.47-1.34-2.97.77-5.89,1.98-8.18,4.06s-3.98,5-3.14,8.03,4.03,4.61,6.95,5.42c3.14.87,6.43,1.31,9.69,1.34,6.8.05,13.64-1.7,19.53-5.09,2.61-1.5,5.47-3.35,7-6.03,1.63-2.85,1.11-6.06-.87-8.59-2.08-2.66-5.2-4.38-8.26-5.66-3.27-1.37-6.75-2.15-10.29-2.32-4.75-.22-12.37,1.9-11.15,8.16,1.11,5.65,9.02,6.95,13.73,6.66,2.65-.16,5.36-.82,7.48-2.5,2.26-1.79,3.41-4.62,3.04-7.48-.76-5.96-6.39-10.06-11.72-11.81-5.01-1.64-10.58-1.53-15.6,0s-9.88,4.64-13.16,8.95c-1.75,2.3-3.27,5.06-3.55,7.98-.32,3.39,1.59,6.09,4.53,7.58,5.3,2.7,11.86,3.16,17.66,2.32,6.16-.89,11.94-3.52,16.68-7.55.75-.64.47-1.9-.3-2.36-9.25-5.46-20.31-8.63-31.1-8.1-4.9.24-9.93,1.39-13.91,4.39-3.75,2.83-6.39,7.85-2.66,11.85,3.21,3.45,8.95,4.31,13.38,4.81,5.43.62,11.03.15,16.29-1.34,4.23-1.2,9.55-3.09,11.59-7.36,2.15-4.5-.97-8.72-4.8-10.95-5.03-2.93-11.72-4.17-17.31-2.23-4.83,1.68-8.94,5.72-9.83,10.87-.12.67.08,1.33.69,1.69,14.17,8.49,32.42,9.07,47.26,1.95,3.52-1.69,7.44-3.81,9.86-6.95,2.7-3.5,1.91-7.69-1.49-10.38-6.73-5.32-16.61-3.02-21.87,3.21-5.12,6.08-6.56,14.84-3.3,22.14,3.06,6.85,10.49,10.73,17.84,8.82,1.65-.43,3.23-1.16,4.58-2.19s3.07-2.38,2.54-4.2c-.97-3.34-3.56-6.15-6.6-7.75s-6.64-2.18-9.92-1.14-5.72,3.46-7.05,6.52-1.6,6.53-.45,9.62c1.39,3.73,4.62,6.05,8.31,7.29,8.01,2.68,18.16.64,22.26-7.39.91-1.78,1.41-3.67,1.5-5.66.02-.48-.29-1.09-.74-1.3-5.52-2.53-11.55-.72-16.43,2.41s-9.47,7.55-11.4,13.1c-1.63,4.68-.86,10.54,2.82,14.08,3.36,3.24,8.81,3.53,12.54.71,4.6-3.48,3.52-10.25.24-14.31-1.58-1.96-4.04-3.31-6.61-2.68s-4.23,2.82-4.71,5.24c-1.12,5.67,4.44,10.29,9.48,11.27s11.02-.92,13.38-5.91,1.16-11.56-4.14-13.87c-4.64-2.02-10.49-.12-12.44,4.68-.2.49.04,1.11.39,1.46,4.44,4.57,10.37,7.63,16.69,8.52,2.89.41,6.47.76,9.1-.82,1.97-1.19,2.86-3.39,2.58-5.63-.6-4.82-5.76-8.02-10.05-5.06s-4.83,9.51-.74,12.98,10.85,3.24,14.54-.9c1.91-2.15,2.74-5.04,1.95-7.85-.73-2.6-2.83-4.71-5.55-5.12-5.25-.8-10.03,4.35-11.06,9.12-.56,2.58-.3,5.86,2.31,7.24,2.27,1.2,4.92-.11,6.31-2.03,1.84-2.55,1.15-5.74-.95-7.9-2.21-2.27-5.47-3.23-8.56-3.44-6.41-.44-12.72,2.67-16.46,7.84-.38.52-.21,1.39.23,1.82,2.63,2.52,5.77,4.82,9.43,5.47,3.12.55,6.4-.13,8.87-2.18,2.31-1.92,3.34-4.97,2.46-7.87s-3.14-4.94-6.11-5.04c-.52-.02-1.04.3-1.3.74-2.41,4.14-3.5,9.05-2.83,13.81.28,1.95,1.05,3.98,2.85,5,1.44.83,3.23.78,4.75.19,3.39-1.33,5.27-5.03,3.52-8.4-1.63-3.16-5.82-4.71-9.17-3.7-4.47,1.36-6.83,6.22-6.71,10.64.02.68.46,1.24,1.1,1.45,6.29,1.97,14.21.74,17-6,1.16-2.81.85-5.95-1.04-8.36s-4.76-3.57-7.7-2.89c-1.04.24-1.25,1.36-.9,2.2,3.87,9.13,16.67,12.74,24.78,7.09.58-.4.84-1,.69-1.69-1.1-5.19-4.89-9.53-9.82-11.44s-11.21-.75-15.41,2.72c-1.06.88-1.81,1.64-1.93,3.06-.11,1.33.21,2.66.78,3.85,1.22,2.55,3.73,4.31,6.47,4.89,5.34,1.12,11.99-1.13,15.47-5.37,3.04-3.7,3.36-9.6-.51-12.91-1.85-1.58-4.32-2.08-6.56-1.07-1.94.87-3.54,2.72-3.99,4.82-.24,1.12-.14,2.29.36,3.32.66,1.36,2.15,2.09,3.35,2.93.63.44,1.12.88,1.94.7.52-.12,1.08-.49,1.54-.76,1.09-.67,2.06-1.53,2.87-2.52,3.21-3.95,3.9-9.47,1.79-14.1s-7.07-8.2-12.2-9.1c-5.92-1.03-12.19.72-17.06,4.17-2.3,1.64-4.38,3.77-5.16,6.56-.65,2.35-.24,4.81.84,6.96,2.3,4.57,7.49,7.56,12.54,7.62s10.58-2.57,11.72-7.86-2.29-10.6-6.49-13.57c-3.74-2.64-8.64-3.7-13.15-3.05-2.15.31-4.27,1.04-6.05,2.3s-3.9,3.2-3.81,5.44c.25,6.24,6.83,8.99,12.24,8.71s11.63-2.41,12.84-8.45c1.05-5.22-1.7-10.41-6.45-12.71-5.15-2.49-11.07-1.74-15.99.93-2.51,1.36-4.76,3.17-6.81,5.15-.43.41-.63,1.3-.23,1.82,5.6,7.31,15.82,10.79,24.64,7.68,4.23-1.49,7.73-4.8,7.22-9.59-.44-4.06-3.29-7.71-7.13-9.1-5.49-1.98-11.49.48-15.75,4-.62.51-.54,1.6,0,2.12,8.91,8.63,24.05,9.64,33.91,2.03.59-.45,1.07-1.34.54-2.05-6.84-9.23-20.22-12-30.44-6.97-1.31.64-2.53,1.43-3.68,2.33-.48.38-1.15.8-1.46,1.34-.41.69-.41,1.81-.4,2.59.08,3.27,1.9,6.37,4.42,8.39,2.83,2.26,6.37,3.3,9.89,3.88,3.06.5,6.14.73,9.23.32,5.75-.78,11.31-4.57,10.95-11-.4-7.08-6.54-11.54-13.13-12.38-6.21-.79-13.34.85-17.71,5.59-1.9,2.07-3.17,4.76-2.89,7.62.08.79.14,1.64.87,2.11s1.84.76,2.69,1.09c1.86.71,3.75,1.35,5.69,1.79,3.65.82,7.7,1.05,11.23-.36,2.7-1.08,5-3.06,6.51-5.55s2.13-5.28,1.41-7.99c-.84-3.18-3.49-5.35-6.41-6.58-6.41-2.69-14.13-2.18-20.45.49-5.46,2.31-13.03,8.01-10.73,14.95,1.08,3.27,4.11,5.17,7.11,6.47,3.64,1.58,7.47,2.63,11.4,3.21,7.58,1.13,15.63,1.04,23.16-.47,6.98-1.4,13.72-4.79,17.57-11,3.5-5.67,3.49-12.77-.94-17.93-2-2.33-4.81-3.95-7.87-4.29-3.5-.39-7.03,1.14-9.85,3.1-5.09,3.53-9.49,10.32-6.09,16.47,1.35,2.45,3.86,4.5,6.66,4.99,1.43.25,2.85.12,4.18-.46,1.58-.69,1.95-2.68,2.12-4.25.73-6.97-5.57-12.93-10.54-16.82-5.27-4.12-12.1-7.62-18.85-5.04-5.61,2.15-9.4,7.95-6.75,13.84,2.41,5.36,8.84,8.17,14.35,8.85s12.21-.59,14.38-6.12c2.62-6.67-4.15-12.41-9.57-14.78-6.37-2.78-13.97-3.91-20.39-.62-4.97,2.55-8.33,8.45-7.77,14.05.28,2.82,1.51,5.44,3.71,7.27,2.67,2.22,6.06,3.09,9.44,3.49,6.02.71,12.9.26,18.14-3.08,1.26-.8,2.44-1.77,3.41-2.91.47-.56,1.18-1.25,1.19-2.03s-.53-1.75-.85-2.44c-1.29-2.86-3.38-5.32-5.86-7.23-5.34-4.12-12.25-5.37-18.77-3.76-3.37.84-6.59,2.39-9.38,4.46s-5.5,4.55-6.89,7.69-.8,6.57,1.34,9.26,5.45,4.14,8.87,4.6c3.75.5,7.66.1,11.39-.45s7.5-1.59,10.58-3.8c5.4-3.88,8.14-10.77,4.62-16.85s-10.69-9.07-17.26-9.64-14.1,2.52-16.7,9.21c-.25.65-.52,1.39-.57,2.1-.06.84.51,1.57.96,2.24.79,1.18,1.72,2.28,2.77,3.24,2.13,1.94,4.66,3.32,7.34,4.34,5.7,2.17,12,2.61,18.04,2.71,6.74.11,13.56,0,20.19-1.32,6.21-1.24,12.14-3.77,16.77-8.18.52-.49.52-1.22.23-1.82-1.76-3.75-6.06-5.09-9.93-4.63-4.54.54-8.32,3.23-10.77,7.04s-3.47,9.17-1.62,13.6c1.75,4.19,5.73,7.43,10.26,8.06,1.12.16,2.23.15,3.35-.03,1.65-.27,1.89-1.53,2.48-2.92.25-.58.64-1.2.72-1.81.07-.54-.18-1.06-.4-1.54-.42-.95-1.02-1.83-1.74-2.59-2.9-3.07-7.59-4.1-11.63-3.24-4.8,1.03-8.58,4.86-11.04,8.92s-4.88,9.51-3.3,14.32c2.47,7.55,12.76,11.17,19.41,6.81,7.17-4.7,8.47-15.7,3.39-22.39-2.54-3.34-6.69-5.52-10.89-5.62s-8.25,2.45-9.57,6.66c-1.43,4.54.34,9.7,3.25,13.25s7.81,6.15,12.31,4.81c9.66-2.88,6.09-17.53.17-22.29-1.81-1.46-4.18-2.3-6.42-1.28-1.95.89-2,3.91-1.91,5.8.19,4.3,2.29,8.56,5.63,11.29,1.65,1.34,3.52,2.32,5.6,2.82.79.19,1.62-.24,1.85-1.05,3.29-11.78-9.59-25.17-21.36-19.39-4.82,2.37-8.32,7.96-6.68,13.37.78,2.57,2.53,4.79,4.78,6.24,2.06,1.33,5.17,2.2,7.57,1.27,1.27-.49,2.1-2.26,2.55-3.45.5-1.3.72-2.74.65-4.14-.14-2.83-1.34-5.61-3.57-7.41-.81-.65-2.25-.55-2.51.66-1.32,6.28-.16,12.87,3.32,18.27.64.99,2.5.99,2.74-.36,1.44-7.96-4.72-15.93-12.8-16.5-.93-.07-1.76,1.02-1.45,1.9,1.82,5.11,4.31,10.29,8.9,13.47,4.06,2.82,9.81,3.59,14.09.81.6-.39.82-1.01.69-1.69-.78-3.99-1.65-8.2-4.09-11.56-2.11-2.89-5.35-4.9-8.98-5.04-3.88-.15-6.92,2.3-8.23,5.85-1.21,3.27-.84,6.92.67,10.02,1.42,2.93,4.13,5.44,7.4,6.03,3.55.64,7.06-.94,9.25-3.76s2.73-6.74.96-9.99c-1.65-3.02-4.96-5.08-8.39-5.24-7.32-.33-11.93,8.59-8.25,14.62,2.11,3.44,6.11,6.05,9.73,7.65s7.65,2.11,11.32.37c3.16-1.49,5.48-4.7,5.13-8.28s-2.78-6.67-6.06-8c-7.54-3.07-15.8,3.55-17.07,10.93-.63,3.67.26,7.47,2.92,10.16,2.49,2.53,6.27,3.9,9.77,2.98s6.39-4.25,6.85-7.93-1.5-7.37-4.65-9.2c-.89-.51-1.57-.73-2.58-.51-1.23.27-2.45.58-3.67.87-.64.15-1.1.81-1.1,1.45,0,5.67.28,11.96,4.01,16.57,2.94,3.64,8.37,5.84,12.85,3.89,4.7-2.04,6.55-8.03,5.85-12.78-.32-2.16-1.2-4.4-2.88-5.87-.78-.69-1.72-1.22-2.74-1.47-1.26-.31-2.33.49-3.28,1.24-3.39,2.69-4.75,7.37-3.97,11.54.82,4.39,4.34,7.59,8.73,8.16s8.75-1.19,11.25-4.7c2.69-3.79,2.15-9.14-.61-12.73-2.98-3.87-8.07-4.87-12.41-2.74s-6.58,6.91-4.87,11.45,6.53,7.71,11.25,5.97c4.22-1.56,7.21-6.6,5.75-11.03-1.7-5.14-7.9-7.72-12.89-8.12s-10.32,1.6-12.6,6.21c-1.9,3.83-1.79,9.04,1.44,12.15,3.66,3.53,10.01,3.27,14.56,1.94,4.26-1.24,8.54-4.01,9.86-8.48,1.54-5.2-1.67-10.44-5.94-13.23-7.15-4.68-17.57-2.69-23.21,3.47-3.26,3.55-5.36,9.09-3.27,13.73,1.83,4.07,6.44,5.8,10.62,6.07,9.69.63,18.76-6.4,23.42-14.41,2.47-4.24,3.96-9.07,4.16-13.99s-.71-10.09-4.11-13.6c-3.75-3.87-9.36-3.03-12.78.79s-4.97,9.73-3.53,14.7,5.96,7.81,10.96,7.62,9.46-3.49,11.59-8.11,2.35-10.26.35-15.04c-1.9-4.53-5.89-8.16-10.98-8.3-4.6-.13-9.02,2.5-11.59,6.22-2.83,4.1-2.72,9.4-.56,13.77s6.54,7.99,11.43,9,10.09-.12,13.59-3.59c8-7.95.97-21.67-7.91-25.52-4.56-1.97-9.74-.87-13.48,2.29s-5.2,8.49-3.93,13.31c.61,2.29,1.78,4.43,3.37,6.17.7.77,1.91,2.1,2.98,2.25.72.1,1.5-.32,2.17-.54.82-.27,1.65-.54,2.47-.81.58-.19,1.17-.78,1.1-1.45-1.06-10.95-10.67-20.22-21.74-20.62-5.36-.2-11.03,2.18-11.77,8.05-.59,4.67,2.03,9.58,5.92,12.1,6.12,3.97,14.23,2.4,20.84.82.49-.12.94-.56,1.05-1.05,1.67-7.33-3.83-13.38-9.97-16.42-6.44-3.18-14.77-6.06-21.71-2.87-2.75,1.27-5.22,3.61-6.13,6.55-.48,1.54,1.07,2.87,2.04,3.93s2.09,2.13,3.24,3.08c4.59,3.79,10.13,6.39,15.97,7.55s11.97.99,17.67-.8c1.44-.45,2.84-1.01,4.21-1.65.7-.33,1.5-.6,1.85-1.34.33-.69.42-1.56.53-2.32.45-3.17-.02-6.39-1.24-9.34-5.25-12.64-22.61-16.24-33.52-8.71-5,3.46-8.3,9.49-5.88,15.52,2.21,5.5,7.84,8.72,13.13,10.7,12.76,4.77,30.09,6.12,40.12-4.91,4.11-4.52,5.97-10.49,4.6-16.5-.64-2.78-1.96-5.42-3.88-7.53-.9-.99-1.97-1.87-3.13-2.56-.6-.36-1.28-.73-1.95-.94-.94-.29-1.53.24-2.23.79-5.11,4.02-9.03,10.53-8.39,17.22.58,6.01,4.9,12.03,11.06,13.22.69.13,1.51.34,2.19.09.75-.28,1.47-.91,2.05-1.44,1.09-.99,1.95-2.25,2.56-3.58,1.38-3.05,1.53-6.44.69-9.66-1.72-6.63-6.89-12.66-12.29-16.67s-11.88-6.07-18.26-4.34c-5.55,1.51-10.84,5.84-12.07,11.66-2.74,12.95,13.62,21.73,24.63,20.29,3.03-.4,5.89-1.69,7.75-4.2,1.99-2.68,2.31-6.14,1.84-9.35-.91-6.23-4.71-12.07-9.7-15.8-5.03-3.76-11.59-5.03-17.43-2.46-5.47,2.42-10.06,8.16-9.48,14.38.6,6.56,5.98,11.18,11.56,13.9,6.12,2.98,13.84,5.12,20.5,2.71.75-.27,1.81-.55,2.31-1.19.45-.58.57-1.46.66-2.17.18-1.41-.04-2.84-.57-4.16-1.11-2.75-3.41-4.94-6.2-5.94-6.1-2.2-12.41,2.5-14.69,7.96-2.73,6.56-.69,14.92,3.32,20.54,3.49,4.89,9.72,9.43,15.96,6.93s8.53-9.93,7.14-15.92c-.65-2.79-2.29-5.48-4.89-6.82-2.81-1.45-5.98-1.14-8.75.26-5.82,2.94-10.16,10.39-9.69,16.91.51,7.1,7.53,11.9,14.09,12.9s12.85-1.45,16.07-7.22c2.78-5,2.56-11.78-2.12-15.58-4.11-3.33-10.6-3.97-14.68-.23-2.58,2.36-3.75,6.07-4.24,9.43-.53,3.6-.29,7.35,1.06,10.75,2.39,5.98,8.24,10.52,14.85,10.18.72-.04,1.2-.45,1.45-1.1,1.73-4.5.31-9.25-2.16-13.18s-6.02-7.78-9.77-10.71-8.21-4.43-12.73-2.36c-3.63,1.66-6.44,4.94-7.98,8.57-2.91,6.83-1.85,15.22,2.9,20.97,5.06,6.12,15.15,8.26,21.74,3.31,3.26-2.45,4.95-6.41,4.66-10.47s-2.28-7.8-6.02-9.39c-1.05-.45-2.2.06-2.26,1.3-.32,7.07.27,14.93,4.64,20.82,1.91,2.58,4.42,4.73,7.36,6.04,1.49.66,3.02,1.1,4.64,1.28,1.44.17,3.41.25,4.77-.37s1.74-3.25,1.97-4.57c.3-1.68.38-3.38.22-5.07-.34-3.53-1.48-6.89-3.06-10.05s-3.54-6.07-5.79-8.73-4.93-5.02-8.26-5.73c-6.42-1.38-11.02,4.17-11.6,10.09-.54,5.47,2.75,10.5,7.24,13.35s10.33,3.69,15.25,1.53c.55-.24,1.1-.5,1.6-.83.85-.56.9-1.35.97-2.3.12-1.61-.05-3.29-.5-4.84-.86-2.96-2.83-5.56-5.75-6.71-2.68-1.05-5.95-.79-8.22,1.05-2.43,1.97-3,5.24-2.22,8.15,1.7,6.29,8.42,11.25,14.81,11.66s12.54-4.63,11.47-11.35c-.98-6.21-7.27-9.88-13.18-7.84-2.96,1.02-5.36,3.18-6.49,6.12s-.76,6.71,1.49,9.18c2.1,2.31,5.47,3.17,8.48,2.7,3.25-.51,6-2.68,7.87-5.31,3.46-4.85,3.68-11.44,1.16-16.75-2.48-5.22-7.8-8.51-13.6-8.06-2.67.21-5.34,1.05-7.54,2.61-1.13.8-2.12,1.73-2.96,2.83-.7.92-1.94,2.59-1.66,3.82.61,2.6,3.45,4.88,5.74,5.93,2.63,1.2,5.59,1.57,8.42.95,6.15-1.35,10.15-7.37,10.86-13.34s-2.23-12.7-8.08-14.8c-6.2-2.22-12.35,2.62-14.27,8.34-1.71,5.11.36,12.23,5.86,14.07,5.92,1.97,10.25-3.73,11.47-8.8,1.55-6.46-.12-14.38-4.67-19.3-4.28-4.63-11.47-6.57-16.96-2.89-4.78,3.21-7.32,9.29-6.34,14.94,1.06,6.09,6.29,10.7,11.93,12.61,5.94,2.01,13.02,1.11,17.83-3.07s5.34-10.51,2.62-15.78-8.47-7.67-14.1-6.13-10.23,6.89-9.69,13.04c.3,3.33,1.88,6.44,4.66,8.35,2.58,1.77,6.11,2.33,9.05,1.2,6.19-2.38,9.27-10.06,9.1-16.27-.18-6.51-3.71-12.39-9.39-15.6-2.77-1.57-5.94-2.47-9.13-2.54-1.58-.03-3.34-.09-4.48,1.13-1.05,1.11-1.79,2.51-2.18,3.99-1.84,7,3.37,12.8,8.74,16.43,2.84,1.92,6.27,3.55,9.79,3.19,3.09-.32,5.96-1.95,7.92-4.35,4.04-4.96,3.47-11.88-1.61-15.87-4.81-3.78-11.55-3.55-15.74,1.06-4.66,5.13-4.7,12.4-1.99,18.47,1.37,3.07,3.38,6.03,5.77,8.4s5.61,4.19,9.11,3.38c.67-.16,1.06-.8,1.1-1.45.29-4.04-2.17-7.96-5.72-9.81-1.58-.82-3.92-1.58-5.69-1-1.87.63-3.19,2.5-3.77,4.3-1.44,4.44,1.44,8.88,4.4,11.95s7.26,5.4,11.79,4.67c4.27-.68,7.22-4.05,7.53-8.33s-1.68-8.46-4.3-11.63-6.59-5.4-10.83-4.79c-3.92.57-7.16,3.45-9.04,6.83-3.75,6.77-1.88,15.99,4.61,20.44,3.02,2.07,6.91,2.45,10.28,1.03s5.81-4.39,7.33-7.64c3.6-7.72,2.89-17.05.33-24.98-2.65-8.23-7.89-16.78-15.49-21.27-3.41-2.02-7.67-3.33-11.6-2.19-3.67,1.07-6.35,4.14-7.1,7.86s.1,7.73,2.34,10.77c2.55,3.45,6.45,5.6,10.52,6.73,2.06.57,4.18.89,6.31,1.06.71.06,1.21-.52,1.45-1.1.46-1.15.92-2.31,1.37-3.46.19-.47-.03-1.13-.39-1.46-5.65-5.33-12.29-9.48-19.55-12.26-3.59-1.37-7.32-2.39-11.12-3.01-3.39-.55-6.79-.87-10.19-.26s-6.64,2.34-8.18,5.53c-.3.63-.25,1.3.23,1.82,5.69,6.15,14.2,9.43,22.55,8.62.66-.06,1.27-.42,1.45-1.1,1.2-4.5-3.3-7.46-6.59-9.43-4.05-2.43-8.35-4.46-12.79-6.07-4-1.45-8.44-2.99-12.73-3.16-3.29-.13-6.95.9-8,4.38-.19.64.13,1.36.69,1.69,17.81,10.62,37.84,17.32,58.46,19.55,4.1.44,9.98,1.14,11.81-3.64.61-1.59-1.96-2.65-2.74-1.16-3.38,6.53-3.55,14.35-.51,21.04,1.37,3.01,3.45,5.71,6.41,7.28s6.11,1.7,8.64-.51c.56-.49.61-1.65,0-2.12-2.1-1.63-4.75-1.4-6.81.22-2.41,1.89-2.79,5.01-2.33,7.86.51,3.1,1.82,6.16,3.15,8.99,1.44,3.05,3.2,5.93,5.23,8.63.51.68,1.69,1.14,2.36.3,1.44-1.81,1.13-4.18-.53-5.77-1.77-1.69-4.41-1.57-6.12.14s-2.05,4.37-1.07,6.49c1.13,2.41,3.7,3.84,6.26,4.19,1.33.18,2.28-.94,1.69-2.2-1.29-2.77-3.44-6.08-6.92-5.88-3.05.18-4.97,3.31-4.69,6.16.32,3.31,3.44,5.34,6.53,5.65,3.77.38,7.08-1.8,9.84-4.11.42-.35.48-.96.39-1.46-1.51-7.73-9.51-12.96-17.17-11.69-1.16.19-1.38,1.77-.66,2.51,7.47,7.74,20.38,8.41,28.77,1.8.44-.34.47-.97.39-1.46-1.93-11.55-15.05-19.5-26.19-16.03-.7.22-1.01.76-1.1,1.45-.16,1.18-.58,2.6-.5,3.79s1.33,1.82,2.19,2.4c1.72,1.15,3.72,2.03,5.77,2.38,4.02.68,8.16-.81,9.87-4.73s.66-8.18-1.06-11.73c-1.82-3.76-4.57-7.15-7.76-9.83-3.72-3.13-8.09-5.41-12.81-6.59-.72-.18-1.72.23-1.85,1.05-.16,1.04-.32,2.09-.48,3.13-.11.74.1,1.25.69,1.69,7.73,5.78,17.67,8.02,27.15,6.38.51-.09.91-.58,1.05-1.05.4-1.3.79-2.61,1.19-3.91s.09-1.92-.65-2.96c-1.11-1.55-2.48-2.86-4.07-3.92-3.11-2.07-7.06-3.08-10.79-2.69-1.87.2-3.8.66-5.45,1.58s-1.67,4.03-1.5,5.76c.45,4.35,3.02,8.21,6.49,10.77,4.39,3.23,9.91,4.31,15.2,5.02.68.09,1.24-.54,1.45-1.1.39-1.05,1.5-2.87,1.03-3.98-.39-.92-1.43-1.78-2.18-2.4-1.71-1.41-3.71-2.44-5.86-3.02-4.23-1.13-8.93-.54-12.57,1.95-.58.4-.84,1-.69,1.69,1.17,5.37,5.07,9.71,9.75,12.39,5.62,3.22,12.19,4.06,18.54,4.62.67.06,1.26-.51,1.45-1.1.33-1.04.66-2.07.99-3.11.21-.65-.14-1.35-.69-1.69-3.58-2.28-7.33-4.61-11.61-5.21-3.54-.5-7.22.41-9.93,2.8-1.23,1.08-2.19,2.53-2.62,4.11-.29,1.05-.24,1.72.45,2.57.62.76,1.31,1.44,2.08,2.05,3.01,2.4,7.17,3.72,10.94,2.47,3.36-1.12,6.21-4.03,6.77-7.59.62-3.95-1.78-7.69-4.78-10.04-5.65-4.44-14.8-5-20.08.37-2.49,2.54-3.92,6.32-2.33,9.71,1.41,3.02,4.96,4.56,8.17,4.25,7.76-.75,10.89-10.25,8.4-16.72s-9.82-10.91-16.3-6.86c-2.8,1.75-4.93,4.71-5.3,8.03s1.21,6.24,3.83,8.05c5.44,3.76,13.44,1.69,17.28-3.34,2.28-2.99,3.03-7.17.81-10.42-2.02-2.96-5.91-3.93-8.89-1.75-1.39,1.02-2.19,2.47-2.3,4.19-.05.83.73,1.47,1.5,1.5,7.54.25,11.25-7.23,14.18-12.93,1.57-3.05,3.42-5.55,6.06-7.75,2.21-1.84,4.6-3.55,6.27-5.94,4.41-6.32-1-12.96-6.38-16.39s-13.42-4.24-18.39.85c-2.35,2.41-3.34,5.73-2.58,9.01s3.03,5.85,6.2,6.64c.86.22,1.53-.28,1.85-1.05,1.94-4.72,1.01-10.34-2.14-14.32s-8.78-5.81-13.87-4.85c-1.21.23-2.37.64-3.47,1.18-1.49.73-1.53,1.95-1.53,3.49,0,2.6.78,5.18,2.05,7.44,2.75,4.9,7.61,8.12,12.99,9.47,2.94.73,6.01.97,9.03.87,1.46-.05,2.91-.17,4.36-.36.68-.09,1.39-.08,1.92-.56s.89-1.31,1.15-1.94c2.29-5.39-.85-10.94-5.23-14.09-6.87-4.95-20.36-6.74-24.56,2.67-2.24,5.02-.13,11.15,4.07,14.44,5.03,3.95,12.02,3.65,17.61,1.17,1.76-.78.24-3.37-1.51-2.59-4.2,1.87-9.42,2.14-13.43-.35-3.25-2.02-5.36-6.27-4.47-10.08,1.95-8.39,13.51-6.99,19.1-3.75,4.27,2.48,8.38,7.87,4.91,12.7l.9-.69c-6.11.85-12.89.76-18.36-2.45-4.53-2.66-8.2-7.9-7.45-13.36l-.69.9c4.13-2.28,9.68-1.76,13.15,1.53s4.33,8.42,2.56,12.73l1.85-1.05c-2.19-.55-3.6-2.4-4.1-4.54-.54-2.31.26-4.57,1.93-6.22,4.3-4.25,10.81-2.92,15.32.21,2.27,1.58,4.71,3.78,5.58,6.49.78,2.41-.19,4.6-1.83,6.37s-3.63,3.18-5.46,4.74c-2.1,1.79-3.77,3.87-5.13,6.28-2.77,4.91-5.5,13.32-12.47,13.09l1.5,1.5c.13-2.06,2.82-2.94,4.42-2.01,1.93,1.12,2.47,3.67,1.89,5.69-1.23,4.2-5.77,6.63-9.93,6.52-3.65-.09-7.58-2.5-7.14-6.62.43-3.96,4.62-7.45,8.61-6.88,4.29.62,7.3,4.82,7.85,8.9s-1.8,9.87-6.55,10.24c-1.86.15-3.96-.58-4.97-2.23-1.16-1.9-.4-4.21.87-5.85,2.92-3.78,8.26-4.5,12.6-3.15,4.65,1.45,10.39,6.87,6.83,11.94-1.54,2.19-4.2,3.3-6.83,2.97-2.87-.35-5.33-2.13-7.06-4.37l.39,1.46c.61-3.55,4.18-5.57,7.58-5.67,4.54-.13,8.68,2.62,12.35,4.96l-.69-1.69c-.33,1.04-.66,2.07-.99,3.11l1.45-1.1c-9.78-.85-22.92-3.44-25.4-14.81l-.69,1.69c5.24-3.58,12.7-2.42,16.66,2.52l-.39-1.46c-.37,1-.74,2-1.11,3l1.45-1.1c-4.89-.65-10.24-1.72-14.13-4.96-3.38-2.81-5.57-7.38-4.15-11.73l-.69.9c5.88-3.14,13.84-.83,17.2,4.9l-.15-1.16c-.47,1.53-.93,3.06-1.4,4.6l1.05-1.05c-8.72,1.51-17.77-.8-24.84-6.08l.69,1.69c.16-1.04.32-2.09.48-3.13l-1.85,1.05c6.4,1.6,12.22,5.4,16.14,10.72,1.91,2.58,3.56,5.53,4.01,8.75.4,2.8-.29,6.08-3.19,7.27-3.29,1.35-7.29-.49-9.81-2.61l.44,1.06c.17-1.26.33-2.52.5-3.79l-1.1,1.45c9.71-3.03,20.84,3.95,22.5,13.93l.39-1.46c-7.12,5.61-18.28,4.66-24.52-1.8l-.66,2.51c6.14-1.01,12.31,3.6,13.48,9.6l.39-1.46c-1.8,1.5-3.95,3.06-6.36,3.26-1.81.15-4.23-.57-4.83-2.5-.41-1.36.42-3.48,2.07-3.35,1.98.17,3.16,2.86,3.88,4.4l1.69-2.2c-2.25-.31-5.49-1.95-4.43-4.75.29-.77,1.05-1.69,1.97-1.35.52.19,1.46,1.22.99,1.82l2.36.3c-3.01-4-5.44-8.42-7.06-13.16-.73-2.13-1.6-4.66-.83-6.9.45-1.31,2.49-3.13,3.94-2.01v-2.12c-1.85,1.61-4.45.54-6.19-.69-2.23-1.58-3.66-4.06-4.59-6.58-2.02-5.48-1.73-11.7.96-16.91l-2.74-1.16c-.54,1.42-2.46,1.7-3.78,1.77-2.08.11-4.19-.22-6.25-.46-4.81-.56-9.6-1.39-14.32-2.45-9.3-2.09-18.4-5.1-27.09-9.03-4.95-2.23-9.76-4.76-14.42-7.54l.69,1.69c.74-2.44,4.28-2.35,6.3-2.08,3.64.48,7.31,1.71,10.75,2.95,3.64,1.32,7.17,2.96,10.54,4.87,2.18,1.23,7.61,3.69,6.75,6.94l1.45-1.1c-7.63.74-15.22-2.11-20.43-7.74l.23,1.82c2.6-5.39,10.31-4.67,15.19-3.86,6.93,1.16,13.6,3.62,19.62,7.23,3.43,2.06,6.61,4.48,9.52,7.23l-.39-1.46c-.46,1.15-.92,2.31-1.37,3.46l1.45-1.1c-6.34-.51-14.1-3.09-16.02-9.91-.76-2.71-.58-5.93,1.19-8.23,1.9-2.48,5.15-3.1,8.07-2.45,6.93,1.54,12.09,7.77,15.45,13.64,3.66,6.4,5.59,13.78,5.43,21.16-.13,5.6-2.04,12.84-7.52,15.53-5.7,2.79-11.02-2.14-12.56-7.41-1.67-5.75,1.19-13.64,7.62-14.96s12.22,7.17,12.02,13.04c-.12,3.48-2.79,5.79-6.21,5.85-3.72.07-6.84-2.44-9.1-5.16-2.02-2.43-4.25-6.5-1.67-9.35,1.01-1.12,2.43-.79,3.86-.14s2.63,1.71,3.45,3.01,1.21,2.78,1.1,4.36l1.1-1.45c-3.44.79-6.4-2.55-8.26-4.99-2.03-2.67-3.68-5.7-4.4-9-1.16-5.35,1.06-12.39,6.91-13.91,5-1.3,10.85,2.92,10.76,8.18-.04,2.83-1.75,5.53-4.06,7.09-2.6,1.76-5.58,1.84-8.44.63s-5.83-3.42-7.99-5.8c-2.03-2.24-3.43-5.14-3.03-8.22.16-1.22.63-2.81,1.6-3.65.53-.45-.18-.07.53-.18.35-.06.74-.05,1.09-.06.73-.02,1.46,0,2.19.09,2.93.34,5.8,1.53,8.14,3.33,4.85,3.73,6.88,10.02,5.52,15.94-1.27,5.49-6.38,12.2-12.6,8.64-2.71-1.55-3.99-4.66-3.83-7.69.14-2.75,1.63-5.21,3.83-6.83,4.14-3.04,10.08-2.94,13.35,1.3s2.99,10.15-.97,13.7c-4.43,3.97-11.45,4.22-16.66,1.78-4.9-2.3-8.84-7.04-8.3-12.7.46-4.82,4.18-9.91,9.29-10.27,7.13-.5,11.81,6.15,12.99,12.43.54,2.88.59,5.9-.24,8.72-.65,2.22-1.89,4.67-4.08,5.71-5.09,2.42-8.27-4.38-7.68-8.49.79-5.47,6.92-10.64,12.28-7.29,4.85,3.03,5.7,9.91,3.63,14.82-2.18,5.14-7.44,8.35-12.95,6.55-2.42-.79-4.34-2.47-5.35-4.81l.15,1.16c1.41-3.55,5.11-5.76,8.8-6.22,4-.49,7.9,1.11,10.25,4.42s3.12,7.7,2.08,11.62c-1.11,4.19-4.74,8.5-9.45,8.16-2.17-.15-4.32-1.35-5.11-3.45s-.19-4.83,1.32-6.57c2.71-3.14,8.05-3.76,10.93-.53s2.23,8.35-1.69,10.53c-4.56,2.54-9.97.33-13.52-2.93-1.79-1.65-3.36-3.93-3.68-6.4-.3-2.32.93-4.41,3.27-4.94s4.71.5,6.08,2.38c1.59,2.18,1.88,4.98,1.55,7.59l.74-1.3c-7.14,4.41-18.24-.28-19.64-8.71-.68-4.06,1.54-9.78,6.26-9.99,2.85-.12,5.31,1.79,7.19,3.72,2.05,2.1,3.77,4.56,5.25,7.08,3.19,5.43,5.54,12.31,2.88,18.43l.9-.69c-5.5,1.26-11.07-2.17-13.95-6.73-3.4-5.39-3.76-12.03-3.48-18.22l-2.26,1.3c5.18,2.21,6.02,9.86,2.3,13.8-4.7,4.98-13.31,3.74-17.89-.71-4.31-4.18-5.72-10.87-4.22-16.59.77-2.95,2.32-5.62,4.63-7.62,1.46-1.27,3.3-2.31,5.26-2.47s3.8.57,5.42,1.58c1.82,1.13,3.4,2.63,4.91,4.13,1.66,1.65,3.27,3.39,4.64,5.29,2.63,3.64,4.64,7.99,2.93,12.45l1.45-1.1c-7.18.37-12.49-5.9-13.1-12.67-.52-5.73,1.35-14.42,8.54-14.25,2.49.06,4.98,1.16,6.64,3.03,1.79,2.02,2.24,4.96,1.69,7.54-1.38,6.41-7.42,9.93-13.73,9.15-3.3-.41-6.56-1.89-8.99-4.17-2.8-2.62-3.63-6.04-2.69-9.73.86-3.35,2.65-6.44,5.26-8.73,2.11-1.85,5.17-3.32,7.96-2.14,5.77,2.44,4.85,11.62,1.34,15.5-4.93,5.45-12.03.86-15.34-3.95-3.81-5.55-5.82-14.22-1.53-20.04,1.78-2.42,4.61-4.23,7.68-4.15,2.72.07,5.28,2.07,6.27,4.56.52,1.3.53,2.61.07,3.92l.69-.9c-3.85,1.85-8.26,1.65-12.31.65-3.81-.94-7.56-2.49-10.8-4.71-2.92-2-5.43-4.78-6.18-8.32s.74-6.85,3.08-9.3,5.83-4.25,9.37-4.32,6.89,1.29,9.67,3.35,5.19,5.14,6.74,8.4,2.59,7.38,1.27,10.86c-2.76,7.3-13.56,4.84-18.8,2.23-5.87-2.92-11.56-9.16-8.54-16.12,2.82-6.49,10.75-9.18,17.26-7.5,7.57,1.95,14.03,8.4,17.53,15.21,1.75,3.42,2.59,7.53.95,11.16-.36.79-.82,1.55-1.4,2.2-.27.3-.56.59-.87.84-.35.29-.6.41-.75.42-1.56.01-3.42-1.11-4.59-2.04-2.7-2.16-4.48-5.58-4.62-9.04-.16-3.83,1.35-7.55,3.67-10.54,1.2-1.54,2.64-2.93,4.21-4.09l-1.16.15c3.7,1.49,6.08,5.06,6.98,8.83.98,4.12.1,8.29-2.24,11.78-5.83,8.67-17.25,10.49-26.88,9.06-4.93-.73-10.06-1.93-14.57-4.12-3.47-1.69-7.24-4.21-8.55-8.03-1.44-4.21.57-8.25,3.87-10.92,3.63-2.94,8.39-4.16,12.99-4.09,5.31.08,10.66,2.03,14.23,6.07,3.37,3.82,4.92,9.22,3.53,14.17l.69-.9c-10.34,5.39-23.36,4.16-32.99-2.2-2.75-1.82-5.23-4.09-7.22-6.72l.15,1.16c.98-3.17,3.98-5.14,7.1-5.83,3.96-.87,8.13.35,11.84,1.68,6.17,2.22,15.02,6.9,13.19,14.93l1.05-1.05c-5.24,1.25-10.97,2.45-16.22.6-3.7-1.3-6.53-4.79-6.81-8.76-.12-1.71.28-3.45,1.49-4.72,1.73-1.81,4.42-2.24,6.81-2.22,4.45.03,8.82,1.84,12.19,4.71,3.84,3.26,6.59,7.86,7.08,12.93l1.1-1.45c-1.35.44-2.7.89-4.05,1.33l1.16.15c-5.87-4.09-6.61-13.43-.35-17.51,2.97-1.93,6.66-2.37,9.85-.72,3.4,1.76,6.15,4.9,7.71,8.37,1.45,3.23,1.87,7.15,0,10.3-1.73,2.92-5.11,4.51-8.42,4.74-7.06.49-14.12-5.19-14.42-12.45-.26-6.35,6.29-12.36,12.69-10.55,7.35,2.08,8.81,12.12,6.26,18.22-1.39,3.34-4.09,6.05-7.7,6.78-3.24.65-6.96-.43-8.71-3.38-1.89-3.2-1.42-7.64.15-10.88,1.42-2.93,4.46-6.25,8.07-5.07,3.22,1.06,4.68,4.96,5.22,8,.61,3.44.34,7.05-.54,10.41-1.76,6.7-6.06,12.79-11.92,16.52-2.81,1.79-6.07,3.2-9.43,3.44-2.93.21-6.29-.23-8.63-2.17-2.84-2.36-2.6-6.32-1.1-9.4,1.32-2.69,3.51-4.79,6.12-6.22,5.12-2.79,12.14-2.97,16.72,1,2.73,2.36,4.69,6.17,3.12,9.74-1.29,2.92-4.4,4.68-7.33,5.56-3.24.98-7.58,1.42-10.66-.29-2.71-1.51-3.43-4.85-2.71-7.69,1.99-7.88,12.41-7.61,17.89-3.75,2.94,2.07,3.91,5.5,1.69,8.51-1.99,2.7-5.51,3.27-8.12,1.08s-3.43-5.75-1.5-8.51c1.76-2.52,5.33-3.77,8.25-2.78s4.9,4.27,4.95,7.36-1.84,5.72-4.68,6.95c-2.56,1.11-5.74,1.12-8.13-.42s-3.45-4.72-3.11-7.57,1.9-5.35,4.47-6.6l-1.16.15c3.25.7,4.11,4.63,3.84,7.51-.32,3.47-2.34,7.38-6.23,7.51-3.59.12-6.83-2.27-8.46-5.35-2.07-3.9-2.12-8.54-2.13-12.85l-1.1,1.45c1.38-.33,2.75-.65,4.13-.98l-1.16-.15c2.53,1.07,4.37,3.54,4.21,6.36-.15,2.58-2.07,4.99-4.55,5.71s-5-.25-6.77-1.92c-2.04-1.93-2.83-4.73-2.39-7.49.85-5.35,6.13-10.42,11.82-9.32,2.54.49,4.66,2.5,5.29,5.02s-.75,4.75-2.91,5.95c-2.52,1.41-5.43,1.21-8.08.27-2.95-1.04-5.95-2.97-8.14-5.2-1.84-1.87-2.77-4.21-2.05-6.8.61-2.15,2.24-4.15,4.43-4.79,5.01-1.46,10.11,4.09,7.79,8.88-1.06,2.19-3.32,3.95-5.81,4.05s-4.46-1.29-5.8-3.16c-1.53-2.15-2.27-5.01-1.74-7.62.61-2.99,2.55-5.43,5.8-5.29,7.23.32,9.07,8.73,10.18,14.4l.69-1.69c-3.52,2.29-8.13,1.41-11.35-1.02-3.69-2.77-5.71-7.24-7.22-11.47l-1.45,1.9c6.03.42,10.99,6.74,9.91,12.7l2.74-.36c-3.05-4.72-4.18-10.45-3.02-15.96l-2.51.66c3.08,2.48,3.33,6.53,1.48,9.8-.23.4-.16.31-.73.37-.44.05-.89.04-1.33-.01-.96-.12-1.88-.48-2.7-.97-1.72-1.02-3.1-2.7-3.69-4.62-1.25-4.11,1.58-8.09,5.14-9.9,3.92-1.99,8.51-.96,11.89,1.64,4.24,3.26,6.69,9.03,5.22,14.28l1.85-1.05c-6.39-1.53-10.48-8.74-8.52-15.01l-.69.9c2.24-1.3,4.56,1.3,5.68,3,1.32,2,2.14,4.44,2.49,6.8.3,2.07.21,4.51-1.12,6.24-1.45,1.89-3.86,2.28-6.05,1.68-4.84-1.34-8.49-6.32-8.7-11.28-.1-2.33.62-4.71,2.53-6.18,1.64-1.26,3.84-1.54,5.82-1.2,4.39.75,7.89,3.94,9.11,8.2s.47,9.01-2.38,12.28-7.16,4.05-11.15,2.52-6.84-5.2-6.18-9.57c.47-3.11,1.99-6.19,3.69-8.8s3.85-4.83,6.62-6.14c4.15-1.95,10.57-.85,12.26,3.93l.15-1.16c-.48,1.12-.96,2.24-1.44,3.35l.9-.69c-6.29,1.33-11.76-4.64-11.46-10.66.28-5.76,4.93-11.48,10.82-12.04,2.77-.26,5.63.52,6.88,3.19l.23-1.82c-6.74,6.42-16.28,8.1-25.25,8.51-4.46.21-8.96.22-13.41-.03-4.16-.23-8.35-.75-12.32-2.08-4.24-1.42-8-3.92-10.22-7.88l.15,1.16c.79-3.95,3.92-7.01,7.71-8.25,4.48-1.46,9.65-.68,13.88,1.25,3.5,1.6,7.08,4.29,8.27,8.11,1.26,4.02-.78,8.01-3.92,10.53-3.74,3-8.8,3.79-13.44,4.19-4.35.37-9.63.69-13.09-2.5-7.79-7.2,5.72-15.77,11.91-17.47,8.84-2.42,19.29,1.65,22.31,10.78l.15-1.16c-3.22,4.45-9.04,5.85-14.25,6.02s-12.25-.18-14.97-5.19c-2.23-4.1-.31-9.52,2.89-12.53,4.46-4.2,11.5-3.89,16.95-2.19,2.76.86,5.51,2.07,7.75,3.94,2.01,1.67,4.08,4.13,3.79,6.93-.55,5.19-7.36,6-11.43,5.56-4.52-.48-10.25-2.82-12.18-7.28-2.2-5.1,2.48-9.37,7.17-10.22,6.11-1.1,11.93,3.28,16.24,7.05,2.29,2.01,4.42,4.31,5.85,7.02.63,1.2,1.13,2.54,1.25,3.9.06.71.03,1.43-.13,2.13-.17.75-.12,1.03-.77,1.21-2.28.63-4.66-.89-5.97-2.66-1.62-2.21-1.62-4.95-.54-7.4s3.2-4.62,5.5-6.12c2.51-1.64,5.61-2.98,8.65-2.2,5.41,1.38,8.49,7.48,7.38,12.74-1.22,5.8-5.89,10.17-11.17,12.46-6.24,2.7-13.45,3.12-20.16,3.03s-13.66-1.07-19.74-4.01c-2.49-1.2-5.18-3.11-4.86-6.23.28-2.83,2.56-5.3,4.78-6.87,5.04-3.57,11.53-5.08,17.64-4.24,2.76.38,5.87,1.17,7.94,3.15,1.82,1.74,2.23,4.13,1.49,6.48s-2.46,4.32-4.53,5.55c-2.72,1.62-6.13,1.73-9.18,1.24-3.32-.53-6.49-1.74-9.58-3.03l1.05,1.05c-.67-3.5,1.87-6.41,4.65-8.14,3.37-2.11,7.32-2.86,11.26-2.64s8.27,1.82,10.43,5.47c1.82,3.07,1.87,6.99-.84,9.54-2.48,2.33-6.29,2.78-9.54,2.74-4.01-.06-8.52-.73-12.03-2.76-1.74-1.01-3.18-2.43-4.06-4.25-.41-.87-.68-1.83-.7-2.79-.03-1.09.06-1.1.93-1.76,2.69-2.04,5.94-3.29,9.27-3.77,7.4-1.07,15.64,1.63,20.18,7.76l.54-2.05c-8.8,6.8-22.24,6.22-30.28-1.56v2.12c3.02-2.49,7.14-4.36,11.13-3.68,3.27.56,5.87,3.04,6.56,6.3.78,3.71-2.07,6.11-5.31,7.18-3.47,1.14-7.22,1.16-10.73.21-3.96-1.07-7.64-3.35-10.15-6.63l-.23,1.82c4.39-4.25,10.36-7.89,16.7-6.44,2.7.62,5.25,2.12,6.61,4.6,1.18,2.16,1.44,4.97.4,7.23-1.35,2.95-4.69,3.98-7.66,4.4s-6.72.34-9.13-1.9c-.93-.87-1.7-2.04-1.86-3.34-.11-.89.71-1.77,1.58-2.56,1.62-1.49,3.8-2.3,5.96-2.58,5.03-.64,10.38,1.32,13.61,5.27,1.69,2.08,3,4.92,2.43,7.64s-2.68,4.36-5.13,5.12c-5.2,1.63-11.53-.79-13.79-5.91-2.73-6.17,4.45-10.52,9.37-12.15,6.39-2.11,14.15-.93,18.12,5,3.35,5.01,2.03,12.41-3.7,15.02h1.51c-.65-.46-1.3-.92-1.96-1.38-.45-.31-.83-.45-1.05-.93-.36-.8,0-1.79.46-2.47,1.06-1.58,2.98-2.35,4.66-1.26s2.44,3.31,2.3,5.26c-.16,2.32-1.79,4.33-3.63,5.62-3.87,2.73-11.3,4.64-14.55.01-.55-.78-1.26-2.24-.92-3.23.22-.63,1.89-1.61,2.61-2.02,2.17-1.25,4.68-1.85,7.18-1.72,5.66.28,10.33,4.73,11.48,10.16l.69-1.69c-6.9,4.81-17.41,1.7-20.68-6.02l-.9,2.2c1.92-.44,3.81.66,4.84,2.25,1.2,1.84.95,4.09-.13,5.92-2.69,4.53-8.45,4.71-12.96,3.3l1.1,1.45c-.09-3.21,1.6-7.46,5.25-7.92,2.37-.3,6.37,1.77,5.14,4.68-.47,1.11-1.71,1.96-2.89,2.13-1.55.22-2.32-.93-2.66-2.3-1.02-4.18.21-8.98,2.33-12.61l-1.3.74c1.83.06,3.06,1.75,3.37,3.43.38,2.09-.89,3.89-2.66,4.89-4.71,2.65-9.83-.56-13.24-3.82l.23,1.82c2.35-3.25,6.01-5.39,9.93-6.14,3.52-.67,8.66-.27,10.9,2.97.98,1.41.83,3.09-.58,4.15-1.58,1.19-2.71-.16-2.74-1.84-.06-3.56,2.72-7.56,6.23-8.45,4.06-1.03,6.03,3.88,4.19,6.95-1.98,3.31-6.57,4.22-9.86,2.43s-4.14-5.66-1.54-8.39c1.02-1.06,2.6-1.74,4.01-1.05,1.16.56,1.93,1.86,2.15,3.1.88,5.03-7.34,3.63-10.09,3.02-5.02-1.12-9.58-3.67-13.16-7.36l.39,1.46c1.15-2.83,4.85-3.8,7.57-3.02,3.42.98,4.81,4.79,4.12,8.05-.83,3.89-4.14,6.38-8.07,6.54s-8.47-1.82-9.7-5.75c-.54-1.72-.04-3.81,1.57-4.8,1.7-1.04,3.48.16,4.53,1.54,2.18,2.87,3.25,7.91-.32,10.11-2.83,1.75-6.46,1.27-8.67-1.22-2.54-2.86-2.79-7.2-1.58-10.68,1.6-4.59,5.56-8.32,9.51-10.97s9.25-4.88,13.92-2.74l-.74-1.3c-.23,4.85-3.93,8.89-8.43,10.38-4.83,1.6-11.41,1.04-15.45-2.28-2.98-2.45-3.51-6.59-2.27-10.08s4.53-6.01,8.41-5.89c4.48.14,8.75,3.32,9.93,7.67l.15-1.16c-2.16,2.87-5.9,3.97-9.37,3.72-3.8-.28-7.17-2.38-9.21-5.57-4.57-7.15-2.73-17.26,3.63-22.72,3.32-2.84,7.96-4.03,12.2-2.83,1.97.56,4.11,1.68,5.21,3.48,1.21,1.98.19,3.97-1.28,5.46-2.99,3.01-7.34,5.11-11.25,6.62s-8.37,2.6-12.71,3.01c-9.89.92-19.97-1.13-28.52-6.26l.69,1.69c.65-3.79,3.29-6.78,6.73-8.37,4.09-1.9,8.91-1.38,13.02.14,3.02,1.11,8.07,3.79,6.84,7.81-1.12,3.66-6.06,5.24-9.3,6.22-4.44,1.33-9.07,1.87-13.69,1.62-4.04-.22-8.81-.82-12.31-3.01-1.43-.89-2.64-2.29-2.34-4.08.36-2.09,2.28-3.76,3.95-4.87,3.43-2.27,7.58-3.14,11.64-3.31,10.22-.45,20.61,2.53,29.38,7.7l-.3-2.36c-7.67,6.54-18.71,8.75-28.31,5.7-2.1-.67-4.8-1.7-5.37-4.1s.86-5.03,2.15-6.99c2.26-3.45,5.62-6.06,9.34-7.78,7.28-3.34,17.47-3.21,23.45,2.72,1.62,1.6,3.08,3.77,3.09,6.13.02,2.14-1.27,3.88-3.12,4.83-3.5,1.81-8.73,1.54-12.24-.11-1.63-.77-3.5-2.18-3.01-4.23.43-1.79,2.49-2.64,4.08-3.05,5.05-1.29,11.18.49,15.63,2.9,2.13,1.15,4.48,2.67,5.51,4.97,1.08,2.42-.38,4.56-2.18,6.13-3.92,3.41-9.22,5.53-14.25,6.6s-10.66,1.05-15.82-.25c-2.02-.51-4.99-1.21-5.64-3.53s1.57-4.63,3.28-5.85c3.91-2.81,9.41-3.59,14.1-3.29,4.95.31,9.88,2.06,13.82,5.09,1.69,1.3,4.32,3.88,2.75,6.16-1.26,1.83-4.01,2.4-6.02,2.86-5.5,1.24-11.31.92-16.67-.81-3.8-1.22-10.86-4.2-9.95-9.34.74-4.16,6.4-5.56,9.93-5.63,4.28-.08,9.88,1.43,10.05,6.61s-4.03,9.58-7.6,12.74c-3.86,3.41-8.39,6.13-13.21,7.94-2.44.92-4.97,1.62-7.54,2.09-2.42.45-5.09.85-7.55.57-2.19-.26-3.88-1.64-3.44-3.98.41-2.16,1.96-4.09,3.58-5.49,4.14-3.57,9.6-5.89,14.91-7.02,4.87-1.04,10.37-1.18,14.99.95,4.01,1.85,6.79,5.41,6.74,9.94-.02,1.84-.53,3.74-1.72,5.17-1.59,1.91-4.12,2.5-6.51,2.47s-4.95-.49-6.79-2.04c-1.95-1.64-2.27-4.2-1.54-6.53,1.63-5.24,7.66-7.27,12.42-8.57,2.76-.76,5.76-1.3,8.56-.4,2.09.67,4.09,2.26,4.56,4.49.96,4.53-4.38,7.83-8.03,8.93-3.17.95-8.37,1.16-10.57-1.89-2.86-3.96,2.46-7.48,5.76-8.32,4.19-1.06,9.7-.07,12.49,3.46,2.12,2.68,1.97,7.81-1.32,9.56-4.18,2.22-8.39-3.06-7.67-6.97.9-4.9,6.05-7.7,10.65-7.98,2.93-.18,5.83.36,8.63,1.15,2.33.66,4.62,1.5,6.57,2.98,1.55,1.17,3.02,2.93,2.63,5s-2.39,3.23-4.21,3.84c-4.55,1.51-10.36,1.1-14.63-1.08s-7.57-6.84-6.6-11.72c.74-3.69,4.01-5.92,7.57-6.45s7.42.61,9.72,3.48c2.8,3.5,3.02,8.43,1.68,12.55-3.18,9.78-14.79,13.05-24.03,11.43-4.43-.78-9.58-3.08-9.51-8.32.07-4.93,4-9.39,7.92-11.93s9.02-3.99,13.5-2.07c4.14,1.77,6.54,6.05,7.16,10.36,1.47,10.2-7.41,19.66-15.75,24.13-4.22,2.26-9.73,3.16-13.77-.03-3.06-2.42-3.71-7.57-.24-10.03,1.79-1.27,4.08-.78,5.75.46,2.13,1.58,3.1,4.2,3.34,6.76s.03,5.49-.59,8.09c-.54,2.29-1.57,4.79-3.74,5.98-1.59.87-3.98,1.16-5.39-.23-1.67-1.65-1.34-4.9-.98-7,.85-4.87,3.78-9.48,8.36-11.59s10.28-1.63,13.86,1.9c4.03,3.98,1.25,9.86-3.74,11.23-4.3,1.17-11.88-.34-10.96-6.19.8-5.07,6.65-7.48,11.12-8.26,3.42-.6,8.24-.4,10.55,2.64,3.11,4.09-.91,8.92-4.37,11.1-1.5.95-5.27,3.09-5.95.2-.52-2.2.47-5.01,1.33-7.01,1.05-2.45,2.6-4.67,4.54-6.49,1.77-1.67,4.43-3.52,7.01-2.86,1.84.47,3.56,2.81,2.05,4.48-.78.87-2.02,1.38-3.05,1.88-1.3.63-2.63,1.16-4,1.61-5.28,1.74-11.02,2.25-16.51,1.32-2.42-.41-4.86-.97-6.94-2.33-1.47-.95-3.16-2.75-2.33-4.65.63-1.45,2.58-2.02,4.03-1.79,2.1.32,3.23,2.36,3.32,4.34.24,5.23-4.98,8.01-9.42,8.89-4.82.96-11.02-.13-12.89-5.34-1.74-4.83,2.72-8.6,7.26-8.82,2.89-.14,5.72.8,8.3,2.02,2.3,1.09,4.83,2.29,6.62,4.15,1.52,1.58,2.65,4.6.65,6.3-1.76,1.49-4.86,1.41-7.03,1.44-2.65.04-5.6-.34-7.45-2.46-1.45-1.68-1.78-4.01-.07-5.63s4.39-2.1,6.66-2.27c2.95-.21,5.9.17,8.69,1.13.98.34,2.39.76,3.02,1.67.68.99-.12,1.94-.88,2.59-1.56,1.33-3.95,2.32-6.01,2.36-.74.01-1.6-.09-1.96-.83-.47-.97.13-2.37.56-3.26.82-1.7,2.14-3.14,3.72-4.17,3.24-2.12,7.54-2.77,11.07-.99l-.3-2.36c-2.7,3.23-7.14,4.81-11.27,3.8-1.76-.43-4.06-1.45-2.48-3.48,1.68-2.14,5.03-.94,7.15-.27l-.9-2.2c-1.74,2.4-4.94,3.8-7.89,3.38s-5.28-2.88-5.79-5.84c-.48-2.75.83-5.35,3.45-6.4s5.6-.44,6.99,2.02c1.52,2.69.61,6.25-1.52,8.32-2.42,2.36-6.18,3.19-9.46,2.76s-5.05-2.95-4.92-6.18c.13-2.96,2.12-6,5.13-6.67s4.61,1.98,4.61,4.63c0,3.03-1.79,5.71-4.25,7.37s-5.86,2.51-8.91,1.66-5.5-3.29-6.6-6.18c-1.15-3.05-.67-6.38,1.44-8.88,1.97-2.33,5.14-3.9,8.23-3.33s5.8,3.73,3.34,6.68c-1.85,2.22-4.97,3.37-7.79,3.62-4.99.44-11.21-1.55-12.58-6.96-1.82-7.17,5.22-13.68,11.38-15.7,3.24-1.06,6.77-1.32,10.1-.52,2.89.69,6.37,2.66,7.11,5.78s-2.32,5.73-5.12,6.41c-2.47.6-5.15.05-7.33-1.2s-4-3.27-4.56-5.79c-.65-2.88.61-5.84,2.62-7.88s4.87-3.41,7.78-3.17c3.34.27,6.5,2.91,4.75,6.4-1.6,3.2-4.86,5.92-7.72,7.96s-6.2,3.76-9.64,4.87c-2.97.96-6.2,1.75-9.32,1.06s-5-2.64-3.75-5.84c2.44-6.2,9.86-10.72,16.44-10.38,2.72.14,5.74,1.26,7.49,3.42,1.64,2.02,1.53,4.83-.22,6.74-3.77,4.11-11.13,4.42-16.04,2.58-2.22-.83-4.64-2.47-4.86-5.04-.3-3.45,3.19-5.81,6.14-6.54,3.44-.85,7.04-.04,9.91,1.97l-.69-1.69c-1.34,3.29-5.22,4.71-8.39,5.53-4.23,1.09-8.6,1.6-12.97,1.58s-8.9-.62-13.21-1.78c-1.96-.53-4-1.1-5.83-1.99-1.34-.66-3.03-1.63-3.46-3.17-1.07-3.8,5.49-4.85,7.9-4.91,3.82-.09,8.2,1.11,10.97,3.87,1.17,1.17,1.85,2.75,1.11,4.34-.65,1.42-2.08,2.4-3.42,3.11-3.33,1.77-8.22,2.65-11.78,1.15s-5.12-5.11-3.15-8.52c1.68-2.9,4.77-4.84,7.93-5.77,5.74-1.67,12.48-.32,17.02,3.62,1.51,1.32,6.04,6.03,3.45,7.95-1.06.79-2.71.55-3.68-.25-1.38-1.12-1.94-3.05-2.13-4.75-.85-7.64,3.96-15.28,11.22-17.78,3.55-1.22,7.51-1.36,11.08-.14,2.97,1.02,6.76,3.99,5.57,7.56s-5.8,5-9.02,5.76c-4.31,1.03-8.88.95-13.16-.22-3.61-.99-7.3-2.84-6.69-7.21.56-3.99,4.2-6.51,7.52-8.21s7.98-3.08,10.94,0c2.78,2.89.02,6.56-2.57,8.36-3.35,2.34-7.75,3.46-11.77,3.9-4.24.46-8.54.13-12.65-1.05-1.33-.38-3.88-.91-4.25-2.53-.43-1.88,2.09-3.48,3.43-4.23,3.47-1.94,7.46-2.84,11.43-2.69,3.61.13,8.13,1.08,10.75,3.77,2.97,3.05.96,7.48-1.09,10.42-4.35,6.24-10.97,11.13-17.79,14.35-3.44,1.62-7.09,2.81-10.82,3.57-3.32.68-7.15,1.4-10.49.45-1.12-.32-2.58-.9-3.05-2.07-.64-1.59.85-3,2.05-3.8,3.3-2.2,7.57-3.01,11.46-2.34,1.85.32,3.78.91,5.35,1.97,1.92,1.3,1.91,3.02.71,4.88-2.02,3.13-5.22,5.57-8.58,7.11-1.72.79-3.65,1.4-5.54,1.63-1.13.14-3.01.2-3.79-.84-.94-1.26.52-3.93,1.05-5.18.69-1.64,1.5-3.24,2.41-4.77,3.69-6.22,9.07-11.38,15.4-14.85,3.28-1.79,6.82-3.15,10.49-3.87s8.65-.48,10.61,3.4-1.94,7.19-4.67,9.13c-3.39,2.41-7.28,4.03-11.38,4.75-3.28.58-7.3.8-10.26-1.03-3.39-2.1-2.55-6.22-.33-8.88,2.36-2.83,6.16-4.45,9.79-4.72s8.24.49,10.45,3.48c2.49,3.36-.54,7.49-3.53,9.17-2.8,1.58-6.49,2.63-9.72,2.1-1.23-.2-2.63-.66-3.3-1.8-.75-1.27-.25-2.7.67-3.72,1.11-1.24,2.67-2.1,4.21-2.69,2.07-.78,4.34-1.41,6.57-1.24,1.75.13,3.52.91,4.55,2.38,1.16,1.64.68,3.53-.29,5.14-1.98,3.3-5.22,6.05-8.46,8.05s-6.88,3.38-10.65,4.03c-2.56.44-8.83,1.38-7.93-3,.72-3.49,4.12-6.13,7.06-7.74,3.19-1.76,7.24-2.34,10.23.16,3.47,2.9,1.56,6.95-.79,9.9s-5.15,5.6-8.23,7.78c-6.22,4.41-13.63,7.21-21.26,7.75-1.49.11-3.36.37-4.76-.31-1.96-.95.34-2.94,1.4-3.59,2.92-1.78,6.94-1.88,9.75.17,2.59,1.89,3.68,5.57,2.73,8.59s-4.05,4.74-7.15,4.5-5.2-2.5-5.33-5.5c-.14-3.29,1.96-6.02,5.35-6.21,1.94-.11,3.94.43,5.65,1.33,1.44.76,3.07,2.14,1.23,3.46-3.21,2.3-7.73,3.26-11.61,3.35s-8.17-.65-11.57-2.67c-1.44-.86-2.68-2.18-2.56-3.96.09-1.46.96-2.77,1.98-3.77,2.17-2.11,6.04-3.3,8.66-1.24,1.3,1.03,1.1,2.71.07,3.87-.86.98-2.22,1.44-3.5,1.46-3.22.05-5.14-2.75-4.82-5.81.37-3.51,3.5-5.61,6.87-5.58,1.62.02,3.88.51,4.91,1.91.93,1.27-.78,2.34-1.96,2.1-1.7-.35-2.66-2.34-3.08-3.84-.46-1.64-.49-3.39-.12-5.05.75-3.37,2.98-6.33,6.24-7.61s7.18-.89,10.18,1.11l-.69-1.69c-.64,1.74-3.36,1.33-4.51.44-2.29-1.77-1.23-5.59-.08-7.66,2.31-4.17,7.09-6.76,11.8-6.9,2.26-.07,4.51.42,6.43,1.65,2.19,1.4,4.16,4.05,3.53,6.77s-3.18,4.59-5.73,5.26c-3.37.89-7.05.24-10.39-.48-1.26-.27-2.48-.7-2.2-2.2.26-1.41,1.33-2.57,2.36-3.5,1.73-1.56,3.82-2.74,6.03-3.48,4.53-1.52,9.5-1.4,13.98.2,2.19.78,4.28,1.97,6.02,3.51.84.74,1.62,1.56,2.3,2.45.42.55,1.06,1.3,1.14,2.01.09.83-.56,1.29-1.16,1.73-5.25,3.89-12.07,5.81-18.56,5.68-2.12-.04-6.33-.17-6.7-3s3.02-5.78,5.08-7.24c4.65-3.28,11.09-4.6,16.47-2.37,2.55,1.06,4.77,3,5.46,5.76.75,3.02-.39,6.26-2.2,8.69-1.92,2.58-4.62,4.47-7.32,6.15-2.32,1.45-5.58,3.63-8.35,2.03s-.45-5.73.79-7.77c1.45-2.39,3.38-4.51,5.62-6.2,4.19-3.15,9.97-5.3,15.23-4.03,2.25.54,4.52,1.77,5.39,4.05,1.15,3.01-.52,6.33-2.18,8.79-3.28,4.86-8.23,8.65-13.72,10.66-2.65.97-5.55,1.71-8.4,1.65-2.38-.05-5.25-1.07-5.01-3.94.55-6.62,9.84-5.4,14.08-3.89,4.85,1.72,9.98,5.78,10.45,11.29.4,4.65-3.32,10.4-8.34,10.45-2.61.03-5.74-1.88-4.65-4.85,1.01-2.76,4.12-4.49,6.79-5.25,2.86-.82,5.99-.73,8.77.38,2.04.81,5.07,3,3.65,5.53-1.07,1.9-3.86,2.54-5.86,2.61-2.47.08-5.1-.56-7.19-1.9-2.28-1.45-3.46-3.87-2.79-6.56.74-2.94,3-5.46,5.43-7.18s5.33-2.95,8.26-3.11c1.07-.06,2.32.13,2.55,1.37s-.44,2.56-1.01,3.55c-1.4,2.44-3.82,4.74-6.19,6.23s-5,2.13-7.59,1.01c-6.37-2.78-1.19-10.93,3.65-12.22,2.53-.67,5.56.5,6.6,3.02,1.2,2.92-1.61,5.63-3.88,6.99-2.55,1.54-5.83,2.2-8.47.5-2.84-1.82-3-4.87-1.47-7.66,2.49-4.54,7.02-7.7,11.95-9.08s10.26-1.09,14.72,1.32c.75.4,2.56,1.35,1.93,2.43-.67,1.15-2.91,1.54-4.07,1.81-3.3.79-6.79.63-10.01-.39-2.22-.71-5.89-2.33-5.49-5.26.31-2.26,2.95-3.56,4.89-4.08,2.36-.63,5.22-.45,7.34.83,2.71,1.64,2.39,4.84,1.05,7.3-2.84,5.21-9.16,8.51-14.95,8.95-1.3.1-2.91.25-4.14-.29s-1.22-1.82-.8-2.94c.99-2.65,3.71-4.32,6.13-5.5,2.63-1.28,5.57-1.95,8.49-2.01,2.67-.05,6.13.24,8.41,1.79,3.08,2.09-1.84,4.73-3.53,5.56-2.81,1.38-5.97,2.11-9.09,2.17-2.84.06-6.37-.25-8.83-1.81-.75-.48-2.1-1.51-2-2.55.12-1.17,1.96-1.43,2.88-1.39,2.37.08,4.6,1.89,5.47,4.05,1,2.47.02,5.29-1.7,7.18-4.36,4.79-11.33,3.31-15.95-.25l-.36,2.74c7.07-2.48,14.92-2.25,21.77.84,1.43.64,3.2-1.14,1.82-2.36-3.34-2.94-7.66-3.87-11.9-4.73-4.01-.82-8.34-1.62-11.02-5.01l-.3,2.36c2.79-1.98,6.09-2.98,9.52-2.84,2.17.09,8.63,1.16,7.65,4.54-.47,1.64-2.19,2.88-3.5,3.83-1.43,1.04-2.95,1.95-4.53,2.74-3.16,1.56-6.65,2.59-10.16,2.96s-6.89.32-10.1-.76c-2.41-.81-5.34-2.47-5.92-5.18-.69-3.22,2.4-5.62,5.01-6.74,3.47-1.49,7.49-1.79,11.15-.95,1.63.37,3.51.89,4.7,2.14,1.31,1.36.4,2.59-.76,3.7-2.43,2.32-5.46,3.97-8.68,4.9s-6.65,1.14-9.93.48c-1.42-.29-3.3-.72-2.78-2.56.48-1.7,2.26-2.31,3.82-2.62,3.03-.59,8.09-1.43,10.17,1.54,2.19,3.13-2.99,5.62-5.27,6.48-3.26,1.23-6.89,1.57-10.3.81-3.04-.67-7.07-2.41-5.66-6.24,1.18-3.2,4.56-5.44,7.41-7.03,3.02-1.69,6.31-2.8,9.67-3.56s7.06-1.17,10.64-1.34c2.87-.13,6.05-.37,8.74.84,1.13.5,2.04,1.29,2.42,2.49l.39-1.46c-4.74,5.18-10.83,8.96-17.55,10.99-3.31,1-6.74,1.59-10.2,1.7s-6.95-.05-10.14-1.14c-2.66-.91-5.67-3.13-3.61-6.12,1.95-2.84,5.41-4.79,8.65-5.73s6.99-1.17,10.06.12c3.84,1.61.16,5.57-2.05,6.72-3.4,1.77-7.84,2.18-11.56,1.46-2.82-.55-6.39-2.41-4.79-5.79,1.46-3.09,4.5-5.53,7.61-6.8,2.61-1.06,6.48-1.93,9.02-.23,3.24,2.17-2.24,5.93-4.01,7.07-2.99,1.93-6.42,3.21-9.96,3.64-3.03.37-7.28.51-9.84-1.46-3.33-2.56.95-6.3,3.21-7.73,2.99-1.89,6.48-2.93,10.02-3.01,1.74-.04,3.46.14,5.14.58,1.46.38,3.39.9,4.28,2.25,1.65,2.51-6.07,4.34-7.58,4.62-3.53.64-7.23.3-10.62-.86-1.68-.57-3.24-1.39-4.71-2.38v2.59c6.11-4.55,14.86-4.76,21.16-.44,1.49,1.03,3.31,2.54,3.6,4.44s-1.07,3.43-2.54,4.33c-2.92,1.78-8.31,1.49-9.21-2.5-1.01-4.44,4.3-4.91,7.41-4.21,3.48.78,6.71,3.28,6.89,7.08.15,3.16-1.88,6.38-5.37,5.89-2.98-.42-4.98-3.36-3.04-6.03,2.16-2.98,6.4-3.56,9.79-3.3,3.56.27,9.93,1.64,9.64,6.29-.27,4.32-4.67,6.3-8.34,7.11-2.11.47-7.79,1.32-8.06-2.08s5.15-7.39,7.95-4.59c.81.81,1.65,2.71.44,3.58-.7.51-2.17.3-2.69-.4-.81-1.1,1-2.03,1.83-2.28,1.87-.56,4-.3,5.86.14,2.1.5,4.22,1.37,5.93,2.7.67.52,1.31,1.18,1.07,2.09-.21.81-.95,1.47-1.68,1.81-2.01.93-4.54-.33-6.34-1.2-.37-.18-1.72-.66-1.65-1.21.05-.43,1.25-.65,1.54-.7,1.87-.37,4.25-.05,6.04.54,1.66.55,3.72,2.16,3.26,4.17-.43,1.87-2.81,3.32-4.29,4.31-1.7,1.13-3.52,2.11-5.42,2.85-3.82,1.48-7.91,2.17-12.01,1.99-2.05-.09-4.05-.42-6.03-.96l1.1,1.45c-.07-1.77,2.16-2.99,3.72-2.24,1.7.81,2.05,3.28,1.38,4.86-1.77,4.14-9.25,4.21-11.15.16-.69-1.48-.3-4.1,1.57-4.51.78-.17,1.71.21,2.23.8.78.9.22,1.89-.47,2.68-3.05,3.46-9.68,6.61-13.98,3.53-1.63-1.16-2.57-3.95-.99-5.57,1.24-1.27,4.08.02,3.44,1.84l1.05-1.05c-3.95,1.34-8.18,1.49-12.19.33-1.71-.5-4-1.19-5.13-2.66-1.05-1.36-.55-3.2.23-4.56,3.47-6.01,12.9-6.26,17.83-2.1l1.06-2.56c-4.56.21-9.7-2.64-9.21-7.84.42-4.4,5.35-5.66,9.04-4.95,4.12.79,7.97,3.81,9.51,7.76,1.4,3.6.5,7.44-2.94,9.41-2.79,1.6-7.12,1.63-8.38-1.93-.78-2.21.84-4.25,2.88-4.98,2.42-.86,5.17.07,7.31,1.26,1.84,1.02,3.81,2.56,4.22,4.76.31,1.62-.44,4.05-2.46,3.89-.65-.05-1.53-.44-1.77-1.1-.32-.89.47-2,.94-2.69,1.1-1.63,2.79-3.02,4.63-3.73s4.08-.69,5.32,1.09c1.13,1.62.56,3.85-.38,5.4-3.01,4.97-9.98,3.68-14.73,2.77-1.89-.36-2.65,2.28-.8,2.89,1.23.41,2.04,2.02,1.42,3.22-.66,1.29-2.4,1.46-3.5.73l.69,1.69c.74-1.99,1.86-4.12,3.8-5.17,1.65-.89,4.29-1,5.15,1.02.56,1.31-.01,3.19-1.71,2.63-1.82-.61-.56-2.04.61-2.49,1.61-.63,3.49-.56,5.05.18,1.05.5,2.41,1.89.74,2.67-1.49.69-3.54-.05-4.98-.52-1.99-.66-4.03-1.49-5.67-2.84s-2.66-3.02-2.6-5.14c.05-1.69.83-3.45,2.55-3.96,1.85-.54,1.06-3.44-.8-2.89h0Z"/>
      <path class="cls-2" d="m370.29,160.46c1.93,0,1.93-3,0-3s-1.93,3,0,3h0Z"/>
      <path class="cls-2" d="m178.15,140.19c1.93,0,1.93-3,0-3s-1.93,3,0,3h0Z"/>
      <path class="cls-2" d="m349.8,128.47c-1.03,3.49,2.53,6.17,5.74,6.08,4.16-.11,6.25-4.34,7.2-7.84,1.05-3.85,1.94-8.98-2.61-10.88-3.45-1.45-7.59-.15-10.68,1.6-3.44,1.94-6.8,5.15-7.39,9.24-.55,3.85,1.6,7.21,4.83,9.14,1.6.96,3.4,1.6,5.2,2.09s3.83,1.06,5.69.99c5.22-.21,4.08-6.31,2.26-9.45-1.66-2.86-6.59-7.49-9.92-4.37-1.25,1.17-1.68,3.04-1.35,4.69.4,1.95,1.98,3.39,3.62,4.38s3.88,2.29,5.84,1.77c2.08-.56,2.78-2.81,3.02-4.72.5-4.03-1.38-8.23-4.49-10.77-3.4-2.78-8.02-3.93-12.36-3.46-3.56.39-7.82,2.51-7.35,6.74s5.43,6.5,9.07,7.68c4.55,1.48,9.61,2.05,14.36,1.27,4.26-.7,7.71-3.38,8.39-7.8.64-4.18-.83-8.58-3.12-12.06s-5.99-7.38-10.31-7.41-7.43,4.06-8.01,8.05c-.36,2.46-.04,4.91.4,7.34l2.51-1.46c-3.12-3.13-7.95-5.25-12.42-4.51-3.47.57-8.04,4.31-5.46,8.1,2.19,3.23,7.52,3.8,10.97,2.81,3.88-1.12,6.69-4.55,6.49-8.67-.42-8.37-9.4-13.51-17.05-13.1-3.58.19-7.2,1.44-9.79,3.99-3.02,2.98-4.51,7.81-2.4,11.71s7.34,6.42,11.63,7.45c4.02.97,10.72,1.74,11.67-3.72.36-2.09-.24-4.19-1.01-6.12-.83-2.08-1.84-4.09-3.06-5.97-2.48-3.82-5.7-7.12-9.45-9.7-2.99-2.06-7.94-5.17-11.53-2.71-4.24,2.91-.83,8.74,1.32,11.79s6.75,9.44,10.82,5.96c1.63-1.39,2.23-3.73,2.59-5.75.44-2.45.46-4.92.08-7.39-.68-4.41-2.74-9.07-6.56-11.62-3.54-2.36-8.29-1.71-10.54,2.08-.96,1.62-1.2,3.65-.29,5.34,1.1,2.04,3.43,3.05,5.41,4.01,4.68,2.26,9.63,3.96,14.73,5.01,2.54.53,5.11.89,7.7,1.11,1.05.09,1.6-1.03,1.45-1.9-.83-4.65-3.14-8.97-6.42-12.35s-7.95-6.43-12.63-6.58c-2.16-.07-4.34.92-5.4,2.86-.97,1.76-.95,3.88-.51,5.79,1.03,4.49,4.65,8.04,8.34,10.54,4.7,3.2,10.45,4.83,16.13,4.54.74-.04,1.6-.66,1.5-1.5-.61-5.25-3.95-9.34-8.05-12.44-4.43-3.35-9.69-5.72-15.08-7.06-2.71-.67-5.49-1.08-8.27-1.23s-5.7-.11-8.34.82c-4.73,1.67-8.22,6.59-5.79,11.52,1.08,2.19,3.12,3.81,5.13,5.1,2.41,1.54,5.01,2.8,7.66,3.86,5.36,2.13,11.19,3.26,16.96,3.25,2.38,0,4.93-.36,6.59-2.24,1.49-1.69,1.71-3.96,1.32-6.09-.87-4.77-4.75-8.78-8.28-11.84-3.83-3.32-8.22-5.92-12.97-7.69s-10.64-3.09-15.83-2.08c-4.69.91-9.28,4.92-8.62,10.1s6.47,8.84,11.04,10.65c2.61,1.04,5.39,1.63,8.2,1.8,2.45.15,5.06.03,7.31-1.04,5.31-2.54,3.76-8.89,1.06-12.78-5.49-7.93-15.65-12.48-25.22-10.89-4.1.68-9.03,3.55-9.2,8.19-.2,5.37,5.98,8.15,10.15,9.74,5.42,2.06,11.39,2.79,17.15,2.09,2.2-.27,4.69-.8,6.01-2.77,1.54-2.29.49-4.94-1.11-6.88-3.06-3.71-7.58-6.41-11.99-8.19s-9.24-2.67-14.01-2.59-9.53,1.13-13.88,3.16c-4.06,1.9-9.18,6.25-7.15,11.3.92,2.3,3.12,3.8,5.27,4.85,2.44,1.19,5.06,1.87,7.76,2.07s5.45-.15,7.98-1.03c2.22-.77,4.56-1.99,5.53-4.26,1.96-4.58-3.21-8.77-6.81-10.57-3.78-1.9-8.11-2.55-12.3-2.02s-8.04,2.13-11.2,4.85c-1.64,1.41-3.47,3.37-4.05,5.5-.67,2.5,1.04,4.5,3.32,5.22,4.75,1.49,10.21-1.32,13.75-4.29,3.76-3.16,7.74-8.21,7.33-13.42-.41-5.22-5.36-8.27-10.12-8.98s-9.4.57-13.35,3.07c-2.02,1.27-3.87,2.87-5.38,4.72-1.64,2.01-3.29,4.45-3.14,7.17.33,5.59,6.19,7.9,10.97,8.22,2.54.17,5.92.58,7.97-1.25,1.78-1.59,2.03-4.32,1.16-6.43-.96-2.32-3-3.93-4.99-5.35s-4.06-2.55-6.26-3.49c-8.99-3.84-19.58-4.04-28.66-.35-2.23.91-4.37,2-6.36,3.35s-4.29,3.21-4.83,5.77c-1.23,5.88,7.2,7.39,11.25,8.16,5.76,1.09,11.68,1.07,17.44-.03,3.75-.72,12.48-2.28,11.4-7.86-.48-2.44-2.8-3.93-4.85-4.97-2.3-1.17-4.74-2.09-7.24-2.71-5.16-1.29-10.58-1.41-15.81-.43-2.54.48-5.01,1.26-7.39,2.28s-4.77,2.16-6.47,4.02-2.47,4.48-.74,6.58c1.59,1.94,4.65,2.67,6.98,3.2,5.51,1.24,11.41.91,16.69-1.12,2.19-.84,4.58-2.04,5.26-4.49s-.8-4.57-2.64-5.97c-2.15-1.64-4.88-2.49-7.44-3.27-2.79-.85-5.65-1.44-8.54-1.81-5.84-.76-11.79-.52-17.55.71-5.21,1.12-10.29,3.18-14.43,6.58-1.89,1.55-3.97,3.54-4.69,5.95s.32,4.67,2.3,6.08c3.25,2.31,8.78,2.73,12.11.37,1.64-1.17,2.5-3.09,1.96-5.08-.66-2.43-3.06-3.86-5.26-4.71-4.83-1.87-10.18-.82-14.73,1.32-2.4,1.13-4.62,2.6-6.67,4.27-1.72,1.4-3.83,3.22-3.73,5.66.12,2.93,3.48,3.5,5.77,3.8,2.69.35,5.43.21,8.08-.39s5.19-1.67,7.43-3.16c2-1.34,3.82-3.31,2.98-5.9-1.45-4.45-7.73-5.53-11.74-5.66-4.47-.14-8.98,1.05-12.88,3.21s-7.24,5.39-9.34,9.33c-1.17,2.2-2.09,4.96-.54,7.22,1.33,1.93,3.73,2.6,5.95,2.82,9.82.98,20.18-3.35,27.1-10.2,2.79-2.76,8.33-8.55,4.81-12.59-3.09-3.54-8.77-1.04-12.07.73-8.91,4.76-16.07,12.71-19.86,22.07-.98,2.42-1.42,5.27.48,7.38,1.48,1.65,3.82,2.2,5.95,2.3,5.12.24,10.53-1.49,14.91-4.04,4.13-2.4,9.55-6.54,9.6-11.81.04-4.56-4.15-7.75-8.21-8.78-9.79-2.49-18.88,5.05-24,12.58-1.41,2.08-2.65,4.28-3.68,6.57-.95,2.12-1.79,4.6-1.16,6.94,1.51,5.6,9.02,4.3,12.84,2.25,2.13-1.15,4.38-2.99,5.37-5.25s.12-4.54-1.83-5.91c-3.59-2.53-9.09-2.03-13.08-.88-8.47,2.43-15.63,9.69-17.07,18.5-.16.97.39,1.87,1.45,1.9,4.17.13,8.36-1.63,11.13-4.77,1.39-1.58,2.67-3.6,2.67-5.78,0-1.84-1.08-3.46-2.67-4.34-3.45-1.91-7.97-.85-11.46.36-4.11,1.42-7.92,3.75-11.01,6.82-2.43,2.41-6.2,7.63-1.93,10.32,1.81,1.14,4.14.84,6.15.56,2.17-.3,4.31-.8,6.37-1.55,4.18-1.51,8.04-3.84,11.29-6.89,2.51-2.36,5.47-5.87,4.52-9.63-.46-1.82-2.04-3.03-3.9-3.16-2.14-.14-4.36,1.02-6.1,2.19-3.29,2.21-6.6,5.97-7.25,10.01-.32,1.97.64,3.8,2.58,4.43,1.75.58,3.67.15,5.34-.49,4.11-1.59,7.67-4.28,10.28-7.82,2.27-3.07,3.52-8.38-.82-10.36-1.82-.83-3.87-.67-5.79-.34-2.03.35-4.04.93-5.88,1.87-3.39,1.74-5.95,4.99-5.64,8.94.27,3.48,2.79,6.84,6.59,6.52s6.88-4.36,6.22-8.19-4.6-6.73-8.47-6.89c-4.27-.17-8.04,2.51-10.47,5.81-1.17,1.58-2.37,3.65-2.01,5.69.41,2.33,2.64,3.15,4.68,3.66,2.48.62,5.04.81,7.58.59,1.91-.16,1.93-3.17,0-3s-3.78.13-5.64-.23c-1.14-.22-3.88-.44-3.65-2.09.18-1.37,1.34-2.83,2.23-3.84.99-1.12,2.14-2.08,3.48-2.75,2.57-1.29,5.7-1.15,7.84.91s2.07,5.08-.4,6.74c-2.16,1.45-4.35,0-4.87-2.32s.58-4.59,2.49-6.02c2.25-1.68,5.47-2.59,8.26-2.68,1.22-.04,2.79.12,3.28,1.46s-.27,2.95-.96,4.06c-1.62,2.63-4.16,4.8-6.83,6.29-.9.5-6.62,3.36-6.49.64.06-1.25,1.03-2.76,1.69-3.78.87-1.36,1.99-2.58,3.25-3.58,1.11-.89,6.02-4.2,6.52-1.34.44,2.57-2.11,5.01-3.78,6.58-2.33,2.19-5.02,3.96-7.92,5.29s-6.04,2.18-9.19,2.45c-.96.08-2.88.38-3.38-.76-.59-1.34.97-3.14,1.77-4.03,2.31-2.57,5.1-4.64,8.21-6.14,2.86-1.38,6.46-2.63,9.69-2.29,1.06.11,2.45.44,3,1.46.82,1.54-.71,3.55-1.7,4.65-2.27,2.5-5.51,3.86-8.88,3.75l1.45,1.9c1.18-7.21,6.53-13.33,13.34-15.87,3.2-1.19,7.07-1.85,10.42-.9,1.41.4,3.3,1.36,2.57,3.1s-2.95,3.26-4.66,4.08-3.92,1.38-5.82,1c-2.16-.42-2.44-2.32-1.98-4.17.9-3.68,3.28-7.32,5.54-10.3,4.3-5.68,11.7-11.53,19.34-9.7,2.99.72,6.73,3.06,6.11,6.63-.36,2.1-2,3.79-3.51,5.18-1.59,1.46-3.36,2.7-5.25,3.73-3.64,1.98-7.86,3.22-12.02,3.25-1.51,0-3.61-.18-4.56-1.53-1.16-1.65.25-4.19.98-5.76,3.43-7.37,9.06-13.65,16.03-17.84,2.4-1.44,6.59-4.19,9.55-2.81,3.36,1.58-2.99,7.87-4.36,9.19-5.69,5.5-13.48,8.89-21.4,9.13-1.79.06-3.81.12-5.49-.61-2.14-.94-1.68-2.94-.79-4.7,1.58-3.13,4.04-5.77,6.97-7.68s6.31-3.19,9.79-3.56,7.58-.15,10.45,1.81c.6.41,1.34,1.04,1.49,1.79.2,1.04-.94,1.76-1.68,2.26-1.76,1.17-3.69,2.05-5.73,2.61s-4.27.81-6.45.7c-1.02-.05-2.03-.18-3.03-.41-.92-.2-1.91-.32-1.36-1.42.86-1.71,3.02-3.06,4.56-4.11,1.75-1.19,3.62-2.24,5.6-2.99,3.65-1.38,7.84-1.9,11.47-.17,1.21.57,3.51,1.98,2.49,3.61-.67,1.07-2.33,1.43-3.48,1.55-2.72.28-8.69-1.04-6.58-4.91,1-1.83,2.86-3.39,4.53-4.59s3.51-2.21,5.41-3.01c4.08-1.72,8.53-2.63,12.93-2.97,4.81-.37,9.67-.05,14.38.98,2.35.51,4.66,1.19,6.91,2.04,1.68.63,3.75,1.45,4.72,3.07,2.16,3.61-6.94,5.16-8.96,5.41-4.33.55-9.39.16-13.35-1.82-4.71-2.35,3.68-6.28,5.65-7.07,3.89-1.56,8.05-2.36,12.23-2.38s8.48.75,12.44,2.32c1.77.7,4.06,1.57,5.3,3.09,1.34,1.63-.45,2.8-1.87,3.39-8.55,3.61-18.97,3.48-27.72.73-1.44-.45-4.44-1.17-4.18-3.22.24-1.91,2.46-3.33,3.91-4.28,3.24-2.12,6.84-3.59,10.62-4.44,7.55-1.71,15.79-.85,22.75,2.6,1.76.87,3.45,1.9,5.02,3.08,1.41,1.07,3.19,2.5,3.39,4.39.28,2.58-2.03,2.71-4,2.69-2.29-.03-4.7-.06-6.86-.96-1.69-.71-3.34-2.18-3.68-4.05-.37-2,1.12-4.02,2.33-5.47,2.38-2.86,5.55-5.09,9.11-6.21s7.45-1.12,10.75.62c1.77.93,3.33,2.38,3.69,4.43s-.46,4.17-1.47,5.92c-2.04,3.53-5.32,6.67-9.05,8.35-1.75.79-3.89,1.35-5.83,1.11-.63-.08-1.59-.28-1.97-.85-.56-.83.35-1.96.84-2.62,3.83-5.18,11-7.4,17.22-6.35,3.22.54,6.32,1.9,8.7,4.18,1.34,1.29,2.84,3.25,1.3,4.96-1.26,1.4-3.44,1.99-5.21,2.37-4.16.9-8.68.21-12.37-1.91-1.58-.91-3.4-2.28-3.14-4.34.25-1.92,1.96-3.55,3.46-4.59,3.09-2.16,7.02-3.29,10.71-3.87s7.58-.46,11.26.27,7.41,2.13,10.71,4.15c1.64,1.01,3.17,2.16,4.58,3.47,1.09,1.02,3.58,3.24,2.26,4.87-1.11,1.38-3.8,1.39-5.39,1.5-2.26.15-4.55.09-6.79-.21-4.42-.6-9.12-2.03-12.83-4.58-1.47-1.01-2.99-2.58-2.71-4.53.22-1.51,1.5-2.68,2.74-3.44,3.17-1.95,7.26-2.07,10.85-1.46,3.78.65,7.38,2.18,10.45,4.49s6.04,5.53,6.81,9.25c1.04,5.06-4.99,5.25-8.45,4.95-4.38-.38-8.81-2.06-12.25-4.81-1.56-1.24-3.14-2.92-3.41-4.98-.24-1.84.77-3.58,2.08-4.79,3.25-3,8.46-2.46,12.45-1.69,8.04,1.56,15.49,5.72,21.02,11.77,2.14,2.34,5.23,6.06,4.25,9.53-.53,1.87-2.45,2.32-4.18,2.38-2.29.08-4.62-.09-6.89-.42-4.6-.68-9.11-2.07-13.27-4.16-3.02-1.51-8.41-4.07-8.21-8.15.23-4.57,5.77-5.8,9.4-5.85,4.6-.07,9.2.72,13.56,2.22,3.96,1.36,7.87,3.34,11.15,5.97,3.01,2.41,5.79,5.64,6.26,9.61l1.5-1.5c-4.14.21-8.27-.65-11.95-2.55-3.44-1.77-7-4.51-8.79-8.02-1.21-2.38-1.98-7.17,1.99-7.16,3.75,0,7.76,2.8,10.32,5.32,3.15,3.1,5.25,7.06,6.03,11.41l1.45-1.9c-7.94-.7-15.83-2.95-22.87-6.71-1.16-.62-2.68-1.45-2.54-2.98.12-1.28,1.21-2.44,2.33-2.97,2.93-1.39,5.93,1.44,7.36,3.74,1.96,3.14,2.74,6.98,2.52,10.64-.1,1.73-.38,3.7-1.18,5.25-.24.46-.63,1.15-1.21,1.23-.89.12-1.85-1.03-2.39-1.56-2.46-2.4-5.23-5.65-6.11-9.05-.38-1.45-.02-2.9,1.67-2.99,1.49-.08,2.96.67,4.24,1.35,6.05,3.26,10.9,8.54,13.71,14.81,1.01,2.26,2.96,7.14-.99,7.58-3.75.42-7.95-.91-11.17-2.74s-5.72-4.5-4.55-8.35c.79-2.61,2.85-4.6,5.31-5.67,4.94-2.16,11.41-1.09,15.29,2.66,2.14,2.07,3.98,5.26,3.12,8.33-.77,2.73-3.53,4.1-6.2,4.17-1.59.04-7.36-.98-5.35-3.58s5.95-2.07,8.63-1.06c1.68.63,3.17,1.66,4.43,2.92,1.13,1.13,2.76-.06,2.51-1.46-.58-3.24-1.05-7.18,1.31-9.86s5.24-1.73,7.65.29,4.27,4.61,5.36,7.52c.97,2.6,1.58,5.8.3,8.4-1.42,2.87-4.88,3.5-7.77,3.62-3.46.15-6.9-.31-10.2-1.33-2.39-.74-6.67-2.1-7.28-5-.56-2.69,3.1-3.61,5.07-3.73,5.9-.36,12.81,2.85,13.2,9.49.05.83.08,3.46-1.02,3.64-.53.09-1.29-.39-1.74-.6-.79-.38-1.59-.77-2.3-1.29-.91-.66-1.77-1.58-1.61-2.79.2-1.54,1.33-1.37,2.43-.74,2.45,1.38,4.5,4.28,4.54,7.16.02,1.51-1.32,1.17-2.44.97-1.34-.24-2.68-.53-3.99-.92-2.34-.69-4.96-1.76-6.35-3.9-1.49-2.3-.96-5.02.61-7.13,1.92-2.58,5.07-4.52,8.17-5.27,2.6-.63,6.05-.39,6.03,3.03-.01,1.67-.56,3.48-1.04,5.07-.44,1.44-1.04,2.95-2.16,4-.93.87-2.03,1.15-3.24.72-.92-.32-1.87-1.02-1.56-2.08.55-1.86-2.35-2.65-2.89-.8h0Z"/>
      <path class="cls-2" d="m356.54,166.3c-2.14.73-4.09,1.79-5.86,3.18s-3.39,3.05-4.28,5.03c-.96,2.15-.73,4.45.87,6.22,1.3,1.44,3.26,2.25,5.11,2.71s2.67-2.42.8-2.89c-1.31-.33-2.69-.82-3.66-1.8s-.83-2.33-.09-3.57c1.7-2.83,4.83-4.94,7.91-5.99,1.82-.62,1.04-3.52-.8-2.89h0Z"/>
      <path class="cls-2" d="m356.78,172.76c-1.8-.88-3.79-1.69-5.75-.81-1.61.73-2.65,2.44-2.11,4.2.99,3.27,6.52,3.98,8.97,2.2,1.5-1.09,1.98-3.05,1.62-4.81-.38-1.85-1.77-3.27-3.31-4.26-3.13-2.02-7.91-3.59-11.17-1.04s-3.06,7.18-.99,10.37,5.88,5.8,9.86,5.73c3.5-.06,8.32-2.66,7.71-6.79s-5.98-5.46-9.32-5.71c-3.57-.26-8.55.76-10.32,4.29-2.07,4.13,2.37,6.52,5.66,7.47,3.08.88,8.88,1.88,9.65-2.62.62-3.65-2.91-7.43-5.87-8.99-1.84-.97-4.08-1.63-6.08-.76-1.52.66-2.52,2.11-2.92,3.69-.87,3.46.91,7.01,3.46,9.27,5.79,5.15,16.26,7.05,22.58,1.91,2.86-2.32,4.29-5.99,3.51-9.61s-4.31-6.94-8.09-5.53c-6.82,2.53-5,16.6,3.05,14.05,1.49-.47,2.68-1.6,3.04-3.14.45-1.88-2.44-2.68-2.89-.8s-2.93,1.25-3.75.05c-1.16-1.73-.92-4.45.19-6.13,1.49-2.26,4.02-1.21,5.08.9.97,1.93.72,4.28-.41,6.08-3.02,4.8-9.6,4.65-14.37,3.19-3.75-1.14-9.11-4.23-8.61-8.89.62-5.74,8.96.2,9.15,3.76.13,2.48-4.74,1.01-5.92.67-1.64-.47-5.4-1.64-3.3-3.87,1.67-1.77,4.66-2.14,6.96-2.01,1.22.07,2.44.35,3.58.78.99.38,2.5,1.03,2.92,2.1s-.79,2.2-1.6,2.72c-1.02.66-2.25.94-3.46.9-2.47-.08-4.74-1.57-6.29-3.41s-2.73-5.28-.5-7.23,5.92-.15,7.94,1.17c1.01.66,2,1.61,1.94,2.9-.06,1.47-1.46,1.58-2.66,1.45-.51-.05-2.22-.32-2.2-1.07.03-1.43,3.1,0,3.51.2,1.73.85,3.25-1.74,1.51-2.59h0Z"/>
      <path class="cls-2" d="m354.63,222.27c10.6,1.05,20.62-6.13,22.97-16.53.83-3.68,1.7-11.37-3.51-12.13-2.06-.3-4.27.6-5.68,2.11-1.73,1.86-2.16,4.51-2.61,6.91-.51,2.73-1.37,5.18-3.32,7.22s-4.22,3.2-6.87,3.68l1.69.69c-.87-2.01,0-4.45,1.47-5.93,1.71-1.72,4.23-2.46,6.6-2.58.98-.05,1.92-.1,1.86,1.09-.05.96-.6,1.84-1.2,2.56-1.54,1.83-3.8,2.92-6.17,3.03l.76,2.8c3.29-2.22,7.11-3.54,10.21-6.06,2.49-2.04,4.1-5.13,4.04-8.39s-1.96-6.09-5.21-6.6-6.57,1.72-8.09,4.57c-2.37,4.44-.53,9.66,1.17,13.98.31.78.98,1.25,1.85,1.05,2.65-.61,5.56-1.75,6.01-4.79s-2.26-4.59-5-4.53c-5.25.1-10.11,4.34-10.83,9.55-.14,1,.38,1.83,1.45,1.9,3.8.25,7.56-.99,10.56-3.33,2.45-1.91,6.36-6.2,4.2-9.49-2.01-3.08-6.77-2.01-9.41-.53-3.15,1.77-5.5,5.02-5.99,8.62-.24,1.8.17,3.74,1.9,4.65,1.64.86,3.59.2,5.19-.41,3.45-1.32,7.16-3.74,6.55-7.98s-5.45-4.82-8.74-3.71c-3.52,1.19-6.32,4.15-7.87,7.46-1.44,3.08-2.42,8.23,1.72,9.69,1.41.5,3.15.28,4.19-.86,1.24-1.36.95-3.44-.35-4.65-2.9-2.71-7.01,1.26-4.92,4.39,1.12,1.68,3.64.6,5.15.02,1.76-.68,3.36-1.6,4.84-2.77,2.86-2.26,5.06-5.41,6.08-8.93.78-2.67.43-7.12-2.86-7.98-3.56-.93-5.19,3.46-3.63,6.08,2.03,3.4,6.98,2.57,10.17,1.79,3.66-.89,7.22-2.68,9.47-5.79,1.88-2.6,2.28-6.11,1.14-9.1s-3.76-5.29-7.09-5.12c-4.14.21-7.18,3.58-8.41,7.32-.66,2.01-.85,4.17-.95,6.28-.05,1.21,1.29,1.77,2.26,1.3,2.99-1.47,5.55-3.95,6.96-6.98s1.21-6.76-2.04-8.6c-3.04-1.72-6.58-.87-9.33,1-2.38,1.62-6.6,4.7-4.78,8.07s5.82,2.29,8.39.71c2.79-1.71,5.6-3.86,6.91-6.96,1.13-2.67.75-5.78-1.11-8.03s-5.13-2.75-7.58-1.06c-2.84,1.96-4.22,5.69-4.84,8.95-.69,3.62-.41,7.45,2.21,10.25.69.74,1.84.47,2.36-.3,1.42-2.13,2.97-4.75,2.22-7.41-.6-2.15-2.77-4.01-5.07-3.66-2.69.41-3.65,3.39-4.09,5.71-.57,3.01-.36,6.09.62,8.99.45,1.32,2.54,1.53,2.89,0,1.29-5.62-1.37-11.7-6.49-14.43-1.03-.55-2.21.14-2.26,1.3-.19,4.18,1.37,8.21,4.26,11.22.83.86,2.72.27,2.56-1.06-.57-4.68-2.92-8.73-6.73-11.52-1.32-.97-2.64.85-2.05,2.05,2.14,4.39,4.28,8.77,6.42,13.16.71,1.46,2.68.59,2.8-.76.51-5.94-1.35-11.76-5-16.44-.8-1.03-2.62-.16-2.56,1.06.24,4.71.49,9.42.73,14.13.09,1.67,2.45,2.06,2.95.4,1.35-4.52.79-9.38-1.51-13.49-.78-1.39-2.67-.64-2.8.76-.39,4.3-.02,8.61,1.05,12.79.35,1.35,2.65,1.51,2.89,0,.77-4.77,1.54-9.54,2.31-14.32.31-1.9-2.2-2.62-2.89-.8-1.74,4.56,1.59,10.07,6.51,10.41s9.41-4.5,8.04-9.47c-1.26-4.6-7.46-8.14-11.23-3.94-1.72,1.92-1.16,4.64,1.04,5.9,2.36,1.36,5.65,1.34,8.25.96,4.77-.7,11.86-4.24,8.75-10.08-1.23-2.3-3.66-4.18-5.98-5.27-2.01-.95-4.65-1.67-6.64-.3-2.14,1.47-2.12,4.51-1.15,6.66.92,2.03,2.75,3.51,4.79,4.32,4.32,1.7,9.03-.18,10.82-4.5,1.78-4.29.42-9.49-3.42-12.16-4.14-2.88-10.21-2.36-14.05.8-1.86,1.53-3.24,3.96-3.2,6.41.05,2.89,2.22,4.59,4.75,5.49,4.89,1.73,10.97.4,14.43-3.55s4.23-9.67,1.8-14.21-7.55-6.71-12.35-5.89-9.63,6.73-5.4,11.08c3.26,3.35,9.54,3.09,13.48,1.28,1.97-.91,3.66-2.47,4.33-4.58.86-2.74-.33-5.77-1.93-8-3.07-4.29-8.27-6.87-13.57-6.29s-10.68,4.2-12.24,9.58c-.73,2.53-.49,5.38,1.14,7.51,1.45,1.9,3.69,2.89,6.03,3.12,5.49.53,9.77-3.51,12.11-8.09,2.79-5.45,4-11.82,3.77-17.92-.17-4.67-1.06-11.2-5.85-13.51-2.5-1.21-5.11-.37-7.09,1.41s-3.87,4.3-5.35,6.64c-2.9,4.58-4.45,10.76-.17,15.05,3.49,3.5,9.26,4.15,13.88,3.08s9.35-4.76,8.48-10.15c-.47-2.92-2.36-5.5-4.38-7.57-1.91-1.95-4.21-3.6-6.81-4.47-4.91-1.66-10.44.46-12.29,5.48-.82,2.23-.49,4.67.97,6.55,1.67,2.16,4.38,3.31,6.9,4.15,4.31,1.44,9.82,2.03,13.65-.92,4.76-3.67,3.85-10.77,2.4-15.86s-4.38-11.56-9.94-13.12c-2.39-.67-5.15-.32-7.08,1.33-2.04,1.74-2.59,4.56-2.01,7.09,1.23,5.4,7.12,8.02,12.02,9.12,4.16.94,9.67.97,12.37-2.93,3.46-5-.9-11.24-4.43-14.84-3.78-3.86-9.82-6.48-14.94-3.51-4.69,2.72-5.59,9.4-1.83,13.27,1.58,1.63,4.43,3.12,6.77,2.54,3.18-.79,1.65-4.65.54-6.53-2.52-4.23-7.41-6.92-12.34-6.62-1.92.12-1.93,3.12,0,3,3.66-.23,7.29,1.5,9.38,4.54.49.71.91,1.48,1.18,2.29.06.17.11.56.2.68l.16-.14c.26-.16.21-.21-.16-.15-.41-.14-.89-.13-1.32-.28-1.72-.59-3.15-2.04-3.62-3.81-1.04-3.92,2.29-7.1,6.05-7.06,4.28.04,7.67,3.29,10.06,6.53,2,2.71,4.29,7.52.35,9.7-2.74,1.51-6.48.85-9.31-.04-3.55-1.11-8.08-3.09-8.35-7.39s4.91-4.95,7.75-2.75c3.28,2.55,5.02,7.23,5.94,11.13.86,3.64,1.69,9.07-1.88,11.58-2.79,1.96-6.76,1.42-9.83.54-2.89-.83-7.81-2.57-7.02-6.43.74-3.6,4.61-5.35,7.95-4.54,3.91.95,7.56,4.33,9.3,7.9.84,1.72,1.06,3.69,0,5.36-.87,1.38-2.37,2.31-3.86,2.87-3.26,1.23-7.29,1.29-10.48-.2-3.77-1.77-4.84-5.55-3.51-9.34.71-2,1.9-3.84,3.16-5.54,1.18-1.59,2.52-3.5,4.18-4.61,3.43-2.31,5.85,2.32,6.55,5.06,1.12,4.36.89,9.32,0,13.69-.82,4.05-2.22,8.51-5.04,11.64-2.29,2.55-6,4.17-9.29,2.43-3.7-1.95-2.67-6.81-.4-9.48,2.54-2.99,6.68-4.64,10.58-4.09s7.16,2.98,8.91,6.35c.85,1.64,1.32,3.67.09,5.24-.99,1.26-2.62,1.9-4.13,2.25-2.46.57-7.55.69-8.65-2.27-.68-1.8.96-3.61,2.42-4.42s3.3-.99,4.94-.68c3.56.67,6.43,3.31,7.11,6.9s-.8,7.47-3.74,9.57-7.45,2.67-10.82.96c-1.74-.88-2.02-2.46-1.23-4.16s2.24-2.84,3.92-3.49c3.15-1.24,7.28-.83,9.55,1.9,1.93,2.33,2.09,6.13.31,8.59s-5.35,2.54-7.75.81c-1.09-.78-1.92-1.95-2.04-3.3-.19-2.25,1.78-2.02,3.31-1.46,2.4.88,8.19,4.85,4.84,7.62-2.95,2.44-8.4,3.54-11.98,1.97-1.9-.83,0-2.23,1.25-2.33,1.59-.13,3.06,1.17,3.79,2.46,1.77,3.14-.67,6.81-4.19,6.83-3.34.02-5.2-3.75-4.1-6.63l-2.89-.8c-.77,4.77-1.54,9.54-2.31,14.32h2.89c-1.01-3.94-1.31-7.95-.94-11.99l-2.8.76c1.92,3.43,2.33,7.42,1.21,11.18l2.95.4c-.24-4.71-.49-9.42-.73-14.13l-2.56,1.06c3.16,4.06,4.56,9.22,4.12,14.32l2.8-.76c-2.14-4.39-4.28-8.77-6.42-13.16l-2.05,2.05c2.86,2.09,4.81,5.41,5.24,8.93l2.56-1.06c-2.36-2.46-3.53-5.7-3.38-9.1l-2.26,1.3c3.9,2.09,6.1,6.7,5.11,11.05h2.89c-.61-1.81-.91-3.65-.83-5.57.06-1.39.24-4.1,1.39-5.12.95-.84,2.09.57,2.24,1.48.29,1.72-1.09,3.53-1.98,4.86l2.36-.3c-2.9-3.11-1.67-8.68.13-12.06.78-1.47,2.21-3.44,4.15-3.02,1.64.36,2.52,2.28,2.59,3.81.1,2.13-1.35,3.96-2.85,5.31-.75.68-1.58,1.27-2.43,1.82-1.02.66-2.19,1.53-3.44,1.63-.64.05-1.74-.21-1.67-1.06.09-1.05,1.77-2.14,2.51-2.74,1.73-1.44,3.98-2.89,6.33-2.36.97.21,1.99.74,2.43,1.67.61,1.28-.02,2.81-.64,3.96-1.26,2.31-3.19,4.05-5.53,5.21l2.26,1.3c.12-2.75.43-5.76,2.13-8.04,1.32-1.78,3.81-3.21,6.03-2.27,3.54,1.5,3.57,6.76,1.56,9.42-1.45,1.91-3.65,3.14-5.89,3.89s-5.03,1.56-7.26.93c-.78-.22-1.42-.63-1.54-1.48-.06-.43.02-1.13.6-.99s.85,1.54.91,2.01c.13,1.06-.19,2.1-.55,3.09-1.82,5.09-6.55,8.78-11.83,9.62l1.46.39c-.42-.46.38-1.08.51-.35.12.62-1.04.3-1.32.1-1.76-1.21-.03-4.82.73-6.17,1.16-2.07,2.9-3.99,5.12-4.93,1.55-.66,5.24-1.19,5.45,1.25s-2.5,3.75-4.41,4.48c-.68.26-2.31,1.09-3.03.63-.79-.51-.22-2.22,0-2.92.68-2.16,2.27-3.98,4.23-5.08.93-.52,1.98-.9,3.05-1.01.7-.07,2.1-.07,2.43.74.41,1.01-1.19,2.9-1.8,3.6-.82.96-1.78,1.79-2.85,2.46-2.32,1.46-4.96,2.14-7.7,1.96l1.45,1.9c.45-3.26,2.75-6.05,5.92-7.01.9-.27,3.84-.93,4.08.47.3,1.81-2.72,2.36-3.88,2.62l1.85,1.05c-1.44-3.66-3.6-8.72-1.04-12.39,1.5-2.15,5.3-3.82,6.83-.75,1.25,2.5-.08,5.81-1.96,7.59-2.94,2.79-7.03,4.01-10.36,6.25-1.16.78-.83,2.87.76,2.8,3.69-.17,7.15-2.01,9.21-5.11,1.74-2.62,1.68-6.94-2.11-7.51-7.11-1.07-15.5,5.44-12.25,12.97.28.64,1.09.8,1.69.69,4.08-.73,7.71-3.24,9.97-6.7,1.18-1.79,1.83-3.8,2.23-5.9s.54-4.72,2.12-6.2c.83-.78,2.82-1.73,3.77-.62.6.7.57,2.02.62,2.89.06,1.17.03,2.35-.13,3.51-.6,4.41-2.8,8.57-6.17,11.49-3.89,3.37-9.11,4.88-14.19,4.37-1.92-.19-1.91,2.81,0,3h0Z"/>
      <path class="cls-2" d="m154.36,154.15c-1.51-.89-3.4-.66-4.71.5s-1.83,3.07-1.75,4.82c.17,3.63,2.61,7.18,6.57,6.99s6.62-3.36,7.7-6.95,1.38-8.5-.74-11.96c-1.96-3.18-5.73-4.95-9.33-3.52s-5.68,5.29-6.42,9.05.09,7.72,4.05,9.09c3.71,1.29,7.93-.86,10.19-3.82s1.49-6.87-1.11-9.33c-3-2.84-7.43-2.83-11.2-1.84-3.32.87-6.69,2.56-8.69,5.44-.96,1.39-1.65,3.27-1.37,4.97.32,1.93,1.96,2.87,3.77,3.14,3.82.55,7.85-.34,11.16-2.32,2.99-1.8,6.28-4.98,6.11-8.77s-4.29-6.19-7.78-6.66-7.34.88-9.43,3.96c-1.87,2.74-2.2,6.64-.36,9.48,1.97,3.04,5.59,4.43,9.03,4.99,7.31,1.17,15.04-.67,21-5.07,1.48-1.09,2.84-2.3,4.07-3.66,1.3-1.43-.82-3.55-2.12-2.12-3.5,3.85-8.11,6.49-13.19,7.63-4.58,1.03-10.8,1.15-14.76-1.78-4.3-3.18-1.85-9.56,2.99-10.43,2.34-.42,5.81.34,7.17,2.49,1.44,2.28-1.11,5.02-2.77,6.35-2.08,1.66-4.73,2.73-7.38,3-1.16.12-2.48.18-3.63-.1-.71-.17-.98-.39-.93-1.14.04-.64.34-1.32.65-1.88,1.17-2.05,3.44-3.35,5.6-4.12,2.57-.92,5.74-1.58,8.36-.47,1.91.81,3.71,3.04,3.07,5.22-.71,2.45-4.19,4.51-6.66,4.19-6.1-.79-2.28-10.92,1.39-12.6,2.91-1.33,5.68.82,6.6,3.57.98,2.91.57,6.78-.72,9.55-1.03,2.22-4.13,4.8-6.51,2.71-1.01-.88-1.39-2.36-1.38-3.65,0-.94.56-3.19,1.96-2.36,1.67.98,3.18-1.61,1.51-2.59h0Z"/>
      <path class="cls-2" d="m145.21,163.73c-1.13.56-1.27,2.11-.44,3,1.13,1.22,2.59.28,3.13-.94,1.03-2.31-.3-5.27-2.69-6.08-2.6-.88-5.5.71-6.55,3.15-1.2,2.8-.13,6.02,1.95,8.11,3.68,3.69,11.78,5.98,15.4,1,1.36-1.87,1.76-4.59.67-6.68-1.16-2.23-4.4-3.54-6.11-1.15-1.59,2.22-.54,5.26,1.36,6.92,2.15,1.87,5.23,2.18,7.7.75.97-.56,2.11-1.49,2.33-2.66.28-1.45-.87-2.69-2.28-2.81-2.95-.25-4.38,3.96-4.98,6.2-.75,2.8-1.01,6.46.22,9.17.51,1.13,1.54,2.08,2.87,1.84,1.6-.29,2.02-1.98,2.21-3.35.33-2.43-.03-6.81-2.67-7.98s-5.3,2.62-5.23,4.92c.1,3.16,3.75,4.03,5.58,1.69,1.65-2.11,1.47-5.23.42-7.56-.98-2.18-3.46-4.82-6.08-4.59-2.83.25-3.26,3.91-1.39,5.56,2.06,1.82,5.35,1.26,7.42-.22,2.27-1.63,3.61-4.4,3.15-7.2s-2.5-5.03-5.06-6.01-5.57-.34-7.72,1.43c-2.02,1.67-3.45,4.49-2.9,7.14.65,3.12,4.2,3.61,6.87,3.71,3.07.11,6.53-.63,9.1-2.38s3.06-4.89,1.07-7.36-5.17-3.65-8.11-4.11-6.13-.05-8.69,1.65c-2.22,1.47-3.96,3.74-4.39,6.42-.55,3.43,1.42,5.64,4.46,6.81,5.83,2.24,12.88,2.29,17.81-1.97,2.16-1.87,3.96-4.83,3.52-7.77-.39-2.65-2.98-4.86-5.71-4s-3.74,4.18-3.74,6.71c0,2.74,1.2,5.56,3.53,7.1,4.39,2.9,11.09.03,10.27-5.65-.32-2.22-1.78-4.14-3.98-4.74-1.87-.51-2.66,2.38-.8,2.89,2.21.6,2.46,3.87.66,5.08-2.36,1.58-5.39,0-6.3-2.44-.53-1.42-.53-3.07,0-4.49.45-1.21,1.65-2.39,2.73-.99,1.01,1.32.08,3.29-.72,4.46-.89,1.3-2.16,2.3-3.55,3.03-3.14,1.64-6.86,1.59-10.22.75-1.44-.36-3.56-.79-4.56-2-1.08-1.31-.32-3.39.52-4.63,1.82-2.71,5.23-3.72,8.35-3.31,1.76.23,3.61.85,5.11,1.81,1.04.66,2.75,2.13,1.9,3.5s-3.06,1.93-4.47,2.28c-1.77.43-3.67.52-5.47.21-.58-.1-1.58-.19-2.01-.66-.45-.49-.3-1.38-.15-1.96.36-1.4,1.33-2.59,2.57-3.31,2.66-1.55,6.08-.15,7.01,2.77.86,2.71-1.72,6.11-4.67,5.57-.5-.09-.82-.26-1-.69-.06-.14.2-.12.01-.05-.22.08.27.19.28.2.28.23.67.35.97.57,1.06.8,1.79,2.02,2.08,3.31.13.59.18,1.22.1,1.82-.04.32-.34,1.79-.81,1.76-.13,0,.43-1.19.55-1.36.15-.2.51-.76.75-.84-.08.03-.33-.13-.11.09.15.15.23.44.3.63.32.8.5,1.66.54,2.52.02.42.02.85-.03,1.27-.02.19-.35,1.19-.27,1.31l.47-.09c.43.07.57,0,.42-.19.01-.05-.12-.25-.13-.32-.03-.4-.2-.81-.27-1.2-.16-.95-.2-1.92-.16-2.88.08-1.71.49-3.44,1.22-4.99.17-.37.37-.74.58-1.09.11-.19.47-.54.52-.73,0-.01-.24-.95-.39-.94-.07,0-.32.33-.38.38-.3.26-.65.48-1.02.64-1.4.57-2.98.21-4-.89-.33-.35-1.54-2.66-.5-2.67s1.21,1.87,1.13,2.52c-.14,1.2-.82,2.26-1.89,2.82-2.92,1.54-7.11,0-9.38-2.09-1.17-1.07-2.05-2.59-1.84-4.22.16-1.31,1.35-2.67,2.79-2.42.84.15,1.76,1.42,1.12,2.23l1.06-.44h-.19c.35.15.71.3,1.06.45l.21.79-.69.9.17-.08c1.73-.86.21-3.45-1.51-2.59h0Z"/>
      <path class="cls-2" d="m350.46,184.31c-.48,5.66-.15,11.33.9,16.92.31,1.65,3.05,1.29,2.95-.4-.51-8.63-2.96-16.92-5.46-25.14l-2.74,1.16c6.02,8.28,8.6,18.84,6.82,28.95l2.95.4c-.11-3.57-.52-7.11-1.23-10.61-.39-1.91-3.2-1.08-2.89.8.9,5.48,1.79,10.96,2.69,16.44.31,1.9,3.2,1.09,2.89-.8-.9-5.48-1.79-10.96-2.69-16.44l-2.89.8c.65,3.24,1.02,6.51,1.12,9.81.05,1.61,2.64,2.13,2.95.4,1.91-10.88-.61-22.31-7.13-31.26-.94-1.29-3.27-.59-2.74,1.16,2.42,7.95,4.86,15.99,5.35,24.34l2.95-.4c-1-5.32-1.25-10.73-.79-16.12.16-1.92-2.84-1.91-3,0h0Z"/>
      <path class="cls-2" d="m316.89,157.82c-1.63,3.2-3.38,6.84-2.47,10.52.75,3.03,3.28,5.64,6.53,5.63,1.23,0,2.07-1.68,1.06-2.56-1.49-1.31-3.56-1.47-5.28-.45s-2.63,2.86-3.2,4.64c-.6,1.87-.66,4.06.54,5.72,1.1,1.52,3.04,2.35,4.87,1.74l-1.69-2.2c-2.4,3.85-.15,9.41,4.25,10.52,1.87.47,2.67-2.42.8-2.89-2.56-.65-3.85-3.87-2.45-6.11.67-1.08-.45-2.62-1.69-2.2-2.24.75-2.11-2.55-1.72-3.76.35-1.08,1.89-4.25,3.47-2.87l1.06-2.56c-2.13,0-3.55-2.13-3.75-4.08-.27-2.66,1.13-5.26,2.29-7.55.87-1.72-1.71-3.24-2.59-1.51h0Z"/>
      <path class="cls-2" d="m269.75,145.54c.55,3.34-.87,6.74.44,10,1.07,2.66,3.33,4.59,6.3,4.14,1.53-.23,1.33-2.53,0-2.89-3.03-.83-6.32,0-8.62,2.13-1.18,1.09-2.25,2.7-2.3,4.35-.05,1.85,1.16,3.23,2.47,4.38,1.44,1.27,3.57-.84,2.12-2.12-.76-.67-1.84-1.47-1.5-2.6.27-.89,1.03-1.7,1.76-2.25,1.51-1.13,3.46-1.5,5.27-1v-2.89c-1.78.27-2.88-2.26-3.07-3.64s.02-2.7.13-4.02c.12-1.49.13-2.91-.11-4.39-.31-1.9-3.2-1.09-2.89.8h0Z"/>
      <path class="cls-2" d="m182.84,160.5c-1.8,2.45-2.94,5.31-3.34,8.33-.18,1.34-.22,2.75.56,3.93s2.09,1.61,3.42,1.34l-1.46-2.51c-1.66,1.41-3.44,3.27-3.06,5.64.34,2.12,2.21,3.67,4.36,3.19l-1.69-2.2c-1.43,2.42-2.18,5.11-2.23,7.92-.04,1.93,2.96,1.93,3,0,.04-2.29.66-4.43,1.82-6.41.69-1.17-.45-2.48-1.69-2.2-.76.17-.59-1.29-.43-1.63.41-.9,1.31-1.57,2.05-2.19,1.23-1.04-.12-2.78-1.46-2.51-.75.16.23-4.17.32-4.46.52-1.72,1.37-3.28,2.43-4.72,1.14-1.56-1.46-3.06-2.59-1.51h0Z"/>
      <path class="cls-1" d="m201.5,421.6s-80-8.1-114-35.1"/>
      <g>
        <g>
          <path class="cls-7" d="m75.5,349.5c40.87,0,74,8.28,74,18.5s-33.13,18.5-74,18.5S1.5,378.22,1.5,368s33.13-18.5,74-18.5Zm40.55,18.55c0-5.83-18.9-10.55-42.2-10.55s-42.2,4.72-42.2,10.55,18.89,10.55,42.2,10.55,42.2-4.72,42.2-10.55Z"/>
          <ellipse class="cls-7" cx="73.85" cy="368.05" rx="42.2" ry="10.55"/>
        </g>
        <g>
          <ellipse class="cls-1" cx="75.5" cy="368" rx="74" ry="18.5"/>
          <ellipse class="cls-1" cx="73.85" cy="368.05" rx="42.2" ry="10.55"/>
        </g>
      </g>
      <g>
        <path class="cls-6" d="m248.5,1.5c46.94,0,85,6.94,85,15.5s-38.06,15.5-85,15.5-85-6.94-85-15.5S201.56,1.5,248.5,1.5Zm44.71,14.12c0-5.04-21.2-9.12-47.35-9.12s-47.36,4.08-47.36,9.12,21.2,9.11,47.36,9.11,47.35-4.08,47.35-9.11Z"/>
        <g>
          <ellipse class="cls-1" cx="248.5" cy="17" rx="85" ry="15.5"/>
          <path class="cls-1" d="m293.21,15.62c0,5.03-21.2,9.11-47.35,9.11s-47.36-4.08-47.36-9.11,21.2-9.12,47.36-9.12,47.35,4.08,47.35,9.12Z"/>
        </g>
      </g>
      <path class="cls-2" d="m224.83,103.42c-1.63,3.14.58,6.01,3.4,7.43,3.01,1.51,6.37,1.5,9.63.91,5.97-1.09,12.24-5.42,11.24-12.24s-8.39-9.84-14.26-10.44c-7.39-.76-16.19,1.94-18.72,9.64-1.2,3.66-.37,7.82,2.72,10.26,2.74,2.17,6.83,2.86,9.78.68.73-.53,1.09-1.65.3-2.36-6.19-5.51-17.37-3.37-20.69,4.4-.3.71-.26,1.66.54,2.05,4.33,2.16,9.54,4.53,14.27,2.12,3.88-1.98,5.98-6.76,3.17-10.51-5.4-7.22-16.24-5.45-22.91-1.33-2.95,1.82-8.4,5.51-6.79,9.64,1.5,3.85,6.89,3.89,10.29,3.8,9.14-.25,18.21-3.4,25.56-8.83,1.77-1.31,3.46-2.73,5.03-4.28,1.64-1.63,3.37-3.42,4.47-5.47s1.54-4.38.22-6.35-3.59-2.57-5.7-2.94c-4.42-.79-8.96-.12-13.01,1.79-3.62,1.71-8.7,5.38-8.52,9.9.09,2.29,1.68,3.97,3.54,5.1,2.13,1.3,4.53,2.27,6.86,3.14,4.92,1.84,10.12,2.93,15.37,3.27,3.93.25,10.08.75,11.81-3.83,1.31-3.48-1.17-7.57-4.5-8.78-4.27-1.55-9.45.99-12.25,4.22-2.16,2.49-3.97,6.77-2.03,9.89.92,1.49,2.69,2.43,4.45,2.28,1.85-.16,3.36-1.38,4.34-2.89,2.44-3.78.72-8-2.54-10.6-1.66-1.33-3.55-2.3-5.46-3.21-.78-.37-1.56-.18-2.05.54-2.19,3.16-1.34,7.02.77,9.98,2.4,3.38,5.78,5.57,9.5,7.28,8.51,3.92,17.9,5.75,27.26,5.28,1.01-.05,2.04-1.29,1.3-2.26-2.78-3.62-6.48-6.3-10.81-7.77-4.08-1.39-9.11-1.82-13.2-.22-3.68,1.45-7.73,4.88-7.33,9.24.45,4.82,6.19,7.28,10.29,8.27,5.36,1.28,11.04.58,15.91-2,.74-.39.9-1.36.54-2.05-4.23-8.12-17.05-9.53-22.88-2.41-.52.64-.61,1.49,0,2.12,3.76,3.89,10.41,3.92,14.22.09.56-.56.6-1.57,0-2.12-9.08-8.39-23.92-8.67-33.36-.73-.77.64-.45,1.88.3,2.36,3.41,2.12,7.77,4.64,11.92,3.18,3.17-1.11,6-4.63,4.85-8.12-1.25-3.76-6.4-5.25-9.88-5.71-4.18-.55-8.41.26-12.09,2.31-1.1.61-.9,2.45.36,2.74,16.83,3.88,34.1,5.85,51.37,5.82,8.61-.02,17.21-.53,25.76-1.54,3.85-.45,7.82-.81,11.58-1.75,2.79-.69,5.73-1.94,7.37-4.43,3.93-5.98-2.89-13.03-8.55-14.37-2.48-.59-5.47-.45-7.28,1.58-2.27,2.54-1.5,5.97.47,8.39,2.27,2.79,5.8,4.65,9.02,6.08s7.13,2.46,10.8,1.63c5.61-1.27,11.29-7.86,7.09-13.41-1.61-2.13-4.35-3.58-7.06-3.24-2.86.36-4.92,2.87-5,5.71-.08,3.07,1.88,6,4.13,7.93,2.77,2.38,6.49,3.72,10.05,4.32,1.95.33,3.9.45,5.87.34.96-.05,1.72-.92,1.45-1.9-2.68-9.62-16.05-14.04-23.46-6.92-3.45,3.32-4.9,8.4-4.24,13.07s4.38,11,9.83,10.08c2.43-.41,4.17-2.54,4.75-4.85.69-2.71-.24-5.35-1.96-7.48-1.87-2.32-4.52-3.99-7.07-5.47-2.68-1.56-5.51-2.88-8.42-3.97-11.63-4.36-24.83-4.78-36.66-.95-3.05.99-6.32,2.25-8.16,5.04-1.7,2.57-1.46,5.81-.17,8.48,3.23,6.68,11.19,7.27,17.71,7.35,1.24.01,1.73-1.26,1.3-2.26-1.32-3.01-4.07-4.91-7.08-6s-6.54-1.63-9.66-1.03c-2.85.54-5.78,3.12-4.28,6.22,1.16,2.4,4.38,3.66,6.12,1.14.28-.4.29-1.11,0-1.51-5.08-7-14.73-10.52-23.06-7.68-1.89.64-4.11,1.97-4.12,4.24,0,1.9,1.99,3.71,3.9,3.17,2.2-.61,1.66-3.12.93-4.69s-1.97-2.77-3.42-3.6c-3.28-1.89-7.83-1.88-10.47,1.11-.43.49-.6,1.23-.23,1.82,2.84,4.48,7.99,7.2,13.31,6.86,1.06-.07,1.59-.9,1.45-1.9-1.07-7.22-5.74-13.63-11.95-17.36s-14.03-4.97-20.04-.68c-3,2.14-5.02,5.56-3.8,9.29.24.72,1.06,1.34,1.85,1.05,4.68-1.75,5.04-7.85,2.23-11.43-3.93-5.01-11.77-3.03-16.15.2-3.23,2.38-6.81,8.68-3.08,12.15,1.97,1.83,4.87,1.58,6.79-.18s2.68-4.8,1.47-7.25c-1.39-2.82-4.65-4.3-7.68-4.38-3.8-.1-7.27,1.93-10.42,3.82-1.65.99-.15,3.59,1.51,2.59,3.56-2.14,8.29-4.98,12.35-2.37,1.43.92,2.3,2.52,1.59,4.18-.54,1.25-2.12,2.55-3.44,1.5-.97-.78-.73-2.24-.41-3.28.47-1.55,1.45-3.02,2.69-4.06,2.85-2.4,8.37-4.37,11.7-1.82,2,1.54,3.04,6.32.05,7.44l1.85,1.05c-1.88-5.74,6.49-8.53,10.76-8.15,6.07.54,11.82,4.13,15.36,9.03,2.04,2.83,3.37,6.02,3.88,9.47l1.45-1.9c-4.27.28-8.42-1.74-10.72-5.37l-.23,1.82c2.79-3.17,9.31-1.06,9.43,3.29l.44-1.06.38-.04c-.07-.01-.12-.05-.17-.1,0-.02-.17-.14-.15-.19.12-.4.5-.65.83-.86.92-.57,2.08-.82,3.13-1.03,2.14-.43,4.42-.41,6.56.01,4.36.85,8.44,3.21,11.06,6.84v-1.51c-.09.14.1,0,.03-.07-.18-.2-.48-.29-.67-.53-.39-.51-.4-.89.03-1.37,1.26-1.39,3.8-1.16,5.47-1,3.93.37,8.34,1.79,10.04,5.67l1.3-2.26c-4.76-.05-10.79-.03-14.05-4.14-1.27-1.59-2.13-3.83-1.53-5.86.67-2.25,2.92-3.48,4.97-4.27,9.61-3.71,20.52-4.14,30.49-1.77,5.02,1.19,9.85,3.08,14.3,5.67,3.31,1.93,9.3,5.45,7.47,10.16-.79,2.04-2.67,2.66-4.52,1.47-1.64-1.05-2.85-2.84-3.48-4.66-1.22-3.54-.76-7.59,1.22-10.77,4.93-7.9,17.71-4.96,20.09,3.58l1.45-1.9c-5.67.32-13.07-1.24-16.16-6.56-.98-1.69-1.52-4.39.6-5.51,1.66-.88,3.82.23,4.94,1.5,3.74,4.26-2.59,8.98-6.57,9.2-3.22.18-6.33-1-9.14-2.46-2.54-1.32-5.63-2.91-7.02-5.55-.99-1.88-.15-3.91,1.99-4.23s4.34.57,6,1.75c2.06,1.46,4.42,4.2,3.87,6.92-.49,2.37-2.98,3.55-5.07,4.19-2.85.88-5.89,1.18-8.83,1.57-3.48.46-6.96.84-10.46,1.13-7.15.6-14.33.86-21.5.78-15.98-.19-31.9-2.1-47.46-5.7l.36,2.74c2.75-1.53,5.83-2.22,8.97-2.05,1.55.08,3.08.4,4.55.92,1.28.45,2.88,1.09,3.74,2.21,1.6,2.1-1.09,4.72-3.07,5.15-3.17.69-6.42-1.48-8.97-3.07l.3,2.36c8.15-6.86,21.31-6.48,29.12.73v-2.12c-2.68,2.69-7.34,2.64-9.98-.09v2.12c4.63-5.66,14.76-4.71,18.16,1.81l.54-2.05c-3.5,1.85-7.51,2.56-11.44,2.09-1.91-.23-3.83-.75-5.58-1.54-1.64-.75-3.73-1.78-4.46-3.55-1.29-3.11,2.45-6,4.92-7.02,3.25-1.35,7.24-1.05,10.55-.11,3.94,1.12,7.58,3.46,10.08,6.72l1.3-2.26c-8.23.41-16.49-.98-24.1-4.15-3.38-1.41-6.66-3.06-9.15-5.81-2.02-2.23-3.59-5.31-1.68-8.07l-2.05.54c2.77,1.32,6.35,2.91,7.5,6.01.67,1.8-.78,5.96-3.3,5s-.92-4.55,0-6c1.69-2.7,5.37-5.02,8.62-4.72,2.28.2,4.88,2.77,3.87,5.23-.59,1.43-2.42,1.78-3.79,1.87-1.94.14-3.93.04-5.87-.11-4-.31-7.95-1.13-11.76-2.37-1.95-.64-3.87-1.39-5.73-2.26-1.42-.67-3.4-1.42-4.26-2.83-1.86-3.04,3.51-6.61,5.67-7.79,3-1.64,6.44-2.4,9.85-2.21,1.57.09,3.34.32,4.76,1.03,1.83.92,1.57,2.68.69,4.24-1.68,2.99-4.59,5.54-7.23,7.66-5.46,4.39-12.08,7.33-18.96,8.6-3.23.6-6.81.99-10.09.56-1.11-.15-2.75-.5-3.42-1.5-.88-1.3.92-2.74,1.78-3.53,4.43-4.13,11.27-7.16,17.36-5.47,2.5.69,6.61,2.89,5.88,6.05-.86,3.71-5.31,4.4-8.41,3.62-2.03-.52-3.92-1.44-5.79-2.38l.54,2.05c2.51-5.88,11.08-8.15,15.98-3.79l.3-2.36c-1.87,1.38-4.25,1.1-6.1-.2-2.11-1.47-2.8-4.05-2.23-6.5,1.47-6.3,8.25-8.42,14-8.41,4.53.01,10.29,1.68,12.65,5.91s-1.06,8.51-5.09,10.08c-2.45.95-5.35,1.45-7.97,1.11-1.58-.21-6.14-1.81-4.93-4.13.89-1.71-1.7-3.23-2.59-1.51h0Z"/>
    </g>
  </g>
</svg>